STARTFONT 2.1
COMMENT
COMMENT Converted from OpenType font "awesome-2.0.otf" by "otf2bdf 3.0".
COMMENT
FONT -FreeType-Source Sans Pro SemiBold-Medium-R-Normal--17-120-100-100-P-85-ISO10646-1
SIZE 12 100 100
FONTBOUNDINGBOX 45 22 -8 -5
STARTPROPERTIES 19
FOUNDRY "FreeType"
FAMILY_NAME "Source Sans Pro SemiBold"
WEIGHT_NAME "Medium"
SLANT "R"
SETWIDTH_NAME "Normal"
ADD_STYLE_NAME ""
PIXEL_SIZE 17
POINT_SIZE 120
RESOLUTION_X 100
RESOLUTION_Y 100
SPACING "P"
AVERAGE_WIDTH 85
CHARSET_REGISTRY "ISO10646"
CHARSET_ENCODING "1"
FONT_ASCENT 16
FONT_DESCENT 4
COPYRIGHT "Copyright 2010, 2012, 2014 Adobe Systems Incorporated (http://www.adobe.com/), with Reserved Font Name Source."
_OTF_FONTFILE "awesome-2.0.otf"
_OTF_PSNAME "SourceSansPro-SemiBold"
ENDPROPERTIES
CHARS 1296
STARTCHAR 0020
ENCODING 32
SWIDTH 180 0
DWIDTH 3 0
BBX 0 0 0 0
BITMAP
ENDCHAR
STARTCHAR 0021
ENCODING 33
SWIDTH 300 0
DWIDTH 5 0
BBX 3 12 1 0
BITMAP
60
60
60
60
40
40
40
40
00
60
E0
60
ENDCHAR
STARTCHAR 0022
ENCODING 34
SWIDTH 480 0
DWIDTH 8 0
BBX 6 5 1 7
BITMAP
CC
CC
CC
4C
48
ENDCHAR
STARTCHAR 0023
ENCODING 35
SWIDTH 540 0
DWIDTH 9 0
BBX 7 11 1 0
BITMAP
24
24
24
FE
FE
4C
FE
FE
48
48
C8
ENDCHAR
STARTCHAR 0024
ENCODING 36
SWIDTH 540 0
DWIDTH 9 0
BBX 7 15 1 -2
BITMAP
10
10
78
7C
C6
C0
70
38
0C
06
86
FC
78
10
10
ENDCHAR
STARTCHAR 0025
ENCODING 37
SWIDTH 840 0
DWIDTH 14 0
BBX 13 12 1 0
BITMAP
00C0
7080
9180
9900
9A00
9A70
9490
7498
0998
0898
1090
3070
ENDCHAR
STARTCHAR 0026
ENCODING 38
SWIDTH 660 0
DWIDTH 11 0
BBX 11 11 0 0
BITMAP
1C00
3E00
3200
3600
3C00
3840
6CC0
C680
6780
7FC0
3CE0
ENDCHAR
STARTCHAR 0027
ENCODING 39
SWIDTH 300 0
DWIDTH 5 0
BBX 2 5 1 7
BITMAP
C0
C0
C0
40
40
ENDCHAR
STARTCHAR 0028
ENCODING 40
SWIDTH 360 0
DWIDTH 6 0
BBX 4 16 1 -3
BITMAP
30
20
60
60
40
C0
C0
C0
C0
C0
C0
40
60
60
20
30
ENDCHAR
STARTCHAR 0029
ENCODING 41
SWIDTH 360 0
DWIDTH 6 0
BBX 3 16 1 -3
BITMAP
80
C0
40
60
60
60
20
20
20
20
60
60
60
40
C0
80
ENDCHAR
STARTCHAR 002A
ENCODING 42
SWIDTH 420 0
DWIDTH 7 0
BBX 6 6 1 6
BITMAP
20
A8
FC
70
58
50
ENDCHAR
STARTCHAR 002B
ENCODING 43
SWIDTH 540 0
DWIDTH 9 0
BBX 7 8 1 2
BITMAP
10
10
10
FE
FE
10
10
10
ENDCHAR
STARTCHAR 002C
ENCODING 44
SWIDTH 300 0
DWIDTH 5 0
BBX 3 5 1 -3
BITMAP
E0
E0
60
40
80
ENDCHAR
STARTCHAR 002D
ENCODING 45
SWIDTH 300 0
DWIDTH 5 0
BBX 4 2 1 3
BITMAP
F0
F0
ENDCHAR
STARTCHAR 002E
ENCODING 46
SWIDTH 300 0
DWIDTH 5 0
BBX 3 3 1 0
BITMAP
C0
E0
C0
ENDCHAR
STARTCHAR 002F
ENCODING 47
SWIDTH 360 0
DWIDTH 6 0
BBX 5 15 0 -3
BITMAP
08
08
08
18
10
10
30
30
20
20
60
40
40
40
C0
ENDCHAR
STARTCHAR 0030
ENCODING 48
SWIDTH 540 0
DWIDTH 9 0
BBX 7 11 1 0
BITMAP
38
7C
CE
C6
C6
C6
C6
C6
CE
7C
38
ENDCHAR
STARTCHAR 0031
ENCODING 49
SWIDTH 540 0
DWIDTH 9 0
BBX 7 11 1 0
BITMAP
38
78
78
18
18
18
18
18
18
FE
FE
ENDCHAR
STARTCHAR 0032
ENCODING 50
SWIDTH 540 0
DWIDTH 9 0
BBX 7 11 1 0
BITMAP
78
FC
8C
04
0C
0C
18
30
60
FE
FE
ENDCHAR
STARTCHAR 0033
ENCODING 51
SWIDTH 540 0
DWIDTH 9 0
BBX 8 11 0 0
BITMAP
3C
7E
47
06
1C
1E
07
03
43
FE
3C
ENDCHAR
STARTCHAR 0034
ENCODING 52
SWIDTH 540 0
DWIDTH 9 0
BBX 8 11 0 0
BITMAP
0E
0E
1E
36
66
66
FF
FF
06
06
06
ENDCHAR
STARTCHAR 0035
ENCODING 53
SWIDTH 540 0
DWIDTH 9 0
BBX 8 11 0 0
BITMAP
3E
3E
60
7C
7E
47
03
03
47
FE
3C
ENDCHAR
STARTCHAR 0036
ENCODING 54
SWIDTH 540 0
DWIDTH 9 0
BBX 7 11 1 0
BITMAP
3C
7E
E4
C0
FC
FE
C6
C6
C6
7C
38
ENDCHAR
STARTCHAR 0037
ENCODING 55
SWIDTH 540 0
DWIDTH 9 0
BBX 7 11 1 0
BITMAP
FE
FE
06
0C
18
18
10
30
30
30
30
ENDCHAR
STARTCHAR 0038
ENCODING 56
SWIDTH 540 0
DWIDTH 9 0
BBX 7 11 1 0
BITMAP
78
FC
C6
E4
7C
7C
CE
86
C6
FE
78
ENDCHAR
STARTCHAR 0039
ENCODING 57
SWIDTH 540 0
DWIDTH 9 0
BBX 7 11 1 0
BITMAP
78
FC
CC
86
C6
FE
76
06
8C
FC
78
ENDCHAR
STARTCHAR 003A
ENCODING 58
SWIDTH 300 0
DWIDTH 5 0
BBX 3 9 1 0
BITMAP
C0
E0
C0
00
00
00
C0
E0
C0
ENDCHAR
STARTCHAR 003B
ENCODING 59
SWIDTH 300 0
DWIDTH 5 0
BBX 3 12 1 -3
BITMAP
C0
E0
C0
00
00
00
00
E0
E0
60
40
80
ENDCHAR
STARTCHAR 003C
ENCODING 60
SWIDTH 540 0
DWIDTH 9 0
BBX 7 7 1 2
BITMAP
02
1E
F0
C0
F0
1E
02
ENDCHAR
STARTCHAR 003D
ENCODING 61
SWIDTH 540 0
DWIDTH 9 0
BBX 7 6 1 3
BITMAP
FE
FE
00
00
FE
FE
ENDCHAR
STARTCHAR 003E
ENCODING 62
SWIDTH 540 0
DWIDTH 9 0
BBX 7 7 1 2
BITMAP
80
F0
3C
06
3C
F0
80
ENDCHAR
STARTCHAR 003F
ENCODING 63
SWIDTH 480 0
DWIDTH 8 0
BBX 6 12 1 0
BITMAP
78
FC
8C
0C
18
30
30
20
00
30
70
30
ENDCHAR
STARTCHAR 0040
ENCODING 64
SWIDTH 900 0
DWIDTH 15 0
BBX 13 15 1 -3
BITMAP
07C0
1FE0
3830
6018
4798
CF88
8988
9988
9998
9FF0
CEE0
C000
7080
3F80
1F00
ENDCHAR
STARTCHAR 0041
ENCODING 65
SWIDTH 540 0
DWIDTH 9 0
BBX 10 11 0 0
BITMAP
1C00
1C00
1600
3600
3200
2300
7F00
7F00
6180
C180
C1C0
ENDCHAR
STARTCHAR 0042
ENCODING 66
SWIDTH 600 0
DWIDTH 10 0
BBX 9 11 1 0
BITMAP
FE00
FF00
C300
C300
FE00
FE00
C300
C180
C300
FF00
FE00
ENDCHAR
STARTCHAR 0043
ENCODING 67
SWIDTH 600 0
DWIDTH 10 0
BBX 8 11 1 0
BITMAP
1E
7F
62
C0
C0
C0
C0
C0
61
7F
1E
ENDCHAR
STARTCHAR 0044
ENCODING 68
SWIDTH 660 0
DWIDTH 11 0
BBX 9 11 1 0
BITMAP
FC00
FF00
C700
C380
C180
C180
C180
C380
C700
FE00
FC00
ENDCHAR
STARTCHAR 0045
ENCODING 69
SWIDTH 540 0
DWIDTH 9 0
BBX 7 11 1 0
BITMAP
FE
FE
C0
C0
FC
FC
C0
C0
C0
FE
FE
ENDCHAR
STARTCHAR 0046
ENCODING 70
SWIDTH 540 0
DWIDTH 9 0
BBX 7 11 1 0
BITMAP
FE
FE
C0
C0
FC
FC
C0
C0
C0
C0
C0
ENDCHAR
STARTCHAR 0047
ENCODING 71
SWIDTH 660 0
DWIDTH 11 0
BBX 9 11 1 0
BITMAP
1E00
7F00
6100
C000
C000
C780
C780
C180
6180
7F80
1E00
ENDCHAR
STARTCHAR 0048
ENCODING 72
SWIDTH 660 0
DWIDTH 11 0
BBX 9 11 1 0
BITMAP
C180
C180
C180
C180
FF80
FF80
C180
C180
C180
C180
C180
ENDCHAR
STARTCHAR 0049
ENCODING 73
SWIDTH 300 0
DWIDTH 5 0
BBX 2 11 1 0
BITMAP
C0
C0
C0
C0
C0
C0
C0
C0
C0
C0
C0
ENDCHAR
STARTCHAR 004A
ENCODING 74
SWIDTH 480 0
DWIDTH 8 0
BBX 7 11 0 0
BITMAP
06
06
06
06
06
06
06
06
46
FE
3C
ENDCHAR
STARTCHAR 004B
ENCODING 75
SWIDTH 600 0
DWIDTH 10 0
BBX 9 11 1 0
BITMAP
C380
C600
CE00
CC00
D800
FC00
EC00
E600
C300
C300
C180
ENDCHAR
STARTCHAR 004C
ENCODING 76
SWIDTH 540 0
DWIDTH 9 0
BBX 7 11 1 0
BITMAP
C0
C0
C0
C0
C0
C0
C0
C0
C0
FE
FE
ENDCHAR
STARTCHAR 004D
ENCODING 77
SWIDTH 780 0
DWIDTH 13 0
BBX 10 11 1 0
BITMAP
E0C0
E1C0
F1C0
F140
D3C0
DBC0
DAC0
CEC0
CCC0
C4C0
C0C0
ENDCHAR
STARTCHAR 004E
ENCODING 78
SWIDTH 660 0
DWIDTH 11 0
BBX 9 11 1 0
BITMAP
E180
E180
F180
D180
D980
CD80
CD80
C780
C780
C380
C380
ENDCHAR
STARTCHAR 004F
ENCODING 79
SWIDTH 660 0
DWIDTH 11 0
BBX 10 11 1 0
BITMAP
3E00
7F00
E380
C180
C0C0
C0C0
C0C0
C180
E380
7F00
3E00
ENDCHAR
STARTCHAR 0050
ENCODING 80
SWIDTH 600 0
DWIDTH 10 0
BBX 8 11 1 0
BITMAP
FE
FF
C3
C3
C3
FF
FC
C0
C0
C0
C0
ENDCHAR
STARTCHAR 0051
ENCODING 81
SWIDTH 660 0
DWIDTH 11 0
BBX 10 14 1 -3
BITMAP
3E00
7F00
E380
C180
C0C0
C0C0
C0C0
C180
E380
7F00
3E00
0C00
07C0
03C0
ENDCHAR
STARTCHAR 0052
ENCODING 82
SWIDTH 600 0
DWIDTH 10 0
BBX 9 11 1 0
BITMAP
FE00
FF00
C300
C300
C300
FE00
FC00
CE00
C600
C300
C380
ENDCHAR
STARTCHAR 0053
ENCODING 83
SWIDTH 540 0
DWIDTH 9 0
BBX 8 11 1 0
BITMAP
3C
7E
C2
C0
70
3C
0E
03
C7
FE
7C
ENDCHAR
STARTCHAR 0054
ENCODING 84
SWIDTH 540 0
DWIDTH 9 0
BBX 9 11 0 0
BITMAP
FF80
FF80
0C00
0C00
0C00
0C00
0C00
0C00
0C00
0C00
0C00
ENDCHAR
STARTCHAR 0055
ENCODING 85
SWIDTH 660 0
DWIDTH 11 0
BBX 9 11 1 0
BITMAP
C180
C180
C180
C180
C180
C180
C180
E180
6300
7F00
3E00
ENDCHAR
STARTCHAR 0056
ENCODING 86
SWIDTH 540 0
DWIDTH 9 0
BBX 9 11 0 0
BITMAP
C180
C180
6300
6300
6300
3200
3600
3600
1600
1C00
1C00
ENDCHAR
STARTCHAR 0057
ENCODING 87
SWIDTH 840 0
DWIDTH 14 0
BBX 13 11 0 0
BITMAP
C318
6318
6718
6798
6590
65B0
2CB0
3CB0
38F0
38E0
3860
ENDCHAR
STARTCHAR 0058
ENCODING 88
SWIDTH 540 0
DWIDTH 9 0
BBX 9 11 0 0
BITMAP
E380
6300
3600
3600
1C00
1C00
1C00
3600
3700
6300
E180
ENDCHAR
STARTCHAR 0059
ENCODING 89
SWIDTH 540 0
DWIDTH 9 0
BBX 9 11 0 0
BITMAP
C380
6300
6600
3600
3400
1C00
1800
1800
1800
1800
1800
ENDCHAR
STARTCHAR 005A
ENCODING 90
SWIDTH 540 0
DWIDTH 9 0
BBX 8 11 1 0
BITMAP
FF
FF
06
0C
1C
38
30
60
C0
FF
FF
ENDCHAR
STARTCHAR 005B
ENCODING 91
SWIDTH 360 0
DWIDTH 6 0
BBX 3 16 2 -3
BITMAP
E0
E0
80
80
80
80
80
80
80
80
80
80
80
80
E0
E0
ENDCHAR
STARTCHAR 005C
ENCODING 92
SWIDTH 360 0
DWIDTH 6 0
BBX 6 15 0 -3
BITMAP
C0
40
40
60
20
20
20
30
10
10
10
18
08
08
0C
ENDCHAR
STARTCHAR 005D
ENCODING 93
SWIDTH 360 0
DWIDTH 6 0
BBX 3 16 1 -3
BITMAP
E0
E0
60
60
60
60
60
60
60
60
60
60
60
60
E0
E0
ENDCHAR
STARTCHAR 005E
ENCODING 94
SWIDTH 540 0
DWIDTH 9 0
BBX 7 7 1 4
BITMAP
30
38
28
6C
4C
C4
C6
ENDCHAR
STARTCHAR 005F
ENCODING 95
SWIDTH 540 0
DWIDTH 9 0
BBX 8 2 0 -3
BITMAP
FF
FF
ENDCHAR
STARTCHAR 0060
ENCODING 96
SWIDTH 540 0
DWIDTH 9 0
BBX 4 4 2 10
BITMAP
40
C0
60
30
ENDCHAR
STARTCHAR 0061
ENCODING 97
SWIDTH 540 0
DWIDTH 9 0
BBX 7 8 1 0
BITMAP
78
FC
86
3E
C6
CE
FE
76
ENDCHAR
STARTCHAR 0062
ENCODING 98
SWIDTH 600 0
DWIDTH 10 0
BBX 8 12 1 0
BITMAP
C0
C0
C0
C0
DC
FE
E7
C3
C3
E7
FE
DC
ENDCHAR
STARTCHAR 0063
ENCODING 99
SWIDTH 480 0
DWIDTH 8 0
BBX 6 8 1 0
BITMAP
3C
7C
C8
C0
C0
C4
FC
38
ENDCHAR
STARTCHAR 0064
ENCODING 100
SWIDTH 600 0
DWIDTH 10 0
BBX 7 12 1 0
BITMAP
06
06
06
06
3E
FE
C6
C6
C6
C6
FE
7A
ENDCHAR
STARTCHAR 0065
ENCODING 101
SWIDTH 540 0
DWIDTH 9 0
BBX 7 8 1 0
BITMAP
3C
FE
C6
FE
C0
C4
FE
3C
ENDCHAR
STARTCHAR 0066
ENCODING 102
SWIDTH 300 0
DWIDTH 5 0
BBX 6 12 0 0
BITMAP
1C
3C
30
30
F8
F8
30
30
30
30
30
30
ENDCHAR
STARTCHAR 0067
ENCODING 103
SWIDTH 540 0
DWIDTH 9 0
BBX 8 11 1 -3
BITMAP
7E
FE
C4
7C
78
C0
FE
7F
83
FE
7C
ENDCHAR
STARTCHAR 0068
ENCODING 104
SWIDTH 540 0
DWIDTH 9 0
BBX 7 12 1 0
BITMAP
C0
C0
C0
C0
DC
FE
E6
C6
C6
C6
C6
C6
ENDCHAR
STARTCHAR 0069
ENCODING 105
SWIDTH 240 0
DWIDTH 4 0
BBX 2 11 1 0
BITMAP
C0
C0
00
C0
C0
C0
C0
C0
C0
C0
C0
ENDCHAR
STARTCHAR 006A
ENCODING 106
SWIDTH 240 0
DWIDTH 4 0
BBX 4 14 -1 -3
BITMAP
30
30
00
30
30
30
30
30
30
30
30
30
F0
E0
ENDCHAR
STARTCHAR 006B
ENCODING 107
SWIDTH 540 0
DWIDTH 9 0
BBX 8 12 1 0
BITMAP
C0
C0
C0
C0
C6
CC
D8
F8
E8
CC
C6
C7
ENDCHAR
STARTCHAR 006C
ENCODING 108
SWIDTH 300 0
DWIDTH 5 0
BBX 3 12 1 0
BITMAP
C0
C0
C0
C0
C0
C0
C0
C0
C0
C0
E0
60
ENDCHAR
STARTCHAR 006D
ENCODING 109
SWIDTH 840 0
DWIDTH 14 0
BBX 12 8 1 0
BITMAP
DCE0
FFF0
E730
C630
C630
C630
C630
C630
ENDCHAR
STARTCHAR 006E
ENCODING 110
SWIDTH 600 0
DWIDTH 10 0
BBX 7 8 1 0
BITMAP
DC
FE
E6
C6
C6
C6
C6
C6
ENDCHAR
STARTCHAR 006F
ENCODING 111
SWIDTH 540 0
DWIDTH 9 0
BBX 8 8 1 0
BITMAP
3C
FE
C6
C3
C3
C6
FE
3C
ENDCHAR
STARTCHAR 0070
ENCODING 112
SWIDTH 600 0
DWIDTH 10 0
BBX 8 11 1 -3
BITMAP
DC
FE
E7
C3
C3
E7
FE
DC
C0
C0
C0
ENDCHAR
STARTCHAR 0071
ENCODING 113
SWIDTH 600 0
DWIDTH 10 0
BBX 7 11 1 -3
BITMAP
3A
FE
C6
C6
C6
C6
FE
7E
06
06
06
ENDCHAR
STARTCHAR 0072
ENCODING 114
SWIDTH 360 0
DWIDTH 6 0
BBX 5 8 1 0
BITMAP
D8
F8
E0
C0
C0
C0
C0
C0
ENDCHAR
STARTCHAR 0073
ENCODING 115
SWIDTH 420 0
DWIDTH 7 0
BBX 7 8 0 0
BITMAP
3C
7E
64
78
1C
46
FE
3C
ENDCHAR
STARTCHAR 0074
ENCODING 116
SWIDTH 360 0
DWIDTH 6 0
BBX 6 11 0 0
BITMAP
30
30
30
FC
FC
30
30
30
30
3C
3C
ENDCHAR
STARTCHAR 0075
ENCODING 117
SWIDTH 540 0
DWIDTH 9 0
BBX 7 8 1 0
BITMAP
C6
C6
C6
C6
C6
C6
FE
72
ENDCHAR
STARTCHAR 0076
ENCODING 118
SWIDTH 480 0
DWIDTH 8 0
BBX 8 8 0 0
BITMAP
C3
63
62
66
36
34
1C
1C
ENDCHAR
STARTCHAR 0077
ENCODING 119
SWIDTH 780 0
DWIDTH 13 0
BBX 12 8 0 0
BITMAP
C630
6730
6730
6520
2D60
3DE0
39E0
38C0
ENDCHAR
STARTCHAR 0078
ENCODING 120
SWIDTH 480 0
DWIDTH 8 0
BBX 8 8 0 0
BITMAP
E7
66
3C
1C
3C
3C
66
E3
ENDCHAR
STARTCHAR 0079
ENCODING 121
SWIDTH 480 0
DWIDTH 8 0
BBX 8 11 0 -3
BITMAP
C3
63
62
36
36
14
1C
18
18
78
70
ENDCHAR
STARTCHAR 007A
ENCODING 122
SWIDTH 480 0
DWIDTH 8 0
BBX 6 8 1 0
BITMAP
FC
FC
18
30
20
40
FC
FC
ENDCHAR
STARTCHAR 007B
ENCODING 123
SWIDTH 360 0
DWIDTH 6 0
BBX 4 16 1 -3
BITMAP
70
70
60
40
40
60
60
C0
C0
40
60
40
40
60
70
70
ENDCHAR
STARTCHAR 007C
ENCODING 124
SWIDTH 240 0
DWIDTH 4 0
BBX 1 17 2 -4
BITMAP
80
80
80
80
80
80
80
80
80
80
80
80
80
80
80
80
80
ENDCHAR
STARTCHAR 007D
ENCODING 125
SWIDTH 360 0
DWIDTH 6 0
BBX 4 16 1 -3
BITMAP
C0
E0
60
60
60
60
60
70
70
60
60
60
60
60
E0
C0
ENDCHAR
STARTCHAR 007E
ENCODING 126
SWIDTH 540 0
DWIDTH 9 0
BBX 7 2 1 5
BITMAP
F2
9C
ENDCHAR
STARTCHAR 00A0
ENCODING 160
SWIDTH 180 0
DWIDTH 3 0
BBX 0 0 0 0
BITMAP
ENDCHAR
STARTCHAR 00A1
ENCODING 161
SWIDTH 300 0
DWIDTH 5 0
BBX 3 12 1 -4
BITMAP
60
E0
60
00
40
40
40
40
60
60
60
60
ENDCHAR
STARTCHAR 00A2
ENCODING 162
SWIDTH 540 0
DWIDTH 9 0
BBX 7 13 1 -1
BITMAP
08
08
3C
7E
E8
C8
C8
C8
EC
7E
3C
08
08
ENDCHAR
STARTCHAR 00A3
ENCODING 163
SWIDTH 540 0
DWIDTH 9 0
BBX 7 11 1 0
BITMAP
3C
7E
64
60
60
FC
FC
20
60
FE
FE
ENDCHAR
STARTCHAR 00A4
ENCODING 164
SWIDTH 540 0
DWIDTH 9 0
BBX 8 9 0 1
BITMAP
42
FF
7E
63
63
63
7E
7F
C2
ENDCHAR
STARTCHAR 00A5
ENCODING 165
SWIDTH 540 0
DWIDTH 9 0
BBX 8 11 0 0
BITMAP
E3
63
26
36
14
7F
18
7F
18
18
18
ENDCHAR
STARTCHAR 00A6
ENCODING 166
SWIDTH 240 0
DWIDTH 4 0
BBX 1 17 2 -4
BITMAP
80
80
80
80
80
80
80
80
00
80
80
80
80
80
80
80
80
ENDCHAR
STARTCHAR 00A7
ENCODING 167
SWIDTH 540 0
DWIDTH 9 0
BBX 7 14 1 -2
BITMAP
38
7C
44
60
F0
DC
86
C6
76
1C
0C
4C
FC
78
ENDCHAR
STARTCHAR 00A8
ENCODING 168
SWIDTH 540 0
DWIDTH 9 0
BBX 5 2 2 10
BITMAP
C8
D8
ENDCHAR
STARTCHAR 00A9
ENCODING 169
SWIDTH 780 0
DWIDTH 13 0
BBX 11 11 1 0
BITMAP
1F00
6080
4040
8E60
9F20
B220
B220
9F60
4E40
6080
1F00
ENDCHAR
STARTCHAR 00AA
ENCODING 170
SWIDTH 360 0
DWIDTH 6 0
BBX 4 6 1 6
BITMAP
F0
90
70
90
90
F0
ENDCHAR
STARTCHAR 00AB
ENCODING 171
SWIDTH 480 0
DWIDTH 8 0
BBX 6 7 1 1
BITMAP
24
48
D8
90
D8
48
24
ENDCHAR
STARTCHAR 00AC
ENCODING 172
SWIDTH 540 0
DWIDTH 9 0
BBX 7 5 1 2
BITMAP
FE
FE
02
02
02
ENDCHAR
STARTCHAR 00AD
ENCODING 173
SWIDTH 300 0
DWIDTH 5 0
BBX 4 2 1 3
BITMAP
F0
F0
ENDCHAR
STARTCHAR 00AE
ENCODING 174
SWIDTH 480 0
DWIDTH 8 0
BBX 7 7 0 5
BITMAP
38
44
BA
BA
AA
44
38
ENDCHAR
STARTCHAR 00AF
ENCODING 175
SWIDTH 540 0
DWIDTH 9 0
BBX 5 1 2 10
BITMAP
F8
ENDCHAR
STARTCHAR 00B0
ENCODING 176
SWIDTH 360 0
DWIDTH 6 0
BBX 4 6 1 7
BITMAP
60
F0
90
90
F0
60
ENDCHAR
STARTCHAR 00B1
ENCODING 177
SWIDTH 540 0
DWIDTH 9 0
BBX 7 10 1 0
BITMAP
10
10
10
FE
FE
10
10
10
FE
FE
ENDCHAR
STARTCHAR 00B2
ENCODING 178
SWIDTH 360 0
DWIDTH 6 0
BBX 5 7 1 7
BITMAP
F0
90
10
30
60
E0
F8
ENDCHAR
STARTCHAR 00B3
ENCODING 179
SWIDTH 360 0
DWIDTH 6 0
BBX 5 7 1 7
BITMAP
F0
90
10
60
10
98
F0
ENDCHAR
STARTCHAR 00B4
ENCODING 180
SWIDTH 540 0
DWIDTH 9 0
BBX 4 4 4 10
BITMAP
20
70
C0
80
ENDCHAR
STARTCHAR 00B5
ENCODING 181
SWIDTH 600 0
DWIDTH 10 0
BBX 9 11 1 -3
BITMAP
C600
C600
C600
C600
C600
C600
FF00
FB80
C000
C000
C000
ENDCHAR
STARTCHAR 00B6
ENCODING 182
SWIDTH 600 0
DWIDTH 10 0
BBX 8 12 1 -1
BITMAP
7B
FB
FB
FB
FB
FB
7B
0B
03
03
03
03
ENDCHAR
STARTCHAR 00B7
ENCODING 183
SWIDTH 300 0
DWIDTH 5 0
BBX 3 3 1 4
BITMAP
C0
E0
C0
ENDCHAR
STARTCHAR 00B8
ENCODING 184
SWIDTH 540 0
DWIDTH 9 0
BBX 3 5 3 -5
BITMAP
40
60
A0
20
C0
ENDCHAR
STARTCHAR 00B9
ENCODING 185
SWIDTH 360 0
DWIDTH 6 0
BBX 3 7 1 7
BITMAP
60
E0
20
20
20
20
20
ENDCHAR
STARTCHAR 00BA
ENCODING 186
SWIDTH 360 0
DWIDTH 6 0
BBX 6 6 0 6
BITMAP
38
48
CC
CC
48
38
ENDCHAR
STARTCHAR 00BB
ENCODING 187
SWIDTH 480 0
DWIDTH 8 0
BBX 6 7 1 1
BITMAP
90
D8
6C
24
6C
D8
90
ENDCHAR
STARTCHAR 00BC
ENCODING 188
SWIDTH 840 0
DWIDTH 14 0
BBX 12 12 1 0
BITMAP
0080
6180
E100
6300
6200
6660
64E0
6CA0
09A0
19F0
1020
3020
ENDCHAR
STARTCHAR 00BD
ENCODING 189
SWIDTH 840 0
DWIDTH 14 0
BBX 12 12 1 0
BITMAP
0080
6100
E100
6200
6200
64E0
6530
6810
0830
1060
10C0
20F0
ENDCHAR
STARTCHAR 00BE
ENCODING 190
SWIDTH 840 0
DWIDTH 14 0
BBX 12 12 1 0
BITMAP
00C0
F080
9180
1100
6300
1260
9E60
F4A0
0DA0
09F0
1820
1020
ENDCHAR
STARTCHAR 00BF
ENCODING 191
SWIDTH 480 0
DWIDTH 8 0
BBX 6 11 1 -3
BITMAP
30
30
30
00
30
30
60
C0
C8
FC
78
ENDCHAR
STARTCHAR 00C0
ENCODING 192
SWIDTH 540 0
DWIDTH 9 0
BBX 10 15 0 0
BITMAP
1000
3800
0C00
0000
1C00
1C00
1600
3600
3200
2300
7F00
7F00
6180
C180
C1C0
ENDCHAR
STARTCHAR 00C1
ENCODING 193
SWIDTH 540 0
DWIDTH 9 0
BBX 10 15 0 0
BITMAP
0200
0E00
0800
0000
1C00
1C00
1600
3600
3200
2300
7F00
7F00
6180
C180
C1C0
ENDCHAR
STARTCHAR 00C2
ENCODING 194
SWIDTH 540 0
DWIDTH 9 0
BBX 10 14 0 0
BITMAP
1C00
3200
0000
1C00
1C00
1600
3600
3200
2300
7F00
7F00
6180
C180
C1C0
ENDCHAR
STARTCHAR 00C3
ENCODING 195
SWIDTH 540 0
DWIDTH 9 0
BBX 10 14 0 0
BITMAP
3900
2E00
4000
1C00
1C00
1600
3600
3200
2300
7F00
7F00
6180
C180
C1C0
ENDCHAR
STARTCHAR 00C4
ENCODING 196
SWIDTH 540 0
DWIDTH 9 0
BBX 10 14 0 0
BITMAP
3200
3700
0000
1C00
1C00
1600
3600
3200
2300
7F00
7F00
6180
C180
C1C0
ENDCHAR
STARTCHAR 00C5
ENCODING 197
SWIDTH 540 0
DWIDTH 9 0
BBX 10 15 0 0
BITMAP
1C00
1400
1E00
0000
1C00
1C00
1600
3600
3200
2300
7F00
7F00
6180
C180
C1C0
ENDCHAR
STARTCHAR 00C6
ENCODING 198
SWIDTH 840 0
DWIDTH 14 0
BBX 13 11 0 0
BITMAP
07F8
07F8
0D80
0D80
19F0
11F0
3F80
3F80
6180
61F8
C1F8
ENDCHAR
STARTCHAR 00C7
ENCODING 199
SWIDTH 600 0
DWIDTH 10 0
BBX 8 16 1 -5
BITMAP
1E
7F
62
C0
C0
C0
C0
C0
61
7F
1E
08
0C
04
04
18
ENDCHAR
STARTCHAR 00C8
ENCODING 200
SWIDTH 540 0
DWIDTH 9 0
BBX 7 15 1 0
BITMAP
20
70
18
00
FE
FE
C0
C0
FC
FC
C0
C0
C0
FE
FE
ENDCHAR
STARTCHAR 00C9
ENCODING 201
SWIDTH 540 0
DWIDTH 9 0
BBX 7 15 1 0
BITMAP
04
0E
10
00
FE
FE
C0
C0
FC
FC
C0
C0
C0
FE
FE
ENDCHAR
STARTCHAR 00CA
ENCODING 202
SWIDTH 540 0
DWIDTH 9 0
BBX 7 14 1 0
BITMAP
38
66
00
FE
FE
C0
C0
FC
FC
C0
C0
C0
FE
FE
ENDCHAR
STARTCHAR 00CB
ENCODING 203
SWIDTH 540 0
DWIDTH 9 0
BBX 7 14 1 0
BITMAP
66
66
00
FE
FE
C0
C0
FC
FC
C0
C0
C0
FE
FE
ENDCHAR
STARTCHAR 00CC
ENCODING 204
SWIDTH 300 0
DWIDTH 5 0
BBX 4 15 0 0
BITMAP
80
E0
30
00
60
60
60
60
60
60
60
60
60
60
60
ENDCHAR
STARTCHAR 00CD
ENCODING 205
SWIDTH 300 0
DWIDTH 5 0
BBX 4 15 1 0
BITMAP
20
70
C0
00
C0
C0
C0
C0
C0
C0
C0
C0
C0
C0
C0
ENDCHAR
STARTCHAR 00CE
ENCODING 206
SWIDTH 300 0
DWIDTH 5 0
BBX 5 14 0 0
BITMAP
70
98
00
60
60
60
60
60
60
60
60
60
60
60
ENDCHAR
STARTCHAR 00CF
ENCODING 207
SWIDTH 300 0
DWIDTH 5 0
BBX 5 14 0 0
BITMAP
98
D8
00
60
60
60
60
60
60
60
60
60
60
60
ENDCHAR
STARTCHAR 00D0
ENCODING 208
SWIDTH 660 0
DWIDTH 11 0
BBX 9 11 1 0
BITMAP
7C00
7F00
6380
6180
F980
F980
6180
6180
6380
7F00
7C00
ENDCHAR
STARTCHAR 00D1
ENCODING 209
SWIDTH 660 0
DWIDTH 11 0
BBX 9 14 1 0
BITMAP
3300
6E00
0000
E180
E180
F180
D180
D980
CD80
CD80
C780
C780
C380
C380
ENDCHAR
STARTCHAR 00D2
ENCODING 210
SWIDTH 660 0
DWIDTH 11 0
BBX 10 15 1 0
BITMAP
1000
3800
0C00
0000
3E00
7F00
E380
C180
C0C0
C0C0
C0C0
C180
E380
7F00
3E00
ENDCHAR
STARTCHAR 00D3
ENCODING 211
SWIDTH 660 0
DWIDTH 11 0
BBX 10 15 1 0
BITMAP
0200
0E00
0800
0000
3E00
7F00
E380
C180
C0C0
C0C0
C0C0
C180
E380
7F00
3E00
ENDCHAR
STARTCHAR 00D4
ENCODING 212
SWIDTH 660 0
DWIDTH 11 0
BBX 10 14 1 0
BITMAP
1C00
3200
0000
3E00
7F00
E380
C180
C0C0
C0C0
C0C0
C180
E380
7F00
3E00
ENDCHAR
STARTCHAR 00D5
ENCODING 213
SWIDTH 660 0
DWIDTH 11 0
BBX 10 14 1 0
BITMAP
3900
2E00
0000
3E00
7F00
E380
C180
C0C0
C0C0
C0C0
C180
E380
7F00
3E00
ENDCHAR
STARTCHAR 00D6
ENCODING 214
SWIDTH 660 0
DWIDTH 11 0
BBX 10 14 1 0
BITMAP
3200
3300
0000
3E00
7F00
E380
C180
C0C0
C0C0
C0C0
C180
E380
7F00
3E00
ENDCHAR
STARTCHAR 00D7
ENCODING 215
SWIDTH 540 0
DWIDTH 9 0
BBX 7 7 1 2
BITMAP
84
CE
78
30
78
CC
86
ENDCHAR
STARTCHAR 00D8
ENCODING 216
SWIDTH 660 0
DWIDTH 11 0
BBX 10 11 1 0
BITMAP
3EC0
7F80
E380
C780
CEC0
CCC0
D8C0
F180
7380
7F00
DE00
ENDCHAR
STARTCHAR 00D9
ENCODING 217
SWIDTH 660 0
DWIDTH 11 0
BBX 9 15 1 0
BITMAP
1000
3800
0C00
0000
C180
C180
C180
C180
C180
C180
C180
E180
6300
7F00
3E00
ENDCHAR
STARTCHAR 00DA
ENCODING 218
SWIDTH 660 0
DWIDTH 11 0
BBX 9 15 1 0
BITMAP
0600
0E00
1800
0000
C180
C180
C180
C180
C180
C180
C180
E180
6300
7F00
3E00
ENDCHAR
STARTCHAR 00DB
ENCODING 219
SWIDTH 660 0
DWIDTH 11 0
BBX 9 14 1 0
BITMAP
1C00
2200
0000
C180
C180
C180
C180
C180
C180
C180
E180
6300
7F00
3E00
ENDCHAR
STARTCHAR 00DC
ENCODING 220
SWIDTH 660 0
DWIDTH 11 0
BBX 9 14 1 0
BITMAP
3600
3600
0000
C180
C180
C180
C180
C180
C180
C180
E180
6300
7F00
3E00
ENDCHAR
STARTCHAR 00DD
ENCODING 221
SWIDTH 540 0
DWIDTH 9 0
BBX 9 15 0 0
BITMAP
0400
0E00
1800
0000
C380
6300
6600
3600
3400
1C00
1800
1800
1800
1800
1800
ENDCHAR
STARTCHAR 00DE
ENCODING 222
SWIDTH 600 0
DWIDTH 10 0
BBX 8 11 1 0
BITMAP
C0
FE
FF
C3
C3
C3
C3
FF
FC
C0
C0
ENDCHAR
STARTCHAR 00DF
ENCODING 223
SWIDTH 600 0
DWIDTH 10 0
BBX 9 12 1 0
BITMAP
3C00
7E00
E600
C600
C400
CC00
CC00
C700
C380
D180
CF80
DF00
ENDCHAR
STARTCHAR 00E0
ENCODING 224
SWIDTH 540 0
DWIDTH 9 0
BBX 7 14 1 0
BITMAP
40
60
30
18
00
00
78
FC
86
3E
C6
CE
FE
76
ENDCHAR
STARTCHAR 00E1
ENCODING 225
SWIDTH 540 0
DWIDTH 9 0
BBX 7 14 1 0
BITMAP
04
0C
18
10
00
00
78
FC
86
3E
C6
CE
FE
76
ENDCHAR
STARTCHAR 00E2
ENCODING 226
SWIDTH 540 0
DWIDTH 9 0
BBX 7 13 1 0
BITMAP
38
6C
44
00
00
78
FC
86
3E
C6
CE
FE
76
ENDCHAR
STARTCHAR 00E3
ENCODING 227
SWIDTH 540 0
DWIDTH 9 0
BBX 7 12 1 0
BITMAP
76
5C
80
00
78
FC
86
3E
C6
CE
FE
76
ENDCHAR
STARTCHAR 00E4
ENCODING 228
SWIDTH 540 0
DWIDTH 9 0
BBX 7 12 1 0
BITMAP
6C
6C
00
00
78
FC
86
3E
C6
CE
FE
76
ENDCHAR
STARTCHAR 00E5
ENCODING 229
SWIDTH 540 0
DWIDTH 9 0
BBX 7 13 1 0
BITMAP
38
2C
2C
38
00
78
FC
86
3E
C6
CE
FE
76
ENDCHAR
STARTCHAR 00E6
ENCODING 230
SWIDTH 780 0
DWIDTH 13 0
BBX 12 8 1 0
BITMAP
39C0
FFE0
8630
3FF0
C600
CE20
FFE0
71C0
ENDCHAR
STARTCHAR 00E7
ENCODING 231
SWIDTH 480 0
DWIDTH 8 0
BBX 6 13 1 -5
BITMAP
3C
7C
C8
C0
C0
C4
FC
38
10
18
28
08
30
ENDCHAR
STARTCHAR 00E8
ENCODING 232
SWIDTH 540 0
DWIDTH 9 0
BBX 7 14 1 0
BITMAP
40
60
30
18
00
00
3C
FE
C6
FE
C0
C4
FE
3C
ENDCHAR
STARTCHAR 00E9
ENCODING 233
SWIDTH 540 0
DWIDTH 9 0
BBX 7 14 1 0
BITMAP
04
0C
18
10
00
00
3C
FE
C6
FE
C0
C4
FE
3C
ENDCHAR
STARTCHAR 00EA
ENCODING 234
SWIDTH 540 0
DWIDTH 9 0
BBX 7 13 1 0
BITMAP
38
6C
44
00
00
3C
FE
C6
FE
C0
C4
FE
3C
ENDCHAR
STARTCHAR 00EB
ENCODING 235
SWIDTH 540 0
DWIDTH 9 0
BBX 7 12 1 0
BITMAP
6C
6C
00
00
3C
FE
C6
FE
C0
C4
FE
3C
ENDCHAR
STARTCHAR 00EC
ENCODING 236
SWIDTH 240 0
DWIDTH 4 0
BBX 4 14 -1 0
BITMAP
40
E0
30
10
00
00
30
30
30
30
30
30
30
30
ENDCHAR
STARTCHAR 00ED
ENCODING 237
SWIDTH 240 0
DWIDTH 4 0
BBX 4 14 1 0
BITMAP
20
70
60
C0
00
00
C0
C0
C0
C0
C0
C0
C0
C0
ENDCHAR
STARTCHAR 00EE
ENCODING 238
SWIDTH 240 0
DWIDTH 4 0
BBX 6 13 -1 0
BITMAP
38
68
C4
00
00
30
30
30
30
30
30
30
30
ENDCHAR
STARTCHAR 00EF
ENCODING 239
SWIDTH 240 0
DWIDTH 4 0
BBX 6 12 -1 0
BITMAP
4C
EC
00
00
30
30
30
30
30
30
30
30
ENDCHAR
STARTCHAR 00F0
ENCODING 240
SWIDTH 540 0
DWIDTH 9 0
BBX 7 12 1 0
BITMAP
22
7E
38
6C
06
3E
FE
C6
C2
C6
FE
3C
ENDCHAR
STARTCHAR 00F1
ENCODING 241
SWIDTH 600 0
DWIDTH 10 0
BBX 7 12 1 0
BITMAP
32
4E
00
00
DC
FE
E6
C6
C6
C6
C6
C6
ENDCHAR
STARTCHAR 00F2
ENCODING 242
SWIDTH 540 0
DWIDTH 9 0
BBX 8 14 1 0
BITMAP
20
60
30
18
00
00
3C
FE
C6
C3
C3
C6
FE
3C
ENDCHAR
STARTCHAR 00F3
ENCODING 243
SWIDTH 540 0
DWIDTH 9 0
BBX 8 14 1 0
BITMAP
04
0E
18
10
00
00
3C
FE
C6
C3
C3
C6
FE
3C
ENDCHAR
STARTCHAR 00F4
ENCODING 244
SWIDTH 540 0
DWIDTH 9 0
BBX 8 13 1 0
BITMAP
38
6C
46
00
00
3C
FE
C6
C3
C3
C6
FE
3C
ENDCHAR
STARTCHAR 00F5
ENCODING 245
SWIDTH 540 0
DWIDTH 9 0
BBX 8 12 1 0
BITMAP
76
5C
00
00
3C
FE
C6
C3
C3
C6
FE
3C
ENDCHAR
STARTCHAR 00F6
ENCODING 246
SWIDTH 540 0
DWIDTH 9 0
BBX 8 12 1 0
BITMAP
64
6C
00
00
3C
FE
C6
C3
C3
C6
FE
3C
ENDCHAR
STARTCHAR 00F7
ENCODING 247
SWIDTH 540 0
DWIDTH 9 0
BBX 7 8 1 2
BITMAP
30
38
00
FE
FE
00
30
38
ENDCHAR
STARTCHAR 00F8
ENCODING 248
SWIDTH 540 0
DWIDTH 9 0
BBX 8 8 1 0
BITMAP
3F
FE
CE
DB
D3
E6
7E
BC
ENDCHAR
STARTCHAR 00F9
ENCODING 249
SWIDTH 540 0
DWIDTH 9 0
BBX 7 14 1 0
BITMAP
20
60
30
18
00
00
C6
C6
C6
C6
C6
C6
FE
72
ENDCHAR
STARTCHAR 00FA
ENCODING 250
SWIDTH 540 0
DWIDTH 9 0
BBX 7 14 1 0
BITMAP
04
0E
18
10
00
00
C6
C6
C6
C6
C6
C6
FE
72
ENDCHAR
STARTCHAR 00FB
ENCODING 251
SWIDTH 540 0
DWIDTH 9 0
BBX 7 13 1 0
BITMAP
38
2C
46
00
00
C6
C6
C6
C6
C6
C6
FE
72
ENDCHAR
STARTCHAR 00FC
ENCODING 252
SWIDTH 540 0
DWIDTH 9 0
BBX 7 12 1 0
BITMAP
64
6E
00
00
C6
C6
C6
C6
C6
C6
FE
72
ENDCHAR
STARTCHAR 00FD
ENCODING 253
SWIDTH 480 0
DWIDTH 8 0
BBX 8 17 0 -3
BITMAP
04
06
0C
18
00
00
C3
63
62
36
36
14
1C
18
18
78
70
ENDCHAR
STARTCHAR 00FE
ENCODING 254
SWIDTH 600 0
DWIDTH 10 0
BBX 8 15 1 -3
BITMAP
C0
C0
C0
C0
DC
FE
E7
C3
C3
E7
FE
DC
C0
C0
C0
ENDCHAR
STARTCHAR 00FF
ENCODING 255
SWIDTH 480 0
DWIDTH 8 0
BBX 8 15 0 -3
BITMAP
26
36
00
00
C3
63
62
36
36
14
1C
18
18
78
70
ENDCHAR
STARTCHAR 0100
ENCODING 256
SWIDTH 540 0
DWIDTH 9 0
BBX 10 13 0 0
BITMAP
3E00
0000
1C00
1C00
1600
3600
3200
2300
7F00
7F00
6180
C180
C1C0
ENDCHAR
STARTCHAR 0101
ENCODING 257
SWIDTH 540 0
DWIDTH 9 0
BBX 7 11 1 0
BITMAP
7C
00
00
78
FC
86
3E
C6
CE
FE
76
ENDCHAR
STARTCHAR 0102
ENCODING 258
SWIDTH 540 0
DWIDTH 9 0
BBX 10 14 0 0
BITMAP
2200
1E00
0000
1C00
1C00
1600
3600
3200
2300
7F00
7F00
6180
C180
C1C0
ENDCHAR
STARTCHAR 0103
ENCODING 259
SWIDTH 540 0
DWIDTH 9 0
BBX 7 13 1 0
BITMAP
44
64
38
00
00
78
FC
86
3E
C6
CE
FE
76
ENDCHAR
STARTCHAR 0104
ENCODING 260
SWIDTH 540 0
DWIDTH 9 0
BBX 10 15 0 -4
BITMAP
1C00
1C00
1600
3600
3200
2300
7F00
7F00
6180
C180
C180
01C0
0100
0100
01C0
ENDCHAR
STARTCHAR 0105
ENCODING 261
SWIDTH 540 0
DWIDTH 9 0
BBX 7 11 1 -3
BITMAP
78
FC
86
3E
C6
CE
FE
76
0C
08
0E
ENDCHAR
STARTCHAR 0106
ENCODING 262
SWIDTH 600 0
DWIDTH 10 0
BBX 8 15 1 0
BITMAP
02
0E
08
00
1E
7F
62
C0
C0
C0
C0
C0
61
7F
1E
ENDCHAR
STARTCHAR 0107
ENCODING 263
SWIDTH 480 0
DWIDTH 8 0
BBX 7 14 1 0
BITMAP
04
0E
18
10
00
00
3C
7C
C8
C0
C0
C4
FC
38
ENDCHAR
STARTCHAR 0108
ENCODING 264
SWIDTH 600 0
DWIDTH 10 0
BBX 8 14 1 0
BITMAP
1C
32
00
1E
7F
62
C0
C0
C0
C0
C0
61
7F
1E
ENDCHAR
STARTCHAR 0109
ENCODING 265
SWIDTH 480 0
DWIDTH 8 0
BBX 7 13 1 0
BITMAP
38
3C
46
00
00
3C
7C
C8
C0
C0
C4
FC
38
ENDCHAR
STARTCHAR 010A
ENCODING 266
SWIDTH 600 0
DWIDTH 10 0
BBX 8 14 1 0
BITMAP
0C
0C
00
1E
7F
62
C0
C0
C0
C0
C0
61
7F
1E
ENDCHAR
STARTCHAR 010B
ENCODING 267
SWIDTH 480 0
DWIDTH 8 0
BBX 6 12 1 0
BITMAP
18
18
00
00
3C
7C
C8
C0
C0
C4
FC
38
ENDCHAR
STARTCHAR 010C
ENCODING 268
SWIDTH 600 0
DWIDTH 10 0
BBX 8 14 1 0
BITMAP
32
1C
00
1E
7F
62
C0
C0
C0
C0
C0
61
7F
1E
ENDCHAR
STARTCHAR 010D
ENCODING 269
SWIDTH 480 0
DWIDTH 8 0
BBX 7 13 1 0
BITMAP
44
3E
38
00
00
3C
7C
C8
C0
C0
C4
FC
38
ENDCHAR
STARTCHAR 010E
ENCODING 270
SWIDTH 660 0
DWIDTH 11 0
BBX 9 14 1 0
BITMAP
2600
1C00
0000
FC00
FF00
C700
C380
C180
C180
C180
C380
C700
FE00
FC00
ENDCHAR
STARTCHAR 010F
ENCODING 271
SWIDTH 600 0
DWIDTH 10 0
BBX 9 13 1 0
BITMAP
0080
0680
0680
0680
0600
3E00
FE00
C600
C600
C600
C600
FE00
7A00
ENDCHAR
STARTCHAR 0110
ENCODING 272
SWIDTH 660 0
DWIDTH 11 0
BBX 9 11 1 0
BITMAP
7C00
7F00
6380
6180
F980
F980
6180
6180
6380
7F00
7C00
ENDCHAR
STARTCHAR 0111
ENCODING 273
SWIDTH 600 0
DWIDTH 10 0
BBX 9 12 1 0
BITMAP
0600
1F80
1F80
0600
0600
7E00
FE00
C600
C600
C600
FE00
7A00
ENDCHAR
STARTCHAR 0112
ENCODING 274
SWIDTH 540 0
DWIDTH 9 0
BBX 7 13 1 0
BITMAP
7C
00
FE
FE
C0
C0
FC
FC
C0
C0
C0
FE
FE
ENDCHAR
STARTCHAR 0113
ENCODING 275
SWIDTH 540 0
DWIDTH 9 0
BBX 7 11 1 0
BITMAP
7C
00
00
3C
FE
C6
FE
C0
C4
FE
3C
ENDCHAR
STARTCHAR 0114
ENCODING 276
SWIDTH 540 0
DWIDTH 9 0
BBX 7 14 1 0
BITMAP
66
3C
00
FE
FE
C0
C0
FC
FC
C0
C0
C0
FE
FE
ENDCHAR
STARTCHAR 0115
ENCODING 277
SWIDTH 540 0
DWIDTH 9 0
BBX 7 13 1 0
BITMAP
44
44
38
00
00
3C
FE
C6
FE
C0
C4
FE
3C
ENDCHAR
STARTCHAR 0116
ENCODING 278
SWIDTH 540 0
DWIDTH 9 0
BBX 7 14 1 0
BITMAP
18
18
00
FE
FE
C0
C0
FC
FC
C0
C0
C0
FE
FE
ENDCHAR
STARTCHAR 0117
ENCODING 279
SWIDTH 540 0
DWIDTH 9 0
BBX 7 12 1 0
BITMAP
18
38
00
00
3C
FE
C6
FE
C0
C4
FE
3C
ENDCHAR
STARTCHAR 0118
ENCODING 280
SWIDTH 540 0
DWIDTH 9 0
BBX 8 15 1 -4
BITMAP
FE
FE
C0
C0
FC
FC
C0
C0
C0
FE
FE
04
0C
0C
07
ENDCHAR
STARTCHAR 0119
ENCODING 281
SWIDTH 540 0
DWIDTH 9 0
BBX 7 11 1 -3
BITMAP
3C
FE
C6
FE
C0
C4
FE
3C
08
18
0E
ENDCHAR
STARTCHAR 011A
ENCODING 282
SWIDTH 540 0
DWIDTH 9 0
BBX 7 14 1 0
BITMAP
66
38
00
FE
FE
C0
C0
FC
FC
C0
C0
C0
FE
FE
ENDCHAR
STARTCHAR 011B
ENCODING 283
SWIDTH 540 0
DWIDTH 9 0
BBX 7 13 1 0
BITMAP
44
6C
38
00
00
3C
FE
C6
FE
C0
C4
FE
3C
ENDCHAR
STARTCHAR 011C
ENCODING 284
SWIDTH 660 0
DWIDTH 11 0
BBX 9 14 1 0
BITMAP
0E00
3300
0000
1E00
7F00
6100
C000
C000
C780
C780
C180
6180
7F80
1E00
ENDCHAR
STARTCHAR 011D
ENCODING 285
SWIDTH 540 0
DWIDTH 9 0
BBX 8 16 1 -3
BITMAP
38
6C
46
00
00
7E
FE
C4
7C
78
C0
FE
7F
83
FE
7C
ENDCHAR
STARTCHAR 011E
ENCODING 286
SWIDTH 660 0
DWIDTH 11 0
BBX 9 14 1 0
BITMAP
3300
1E00
0000
1E00
7F00
6100
C000
C000
C780
C780
C180
6180
7F80
1E00
ENDCHAR
STARTCHAR 011F
ENCODING 287
SWIDTH 540 0
DWIDTH 9 0
BBX 8 16 1 -3
BITMAP
44
64
38
00
00
7E
FE
C4
7C
78
C0
FE
7F
83
FE
7C
ENDCHAR
STARTCHAR 0120
ENCODING 288
SWIDTH 660 0
DWIDTH 11 0
BBX 9 14 1 0
BITMAP
0C00
0C00
0000
1E00
7F00
6100
C000
C000
C780
C780
C180
6180
7F80
1E00
ENDCHAR
STARTCHAR 0121
ENCODING 289
SWIDTH 540 0
DWIDTH 9 0
BBX 8 15 1 -3
BITMAP
18
38
00
00
7E
FE
C4
7C
78
C0
FE
7F
83
FE
7C
ENDCHAR
STARTCHAR 0122
ENCODING 290
SWIDTH 660 0
DWIDTH 11 0
BBX 9 15 1 -4
BITMAP
1E00
7F00
6100
C000
C000
C780
C780
C180
6180
7F80
1E00
0000
0C00
0600
1C00
ENDCHAR
STARTCHAR 0123
ENCODING 291
SWIDTH 540 0
DWIDTH 9 0
BBX 8 16 1 -3
BITMAP
18
30
18
00
00
7E
FE
C4
7C
78
C0
FE
7F
83
FE
7C
ENDCHAR
STARTCHAR 0124
ENCODING 292
SWIDTH 660 0
DWIDTH 11 0
BBX 9 14 1 0
BITMAP
1C00
3200
0000
C180
C180
C180
C180
FF80
FF80
C180
C180
C180
C180
C180
ENDCHAR
STARTCHAR 0125
ENCODING 293
SWIDTH 540 0
DWIDTH 9 0
BBX 9 15 -1 0
BITMAP
3800
4C00
8000
3000
3000
3000
3000
3700
3F80
3980
3180
3180
3180
3180
3180
ENDCHAR
STARTCHAR 0126
ENCODING 294
SWIDTH 720 0
DWIDTH 12 0
BBX 11 11 0 0
BITMAP
FFE0
FFE0
30C0
30C0
3FC0
3FC0
30C0
30C0
30C0
30C0
30C0
ENDCHAR
STARTCHAR 0127
ENCODING 295
SWIDTH 540 0
DWIDTH 9 0
BBX 8 12 0 0
BITMAP
60
FC
60
60
6F
7F
73
63
63
63
63
63
ENDCHAR
STARTCHAR 0128
ENCODING 296
SWIDTH 300 0
DWIDTH 5 0
BBX 7 14 -1 0
BITMAP
66
DC
00
30
30
30
30
30
30
30
30
30
30
30
ENDCHAR
STARTCHAR 0129
ENCODING 297
SWIDTH 240 0
DWIDTH 4 0
BBX 6 12 -1 0
BITMAP
64
9C
00
00
30
30
30
30
30
30
30
30
ENDCHAR
STARTCHAR 012A
ENCODING 298
SWIDTH 300 0
DWIDTH 5 0
BBX 5 13 0 0
BITMAP
F8
00
60
60
60
60
60
60
60
60
60
60
60
ENDCHAR
STARTCHAR 012B
ENCODING 299
SWIDTH 240 0
DWIDTH 4 0
BBX 5 11 0 0
BITMAP
F8
00
00
60
60
60
60
60
60
60
60
ENDCHAR
STARTCHAR 012C
ENCODING 300
SWIDTH 300 0
DWIDTH 5 0
BBX 5 14 0 0
BITMAP
88
70
00
60
60
60
60
60
60
60
60
60
60
60
ENDCHAR
STARTCHAR 012D
ENCODING 301
SWIDTH 240 0
DWIDTH 4 0
BBX 6 13 -1 0
BITMAP
C4
4C
38
00
00
30
30
30
30
30
30
30
30
ENDCHAR
STARTCHAR 012E
ENCODING 302
SWIDTH 300 0
DWIDTH 5 0
BBX 3 15 1 -4
BITMAP
C0
C0
C0
C0
C0
C0
C0
C0
C0
C0
C0
C0
80
80
E0
ENDCHAR
STARTCHAR 012F
ENCODING 303
SWIDTH 240 0
DWIDTH 4 0
BBX 3 14 1 -3
BITMAP
C0
C0
00
C0
C0
C0
C0
C0
C0
C0
C0
80
80
E0
ENDCHAR
STARTCHAR 0130
ENCODING 304
SWIDTH 300 0
DWIDTH 5 0
BBX 3 14 1 0
BITMAP
C0
E0
00
C0
C0
C0
C0
C0
C0
C0
C0
C0
C0
C0
ENDCHAR
STARTCHAR 0131
ENCODING 305
SWIDTH 240 0
DWIDTH 4 0
BBX 2 8 1 0
BITMAP
C0
C0
C0
C0
C0
C0
C0
C0
ENDCHAR
STARTCHAR 0132
ENCODING 306
SWIDTH 600 0
DWIDTH 10 0
BBX 7 14 1 -3
BITMAP
C6
C6
C6
C6
C6
C6
C6
C6
C6
C6
C6
06
1E
1C
ENDCHAR
STARTCHAR 0133
ENCODING 307
SWIDTH 540 0
DWIDTH 9 0
BBX 7 15 1 -3
BITMAP
C4
CE
44
00
C6
C6
C6
C6
C6
C6
C6
C6
06
1C
1C
ENDCHAR
STARTCHAR 0134
ENCODING 308
SWIDTH 480 0
DWIDTH 8 0
BBX 9 14 0 0
BITMAP
0F00
1980
0000
0600
0600
0600
0600
0600
0600
0600
0600
4600
FE00
3C00
ENDCHAR
STARTCHAR 0135
ENCODING 309
SWIDTH 240 0
DWIDTH 4 0
BBX 6 16 -1 -3
BITMAP
38
68
C4
00
00
30
30
30
30
30
30
30
30
30
F0
E0
ENDCHAR
STARTCHAR 0136
ENCODING 310
SWIDTH 600 0
DWIDTH 10 0
BBX 9 15 1 -4
BITMAP
C380
C600
CE00
CC00
D800
FC00
EC00
E600
C300
C300
C180
0000
0C00
1400
1800
ENDCHAR
STARTCHAR 0137
ENCODING 311
SWIDTH 540 0
DWIDTH 9 0
BBX 8 16 1 -4
BITMAP
C0
C0
C0
C0
C6
CC
D8
F8
E8
CC
C6
C6
01
18
08
38
ENDCHAR
STARTCHAR 0138
ENCODING 312
SWIDTH 540 0
DWIDTH 9 0
BBX 8 8 1 0
BITMAP
C6
CC
D8
F8
F8
EC
C6
C7
ENDCHAR
STARTCHAR 0139
ENCODING 313
SWIDTH 540 0
DWIDTH 9 0
BBX 7 15 1 0
BITMAP
20
70
C0
00
C0
C0
C0
C0
C0
C0
C0
C0
C0
FE
FE
ENDCHAR
STARTCHAR 013A
ENCODING 314
SWIDTH 300 0
DWIDTH 5 0
BBX 4 16 1 0
BITMAP
20
70
C0
00
C0
C0
C0
C0
C0
C0
C0
C0
C0
C0
E0
60
ENDCHAR
STARTCHAR 013B
ENCODING 315
SWIDTH 540 0
DWIDTH 9 0
BBX 7 15 1 -4
BITMAP
C0
C0
C0
C0
C0
C0
C0
C0
C0
FE
FE
00
18
08
38
ENDCHAR
STARTCHAR 013C
ENCODING 316
SWIDTH 300 0
DWIDTH 5 0
BBX 3 16 1 -4
BITMAP
C0
C0
C0
C0
C0
C0
C0
C0
C0
C0
E0
60
00
60
20
E0
ENDCHAR
STARTCHAR 013D
ENCODING 317
SWIDTH 540 0
DWIDTH 9 0
BBX 7 12 1 0
BITMAP
04
C4
C4
C4
C0
C0
C0
C0
C0
C0
FE
FE
ENDCHAR
STARTCHAR 013E
ENCODING 318
SWIDTH 300 0
DWIDTH 5 0
BBX 4 13 1 0
BITMAP
10
D0
D0
D0
C0
C0
C0
C0
C0
C0
C0
E0
60
ENDCHAR
STARTCHAR 013F
ENCODING 319
SWIDTH 540 0
DWIDTH 9 0
BBX 7 11 1 0
BITMAP
C0
C0
C0
C0
C6
CE
C6
C0
C0
FE
FE
ENDCHAR
STARTCHAR 0140
ENCODING 320
SWIDTH 420 0
DWIDTH 7 0
BBX 6 12 1 0
BITMAP
C0
C0
C0
C0
C0
CC
DC
CC
C0
C0
E0
60
ENDCHAR
STARTCHAR 0141
ENCODING 321
SWIDTH 540 0
DWIDTH 9 0
BBX 8 11 0 0
BITMAP
20
20
20
26
3C
70
E0
A0
20
3F
3F
ENDCHAR
STARTCHAR 0142
ENCODING 322
SWIDTH 300 0
DWIDTH 5 0
BBX 5 12 0 0
BITMAP
60
60
60
70
78
70
E0
E0
60
60
70
30
ENDCHAR
STARTCHAR 0143
ENCODING 323
SWIDTH 660 0
DWIDTH 11 0
BBX 9 15 1 0
BITMAP
0200
0E00
1800
0000
E180
E180
F180
D180
D980
CD80
CD80
C780
C780
C380
C380
ENDCHAR
STARTCHAR 0144
ENCODING 324
SWIDTH 600 0
DWIDTH 10 0
BBX 7 14 1 0
BITMAP
04
0E
0C
18
00
00
DC
FE
E6
C6
C6
C6
C6
C6
ENDCHAR
STARTCHAR 0145
ENCODING 325
SWIDTH 660 0
DWIDTH 11 0
BBX 9 15 1 -4
BITMAP
E180
E180
F180
D180
D980
CD80
CD80
C780
C780
C380
C380
0000
0C00
0400
1800
ENDCHAR
STARTCHAR 0146
ENCODING 326
SWIDTH 600 0
DWIDTH 10 0
BBX 7 12 1 -4
BITMAP
DC
FE
E6
C6
C6
C6
C6
C6
00
18
08
38
ENDCHAR
STARTCHAR 0147
ENCODING 327
SWIDTH 660 0
DWIDTH 11 0
BBX 9 14 1 0
BITMAP
3200
1C00
0000
E180
E180
F180
D180
D980
CD80
CD80
C780
C780
C380
C380
ENDCHAR
STARTCHAR 0148
ENCODING 328
SWIDTH 600 0
DWIDTH 10 0
BBX 7 13 1 0
BITMAP
62
3C
18
00
00
DC
FE
E6
C6
C6
C6
C6
C6
ENDCHAR
STARTCHAR 0149
ENCODING 329
SWIDTH 840 0
DWIDTH 14 0
BBX 12 12 1 0
BITMAP
C000
E000
2000
4000
8DE0
0FE0
0E70
0C30
0C30
0C30
0C30
0C30
ENDCHAR
STARTCHAR 014A
ENCODING 330
SWIDTH 660 0
DWIDTH 11 0
BBX 9 12 1 -1
BITMAP
CE00
FF00
E380
C180
C180
C180
C180
C180
C180
C700
C700
C000
ENDCHAR
STARTCHAR 014B
ENCODING 331
SWIDTH 600 0
DWIDTH 10 0
BBX 7 11 1 -3
BITMAP
DC
FE
E6
C6
C6
C6
C6
C6
06
0E
1C
ENDCHAR
STARTCHAR 014C
ENCODING 332
SWIDTH 660 0
DWIDTH 11 0
BBX 10 13 1 0
BITMAP
3E00
0000
3E00
7F00
E380
C180
C0C0
C0C0
C0C0
C180
E380
7F00
3E00
ENDCHAR
STARTCHAR 014D
ENCODING 333
SWIDTH 540 0
DWIDTH 9 0
BBX 8 11 1 0
BITMAP
7C
00
00
3C
FE
C6
C3
C3
C6
FE
3C
ENDCHAR
STARTCHAR 014E
ENCODING 334
SWIDTH 660 0
DWIDTH 11 0
BBX 10 14 1 0
BITMAP
2200
1E00
0000
3E00
7F00
E380
C180
C0C0
C0C0
C0C0
C180
E380
7F00
3E00
ENDCHAR
STARTCHAR 014F
ENCODING 335
SWIDTH 540 0
DWIDTH 9 0
BBX 8 13 1 0
BITMAP
44
64
38
00
00
3C
FE
C6
C3
C3
C6
FE
3C
ENDCHAR
STARTCHAR 0150
ENCODING 336
SWIDTH 660 0
DWIDTH 11 0
BBX 10 15 1 0
BITMAP
0900
1F80
1200
0000
3E00
7F00
E380
C180
C0C0
C0C0
C0C0
C180
E380
7F00
3E00
ENDCHAR
STARTCHAR 0151
ENCODING 337
SWIDTH 540 0
DWIDTH 9 0
BBX 8 13 1 0
BITMAP
12
3E
24
00
00
3C
FE
C6
C3
C3
C6
FE
3C
ENDCHAR
STARTCHAR 0152
ENCODING 338
SWIDTH 900 0
DWIDTH 15 0
BBX 13 11 1 0
BITMAP
1FF8
7FF8
E300
C300
C3F0
C3F0
C300
C300
6300
7FF8
1FF8
ENDCHAR
STARTCHAR 0153
ENCODING 339
SWIDTH 840 0
DWIDTH 14 0
BBX 13 8 1 0
BITMAP
38E0
FDF0
C710
C7F8
C600
C710
FDF0
38E0
ENDCHAR
STARTCHAR 0154
ENCODING 340
SWIDTH 600 0
DWIDTH 10 0
BBX 9 15 1 0
BITMAP
0400
0E00
1800
0000
FE00
FF00
C300
C300
C300
FE00
FC00
CE00
C600
C300
C380
ENDCHAR
STARTCHAR 0155
ENCODING 341
SWIDTH 360 0
DWIDTH 6 0
BBX 6 14 1 0
BITMAP
08
1C
38
20
00
00
D8
F8
E0
C0
C0
C0
C0
C0
ENDCHAR
STARTCHAR 0156
ENCODING 342
SWIDTH 600 0
DWIDTH 10 0
BBX 9 15 1 -4
BITMAP
FE00
FF00
C300
C300
C300
FE00
FC00
CE00
C600
C300
C300
0080
1800
0C00
1800
ENDCHAR
STARTCHAR 0157
ENCODING 343
SWIDTH 360 0
DWIDTH 6 0
BBX 6 12 0 -4
BITMAP
6C
7C
70
60
60
60
60
60
00
60
30
E0
ENDCHAR
STARTCHAR 0158
ENCODING 344
SWIDTH 600 0
DWIDTH 10 0
BBX 9 14 1 0
BITMAP
6600
1C00
0000
FE00
FF00
C300
C300
C300
FE00
FC00
CE00
C600
C300
C380
ENDCHAR
STARTCHAR 0159
ENCODING 345
SWIDTH 360 0
DWIDTH 6 0
BBX 6 13 1 0
BITMAP
8C
78
30
00
00
D8
F8
E0
C0
C0
C0
C0
C0
ENDCHAR
STARTCHAR 015A
ENCODING 346
SWIDTH 540 0
DWIDTH 9 0
BBX 8 15 1 0
BITMAP
04
1C
10
00
3C
7E
C2
C0
70
3C
0E
03
C7
FE
7C
ENDCHAR
STARTCHAR 015B
ENCODING 347
SWIDTH 420 0
DWIDTH 7 0
BBX 7 14 0 0
BITMAP
04
0E
18
10
00
00
3C
7E
64
78
1C
46
FE
3C
ENDCHAR
STARTCHAR 015C
ENCODING 348
SWIDTH 540 0
DWIDTH 9 0
BBX 8 14 1 0
BITMAP
38
64
02
3C
7E
C2
C0
70
3C
0E
03
C7
FE
7C
ENDCHAR
STARTCHAR 015D
ENCODING 349
SWIDTH 420 0
DWIDTH 7 0
BBX 7 13 0 0
BITMAP
38
3C
46
00
00
3C
7E
64
78
1C
46
FE
3C
ENDCHAR
STARTCHAR 015E
ENCODING 350
SWIDTH 540 0
DWIDTH 9 0
BBX 8 16 1 -5
BITMAP
3C
7E
C2
C0
70
3C
0E
03
C7
FE
7C
10
18
28
08
30
ENDCHAR
STARTCHAR 015F
ENCODING 351
SWIDTH 420 0
DWIDTH 7 0
BBX 7 13 0 -5
BITMAP
3C
7E
64
78
1C
46
FE
3C
10
18
08
08
30
ENDCHAR
STARTCHAR 0160
ENCODING 352
SWIDTH 540 0
DWIDTH 9 0
BBX 8 14 1 0
BITMAP
66
38
00
3C
7E
C2
C0
70
3C
0E
03
C7
FE
7C
ENDCHAR
STARTCHAR 0161
ENCODING 353
SWIDTH 420 0
DWIDTH 7 0
BBX 7 13 0 0
BITMAP
46
3C
38
00
00
3C
7E
64
78
1C
46
FE
3C
ENDCHAR
STARTCHAR 0162
ENCODING 354
SWIDTH 540 0
DWIDTH 9 0
BBX 9 16 0 -5
BITMAP
FF80
FF80
0C00
0C00
0C00
0C00
0C00
0C00
0C00
0C00
0C00
0800
0C00
1400
0C00
1800
ENDCHAR
STARTCHAR 0163
ENCODING 355
SWIDTH 360 0
DWIDTH 6 0
BBX 6 16 0 -5
BITMAP
30
30
30
FC
FC
30
30
30
30
3C
3C
10
18
08
08
30
ENDCHAR
STARTCHAR 0164
ENCODING 356
SWIDTH 540 0
DWIDTH 9 0
BBX 9 14 0 0
BITMAP
3200
1C00
0000
FF80
FF80
0C00
0C00
0C00
0C00
0C00
0C00
0C00
0C00
0C00
ENDCHAR
STARTCHAR 0165
ENCODING 357
SWIDTH 360 0
DWIDTH 6 0
BBX 6 13 0 0
BITMAP
0C
04
34
34
30
FC
FC
30
30
30
30
3C
3C
ENDCHAR
STARTCHAR 0166
ENCODING 358
SWIDTH 540 0
DWIDTH 9 0
BBX 9 11 0 0
BITMAP
FF80
0F80
0C00
0C00
3F00
3F00
0C00
0C00
0C00
0C00
0C00
ENDCHAR
STARTCHAR 0167
ENCODING 359
SWIDTH 360 0
DWIDTH 6 0
BBX 6 11 0 0
BITMAP
30
30
30
FC
FC
30
FC
30
30
3C
3C
ENDCHAR
STARTCHAR 0168
ENCODING 360
SWIDTH 660 0
DWIDTH 11 0
BBX 9 14 1 0
BITMAP
3300
6E00
0000
C180
C180
C180
C180
C180
C180
C180
E180
6300
7F00
3E00
ENDCHAR
STARTCHAR 0169
ENCODING 361
SWIDTH 540 0
DWIDTH 9 0
BBX 7 12 1 0
BITMAP
72
5C
00
00
C6
C6
C6
C6
C6
C6
FE
72
ENDCHAR
STARTCHAR 016A
ENCODING 362
SWIDTH 660 0
DWIDTH 11 0
BBX 9 13 1 0
BITMAP
3E00
0000
C180
C180
C180
C180
C180
C180
C180
E180
6300
7F00
3E00
ENDCHAR
STARTCHAR 016B
ENCODING 363
SWIDTH 540 0
DWIDTH 9 0
BBX 7 11 1 0
BITMAP
7C
00
00
C6
C6
C6
C6
C6
C6
FE
72
ENDCHAR
STARTCHAR 016C
ENCODING 364
SWIDTH 660 0
DWIDTH 11 0
BBX 9 14 1 0
BITMAP
2200
1C00
0000
C180
C180
C180
C180
C180
C180
C180
E180
6300
7F00
3E00
ENDCHAR
STARTCHAR 016D
ENCODING 365
SWIDTH 540 0
DWIDTH 9 0
BBX 7 13 1 0
BITMAP
46
64
38
00
00
C6
C6
C6
C6
C6
C6
FE
72
ENDCHAR
STARTCHAR 016E
ENCODING 366
SWIDTH 660 0
DWIDTH 11 0
BBX 9 15 1 0
BITMAP
1C00
1400
1C00
0000
C180
C180
C180
C180
C180
C180
C180
E180
6300
7F00
3E00
ENDCHAR
STARTCHAR 016F
ENCODING 367
SWIDTH 540 0
DWIDTH 9 0
BBX 7 13 1 0
BITMAP
38
2C
2C
38
00
C6
C6
C6
C6
C6
C6
FE
72
ENDCHAR
STARTCHAR 0170
ENCODING 368
SWIDTH 660 0
DWIDTH 11 0
BBX 9 15 1 0
BITMAP
0900
1B00
1200
0400
C180
C180
C180
C180
C180
C180
C180
E180
6300
7F00
3E00
ENDCHAR
STARTCHAR 0171
ENCODING 369
SWIDTH 540 0
DWIDTH 9 0
BBX 7 13 1 0
BITMAP
1A
36
24
00
00
C6
C6
C6
C6
C6
C6
FE
72
ENDCHAR
STARTCHAR 0172
ENCODING 370
SWIDTH 660 0
DWIDTH 11 0
BBX 9 15 1 -4
BITMAP
C180
C180
C180
C180
C180
C180
C180
E180
6300
7F00
3E00
0800
1800
1800
0E00
ENDCHAR
STARTCHAR 0173
ENCODING 371
SWIDTH 540 0
DWIDTH 9 0
BBX 8 11 1 -3
BITMAP
C6
C6
C6
C6
C6
C6
FE
72
04
0C
07
ENDCHAR
STARTCHAR 0174
ENCODING 372
SWIDTH 840 0
DWIDTH 14 0
BBX 13 14 0 0
BITMAP
0700
0C80
0040
C318
6318
6718
6798
6590
65B0
2CB0
3CB0
38F0
38E0
3860
ENDCHAR
STARTCHAR 0175
ENCODING 373
SWIDTH 780 0
DWIDTH 13 0
BBX 12 13 0 0
BITMAP
0700
0D80
1880
0000
0000
C630
6730
6730
6520
2D60
3DE0
39E0
38C0
ENDCHAR
STARTCHAR 0176
ENCODING 374
SWIDTH 540 0
DWIDTH 9 0
BBX 9 14 0 0
BITMAP
1C00
2600
0000
C380
6300
6600
3600
3400
1C00
1800
1800
1800
1800
1800
ENDCHAR
STARTCHAR 0177
ENCODING 375
SWIDTH 480 0
DWIDTH 8 0
BBX 8 16 0 -3
BITMAP
1C
36
62
00
00
C3
63
62
36
36
14
1C
18
18
78
70
ENDCHAR
STARTCHAR 0178
ENCODING 376
SWIDTH 540 0
DWIDTH 9 0
BBX 9 14 0 0
BITMAP
2600
6600
0000
C380
6300
6600
3600
3400
1C00
1800
1800
1800
1800
1800
ENDCHAR
STARTCHAR 0179
ENCODING 377
SWIDTH 540 0
DWIDTH 9 0
BBX 8 15 1 0
BITMAP
04
1C
10
00
FF
FF
06
0C
1C
38
30
60
C0
FF
FF
ENDCHAR
STARTCHAR 017A
ENCODING 378
SWIDTH 480 0
DWIDTH 8 0
BBX 6 14 1 0
BITMAP
08
1C
38
10
00
00
FC
FC
18
30
20
40
FC
FC
ENDCHAR
STARTCHAR 017B
ENCODING 379
SWIDTH 540 0
DWIDTH 9 0
BBX 8 14 1 0
BITMAP
18
18
00
FF
FF
06
0C
1C
38
30
60
C0
FF
FF
ENDCHAR
STARTCHAR 017C
ENCODING 380
SWIDTH 480 0
DWIDTH 8 0
BBX 6 12 1 0
BITMAP
30
30
00
00
FC
FC
18
30
20
40
FC
FC
ENDCHAR
STARTCHAR 017D
ENCODING 381
SWIDTH 540 0
DWIDTH 9 0
BBX 8 14 1 0
BITMAP
66
38
00
FF
FF
06
0C
1C
38
30
60
C0
FF
FF
ENDCHAR
STARTCHAR 017E
ENCODING 382
SWIDTH 480 0
DWIDTH 8 0
BBX 6 13 1 0
BITMAP
C4
78
30
00
00
FC
FC
18
30
20
40
FC
FC
ENDCHAR
STARTCHAR 0180
ENCODING 384
SWIDTH 540 0
DWIDTH 9 0
BBX 9 12 0 0
BITMAP
6000
FC00
6000
6000
6E00
7F00
7380
6180
6180
7380
7F00
6E00
ENDCHAR
STARTCHAR 018F
ENCODING 399
SWIDTH 660 0
DWIDTH 11 0
BBX 10 11 1 0
BITMAP
3E00
7F00
2380
0180
0180
FFC0
FF80
C180
E180
7F00
3E00
ENDCHAR
STARTCHAR 0192
ENCODING 402
SWIDTH 540 0
DWIDTH 9 0
BBX 8 14 0 -2
BITMAP
07
0F
0C
0C
08
3E
3E
18
18
18
18
38
70
E0
ENDCHAR
STARTCHAR 0193
ENCODING 403
SWIDTH 660 0
DWIDTH 11 0
BBX 10 14 1 0
BITMAP
01C0
0380
0300
1F00
7F00
6100
C000
C000
C780
C780
C180
6180
7F80
1E00
ENDCHAR
STARTCHAR 01A0
ENCODING 416
SWIDTH 660 0
DWIDTH 11 0
BBX 10 13 1 0
BITMAP
00C0
00C0
3EC0
7F00
E380
C180
C0C0
C0C0
C0C0
C180
6380
7F00
1E00
ENDCHAR
STARTCHAR 01A1
ENCODING 417
SWIDTH 540 0
DWIDTH 9 0
BBX 8 12 1 0
BITMAP
01
03
03
3E
7E
C6
C3
C3
C3
C6
7E
3C
ENDCHAR
STARTCHAR 01AF
ENCODING 431
SWIDTH 660 0
DWIDTH 11 0
BBX 11 14 1 0
BITMAP
0060
0060
0060
C1C0
C180
C180
C180
C180
C180
C180
E180
6300
7F00
3E00
ENDCHAR
STARTCHAR 01B0
ENCODING 432
SWIDTH 540 0
DWIDTH 9 0
BBX 9 11 1 0
BITMAP
0180
0180
0180
C700
C600
C600
C600
C600
C600
FE00
7A00
ENDCHAR
STARTCHAR 01C2
ENCODING 450
SWIDTH 300 0
DWIDTH 5 0
BBX 5 18 0 -4
BITMAP
20
20
20
20
20
20
F8
F8
20
F8
F8
20
20
20
20
20
20
20
ENDCHAR
STARTCHAR 01CD
ENCODING 461
SWIDTH 540 0
DWIDTH 9 0
BBX 10 14 0 0
BITMAP
3200
1C00
0000
1C00
1C00
1600
3600
3200
2300
7F00
7F00
6180
C180
C1C0
ENDCHAR
STARTCHAR 01CE
ENCODING 462
SWIDTH 540 0
DWIDTH 9 0
BBX 7 13 1 0
BITMAP
44
6C
38
00
00
78
FC
86
3E
C6
CE
FE
76
ENDCHAR
STARTCHAR 01CF
ENCODING 463
SWIDTH 300 0
DWIDTH 5 0
BBX 5 14 0 0
BITMAP
98
70
00
60
60
60
60
60
60
60
60
60
60
60
ENDCHAR
STARTCHAR 01D0
ENCODING 464
SWIDTH 240 0
DWIDTH 4 0
BBX 6 13 -1 0
BITMAP
44
E8
38
00
00
30
30
30
30
30
30
30
30
ENDCHAR
STARTCHAR 01D1
ENCODING 465
SWIDTH 660 0
DWIDTH 11 0
BBX 10 14 1 0
BITMAP
3200
1C00
0000
3E00
7F00
E380
C180
C0C0
C0C0
C0C0
C180
E380
7F00
3E00
ENDCHAR
STARTCHAR 01D2
ENCODING 466
SWIDTH 540 0
DWIDTH 9 0
BBX 8 13 1 0
BITMAP
44
6E
38
00
00
3C
FE
C6
C3
C3
C6
FE
3C
ENDCHAR
STARTCHAR 01D3
ENCODING 467
SWIDTH 660 0
DWIDTH 11 0
BBX 9 14 1 0
BITMAP
2200
1C00
0000
C180
C180
C180
C180
C180
C180
C180
E180
6300
7F00
3E00
ENDCHAR
STARTCHAR 01D4
ENCODING 468
SWIDTH 540 0
DWIDTH 9 0
BBX 7 13 1 0
BITMAP
44
2E
38
00
00
C6
C6
C6
C6
C6
C6
FE
72
ENDCHAR
STARTCHAR 01D5
ENCODING 469
SWIDTH 660 0
DWIDTH 11 0
BBX 9 16 1 0
BITMAP
3E00
0000
3200
3600
0000
C180
C180
C180
C180
C180
C180
C180
E180
6300
7F00
3E00
ENDCHAR
STARTCHAR 01D6
ENCODING 470
SWIDTH 540 0
DWIDTH 9 0
BBX 7 14 1 0
BITMAP
7C
00
64
64
00
00
C6
C6
C6
C6
C6
C6
FE
72
ENDCHAR
STARTCHAR 01D7
ENCODING 471
SWIDTH 660 0
DWIDTH 11 0
BBX 9 17 1 0
BITMAP
0400
0E00
0800
3200
3600
0000
C180
C180
C180
C180
C180
C180
C180
E180
6300
7F00
3E00
ENDCHAR
STARTCHAR 01D8
ENCODING 472
SWIDTH 540 0
DWIDTH 9 0
BBX 7 15 1 0
BITMAP
08
18
10
64
64
00
00
C6
C6
C6
C6
C6
C6
FE
72
ENDCHAR
STARTCHAR 01D9
ENCODING 473
SWIDTH 660 0
DWIDTH 11 0
BBX 9 17 1 0
BITMAP
3200
1C00
0000
3200
3600
0000
C180
C180
C180
C180
C180
C180
C180
E180
6300
7F00
3E00
ENDCHAR
STARTCHAR 01DA
ENCODING 474
SWIDTH 540 0
DWIDTH 9 0
BBX 7 15 1 0
BITMAP
64
38
00
64
64
00
00
C6
C6
C6
C6
C6
C6
FE
72
ENDCHAR
STARTCHAR 01DB
ENCODING 475
SWIDTH 660 0
DWIDTH 11 0
BBX 9 17 1 0
BITMAP
1000
3800
0800
3200
3600
0000
C180
C180
C180
C180
C180
C180
C180
E180
6300
7F00
3E00
ENDCHAR
STARTCHAR 01DC
ENCODING 476
SWIDTH 540 0
DWIDTH 9 0
BBX 7 15 1 0
BITMAP
20
10
18
64
64
00
00
C6
C6
C6
C6
C6
C6
FE
72
ENDCHAR
STARTCHAR 01E2
ENCODING 482
SWIDTH 840 0
DWIDTH 14 0
BBX 13 13 0 0
BITMAP
01F0
0000
07F8
07F8
0D80
0D80
19F0
11F0
3F80
3F80
6180
61F8
C1F8
ENDCHAR
STARTCHAR 01E3
ENCODING 483
SWIDTH 780 0
DWIDTH 13 0
BBX 12 11 1 0
BITMAP
0F00
0000
0000
39C0
FFE0
8630
3FF0
C600
CE20
FFE0
71C0
ENDCHAR
STARTCHAR 01E6
ENCODING 486
SWIDTH 660 0
DWIDTH 11 0
BBX 9 14 1 0
BITMAP
3300
0E00
0000
1E00
7F00
6100
C000
C000
C780
C780
C180
6180
7F80
1E00
ENDCHAR
STARTCHAR 01E7
ENCODING 487
SWIDTH 540 0
DWIDTH 9 0
BBX 8 16 1 -3
BITMAP
44
6E
38
00
00
7E
FE
C4
7C
78
C0
FE
7F
83
FE
7C
ENDCHAR
STARTCHAR 01EA
ENCODING 490
SWIDTH 660 0
DWIDTH 11 0
BBX 10 15 1 -4
BITMAP
3E00
7F00
E380
C180
C0C0
C0C0
C0C0
C180
E380
7F00
3E00
0800
0800
1800
0E00
ENDCHAR
STARTCHAR 01EB
ENCODING 491
SWIDTH 540 0
DWIDTH 9 0
BBX 8 11 1 -3
BITMAP
3C
7E
C6
C3
C3
C6
FE
3C
10
30
1C
ENDCHAR
STARTCHAR 01F4
ENCODING 500
SWIDTH 660 0
DWIDTH 11 0
BBX 9 15 1 0
BITMAP
0200
0700
0C00
0000
1E00
7F00
6100
C000
C000
C780
C780
C180
6180
7F80
1E00
ENDCHAR
STARTCHAR 01F5
ENCODING 501
SWIDTH 540 0
DWIDTH 9 0
BBX 8 17 1 -3
BITMAP
04
0E
18
10
00
00
7E
FE
C4
7C
78
C0
FE
7F
83
FE
7C
ENDCHAR
STARTCHAR 01F8
ENCODING 504
SWIDTH 660 0
DWIDTH 11 0
BBX 9 15 1 0
BITMAP
1000
3800
0C00
0000
E180
E180
F180
D180
D980
CD80
CD80
C780
C780
C380
C380
ENDCHAR
STARTCHAR 01F9
ENCODING 505
SWIDTH 600 0
DWIDTH 10 0
BBX 7 14 1 0
BITMAP
20
70
18
08
00
00
DC
FE
E6
C6
C6
C6
C6
C6
ENDCHAR
STARTCHAR 01FC
ENCODING 508
SWIDTH 840 0
DWIDTH 14 0
BBX 13 15 0 0
BITMAP
0020
0070
00C0
0000
07F8
07F8
0D80
0D80
19F0
11F0
3F80
3F80
6180
61F8
C1F8
ENDCHAR
STARTCHAR 01FD
ENCODING 509
SWIDTH 780 0
DWIDTH 13 0
BBX 12 14 1 0
BITMAP
0100
0380
0700
0400
0000
0000
39C0
FFE0
8630
3FF0
C600
CE20
FFE0
71C0
ENDCHAR
STARTCHAR 0218
ENCODING 536
SWIDTH 540 0
DWIDTH 9 0
BBX 8 15 1 -4
BITMAP
3C
7E
C2
C0
70
3C
0E
03
C7
FE
7C
00
18
08
30
ENDCHAR
STARTCHAR 0219
ENCODING 537
SWIDTH 420 0
DWIDTH 7 0
BBX 7 12 0 -4
BITMAP
3C
7E
64
78
1C
46
FE
3C
00
18
08
38
ENDCHAR
STARTCHAR 021A
ENCODING 538
SWIDTH 540 0
DWIDTH 9 0
BBX 9 15 0 -4
BITMAP
FF80
FF80
0C00
0C00
0C00
0C00
0C00
0C00
0C00
0C00
0C00
0000
0C00
0400
1800
ENDCHAR
STARTCHAR 021B
ENCODING 539
SWIDTH 360 0
DWIDTH 6 0
BBX 6 15 0 -4
BITMAP
30
30
30
FC
FC
30
30
30
30
3C
3C
00
18
08
38
ENDCHAR
STARTCHAR 0237
ENCODING 567
SWIDTH 240 0
DWIDTH 4 0
BBX 4 11 -1 -3
BITMAP
30
30
30
30
30
30
30
30
30
F0
E0
ENDCHAR
STARTCHAR 0243
ENCODING 579
SWIDTH 600 0
DWIDTH 10 0
BBX 10 11 0 0
BITMAP
3F80
3F80
3F00
3F80
3180
FCC0
FCC0
30C0
31C0
3F80
3F00
ENDCHAR
STARTCHAR 0250
ENCODING 592
SWIDTH 540 0
DWIDTH 9 0
BBX 7 8 1 0
BITMAP
DC
FE
E6
FC
F8
C4
7E
3C
ENDCHAR
STARTCHAR 0251
ENCODING 593
SWIDTH 600 0
DWIDTH 10 0
BBX 7 8 1 0
BITMAP
3A
FE
C6
C6
C6
C6
FE
7A
ENDCHAR
STARTCHAR 0252
ENCODING 594
SWIDTH 600 0
DWIDTH 10 0
BBX 8 8 1 0
BITMAP
DC
FE
E7
C3
C3
E7
FE
DC
ENDCHAR
STARTCHAR 0253
ENCODING 595
SWIDTH 600 0
DWIDTH 10 0
BBX 8 12 1 0
BITMAP
38
78
E0
C0
DC
FE
E7
C3
C3
E7
FE
DC
ENDCHAR
STARTCHAR 0254
ENCODING 596
SWIDTH 480 0
DWIDTH 8 0
BBX 7 8 0 0
BITMAP
78
7C
4E
06
06
8E
7C
F8
ENDCHAR
STARTCHAR 0255
ENCODING 597
SWIDTH 480 0
DWIDTH 8 0
BBX 7 9 1 -1
BITMAP
38
FC
C8
DC
FC
E6
FC
FC
80
ENDCHAR
STARTCHAR 0256
ENCODING 598
SWIDTH 600 0
DWIDTH 10 0
BBX 9 15 1 -3
BITMAP
0600
0600
0600
0600
3E00
FE00
C600
C600
C600
C600
FE00
7E00
0600
0380
0380
ENDCHAR
STARTCHAR 0257
ENCODING 599
SWIDTH 600 0
DWIDTH 10 0
BBX 9 12 1 0
BITMAP
0380
0380
0600
0600
3E00
FE00
C600
C600
C600
C600
FE00
7A00
ENDCHAR
STARTCHAR 0258
ENCODING 600
SWIDTH 540 0
DWIDTH 9 0
BBX 7 8 1 0
BITMAP
78
FC
C6
FE
06
8E
FC
78
ENDCHAR
STARTCHAR 0259
ENCODING 601
SWIDTH 540 0
DWIDTH 9 0
BBX 7 8 1 0
BITMAP
78
FC
86
FE
86
CE
FC
78
ENDCHAR
STARTCHAR 025A
ENCODING 602
SWIDTH 720 0
DWIDTH 12 0
BBX 11 8 1 0
BITMAP
7D00
FF80
8E80
7660
8600
CE00
FC00
7800
ENDCHAR
STARTCHAR 025B
ENCODING 603
SWIDTH 480 0
DWIDTH 8 0
BBX 6 8 1 0
BITMAP
78
FC
C8
78
F8
C4
FC
78
ENDCHAR
STARTCHAR 025C
ENCODING 604
SWIDTH 480 0
DWIDTH 8 0
BBX 6 8 1 0
BITMAP
78
FC
8C
78
7C
8C
FC
78
ENDCHAR
STARTCHAR 025E
ENCODING 606
SWIDTH 540 0
DWIDTH 9 0
BBX 8 8 1 0
BITMAP
7C
FE
C7
73
F3
C7
FE
7C
ENDCHAR
STARTCHAR 025F
ENCODING 607
SWIDTH 300 0
DWIDTH 5 0
BBX 6 11 -1 -3
BITMAP
18
18
7C
7C
18
18
18
18
30
70
F0
ENDCHAR
STARTCHAR 0260
ENCODING 608
SWIDTH 600 0
DWIDTH 10 0
BBX 9 14 1 -3
BITMAP
0380
0380
0300
3E00
7E00
C600
C600
C600
C600
FE00
7E00
8600
7E00
FC00
ENDCHAR
STARTCHAR 0261
ENCODING 609
SWIDTH 600 0
DWIDTH 10 0
BBX 7 11 1 -3
BITMAP
3A
7E
C6
C6
C6
C6
FE
7E
86
7E
FC
ENDCHAR
STARTCHAR 0262
ENCODING 610
SWIDTH 540 0
DWIDTH 9 0
BBX 7 8 1 0
BITMAP
3C
7E
C4
CE
CE
C6
FE
3C
ENDCHAR
STARTCHAR 0263
ENCODING 611
SWIDTH 480 0
DWIDTH 8 0
BBX 8 11 0 -3
BITMAP
C3
63
66
26
34
1C
1C
3C
34
3E
1C
ENDCHAR
STARTCHAR 0264
ENCODING 612
SWIDTH 540 0
DWIDTH 9 0
BBX 9 8 0 0
BITMAP
F380
7F80
1C00
3600
2300
6300
3F00
1E00
ENDCHAR
STARTCHAR 0265
ENCODING 613
SWIDTH 600 0
DWIDTH 10 0
BBX 7 11 1 -3
BITMAP
C6
C6
C6
C6
C6
C6
FE
7E
06
06
06
ENDCHAR
STARTCHAR 0266
ENCODING 614
SWIDTH 540 0
DWIDTH 9 0
BBX 7 12 1 0
BITMAP
38
78
C0
C0
DC
FE
E6
C6
C6
C6
C6
C6
ENDCHAR
STARTCHAR 0267
ENCODING 615
SWIDTH 540 0
DWIDTH 9 0
BBX 7 15 1 -3
BITMAP
38
78
C0
C0
DC
FE
E6
C6
C6
C6
C6
C6
06
0E
1C
ENDCHAR
STARTCHAR 0268
ENCODING 616
SWIDTH 300 0
DWIDTH 5 0
BBX 5 11 0 0
BITMAP
70
70
00
20
20
F8
F8
20
20
20
20
ENDCHAR
STARTCHAR 026A
ENCODING 618
SWIDTH 360 0
DWIDTH 6 0
BBX 4 8 1 0
BITMAP
F0
F0
60
60
60
60
F0
F0
ENDCHAR
STARTCHAR 026C
ENCODING 620
SWIDTH 360 0
DWIDTH 6 0
BBX 6 12 0 0
BITMAP
30
30
30
30
F0
B0
FC
30
30
30
38
18
ENDCHAR
STARTCHAR 026D
ENCODING 621
SWIDTH 300 0
DWIDTH 5 0
BBX 4 15 1 -3
BITMAP
C0
C0
C0
C0
C0
C0
C0
C0
C0
C0
C0
C0
C0
F0
70
ENDCHAR
STARTCHAR 026E
ENCODING 622
SWIDTH 600 0
DWIDTH 10 0
BBX 9 15 1 -3
BITMAP
C000
C000
C000
C000
FF80
FF00
C200
C600
CC00
CF00
DF80
C180
2180
3F00
1E00
ENDCHAR
STARTCHAR 026F
ENCODING 623
SWIDTH 840 0
DWIDTH 14 0
BBX 12 8 1 0
BITMAP
C630
C630
C630
C630
C630
CE70
FFF0
73B0
ENDCHAR
STARTCHAR 0270
ENCODING 624
SWIDTH 840 0
DWIDTH 14 0
BBX 12 11 1 -3
BITMAP
C630
C630
C630
C630
C630
CE70
FFF0
73B0
0030
0030
0030
ENDCHAR
STARTCHAR 0271
ENCODING 625
SWIDTH 840 0
DWIDTH 14 0
BBX 12 11 1 -3
BITMAP
DCE0
FFF0
E730
C630
C630
C630
C630
C630
0030
0070
00E0
ENDCHAR
STARTCHAR 0272
ENCODING 626
SWIDTH 600 0
DWIDTH 10 0
BBX 8 11 0 -3
BITMAP
6E
7F
73
63
63
63
63
63
60
E0
C0
ENDCHAR
STARTCHAR 0273
ENCODING 627
SWIDTH 600 0
DWIDTH 10 0
BBX 9 11 1 -3
BITMAP
DC00
FE00
E600
C600
C600
C600
C600
C600
0600
0380
0380
ENDCHAR
STARTCHAR 0274
ENCODING 628
SWIDTH 540 0
DWIDTH 9 0
BBX 7 8 1 0
BITMAP
C6
E6
F6
D6
DE
CE
CE
C6
ENDCHAR
STARTCHAR 0275
ENCODING 629
SWIDTH 540 0
DWIDTH 9 0
BBX 8 8 1 0
BITMAP
3C
FE
FE
FF
C3
C6
FE
3C
ENDCHAR
STARTCHAR 0276
ENCODING 630
SWIDTH 720 0
DWIDTH 12 0
BBX 11 8 1 0
BITMAP
3FE0
FFE0
C7C0
C7C0
C600
C600
FFE0
3FE0
ENDCHAR
STARTCHAR 0278
ENCODING 632
SWIDTH 720 0
DWIDTH 12 0
BBX 10 15 1 -3
BITMAP
0C00
0C00
0C00
0C00
3F00
7F80
CCC0
CCC0
CCC0
CCC0
7F80
3F00
0C00
0C00
0C00
ENDCHAR
STARTCHAR 0279
ENCODING 633
SWIDTH 360 0
DWIDTH 6 0
BBX 5 8 0 0
BITMAP
18
18
18
18
18
38
F8
D8
ENDCHAR
STARTCHAR 027A
ENCODING 634
SWIDTH 360 0
DWIDTH 6 0
BBX 5 12 0 0
BITMAP
18
18
18
18
18
18
18
18
18
38
F8
D8
ENDCHAR
STARTCHAR 027B
ENCODING 635
SWIDTH 360 0
DWIDTH 6 0
BBX 7 11 0 -3
BITMAP
18
18
18
18
18
38
F8
D8
18
1E
0E
ENDCHAR
STARTCHAR 027D
ENCODING 637
SWIDTH 360 0
DWIDTH 6 0
BBX 5 11 1 -3
BITMAP
D8
F8
E0
C0
C0
C0
C0
C0
C0
F0
70
ENDCHAR
STARTCHAR 027E
ENCODING 638
SWIDTH 360 0
DWIDTH 6 0
BBX 5 8 1 0
BITMAP
38
78
E0
C0
C0
C0
C0
C0
ENDCHAR
STARTCHAR 0280
ENCODING 640
SWIDTH 540 0
DWIDTH 9 0
BBX 7 8 1 0
BITMAP
FC
C6
C6
FC
F8
CC
CC
C6
ENDCHAR
STARTCHAR 0281
ENCODING 641
SWIDTH 540 0
DWIDTH 9 0
BBX 8 8 0 0
BITMAP
E3
33
1F
7F
63
63
7F
3F
ENDCHAR
STARTCHAR 0282
ENCODING 642
SWIDTH 420 0
DWIDTH 7 0
BBX 7 11 0 -3
BITMAP
3C
7E
64
78
1C
46
FE
FC
C0
70
70
ENDCHAR
STARTCHAR 0283
ENCODING 643
SWIDTH 240 0
DWIDTH 4 0
BBX 6 15 -1 -3
BITMAP
1C
3C
30
30
30
30
30
30
30
30
30
30
30
F0
E0
ENDCHAR
STARTCHAR 0284
ENCODING 644
SWIDTH 300 0
DWIDTH 5 0
BBX 7 15 -1 -3
BITMAP
0E
1C
18
18
18
18
18
7C
18
18
18
18
30
70
F0
ENDCHAR
STARTCHAR 0288
ENCODING 648
SWIDTH 360 0
DWIDTH 6 0
BBX 6 13 0 -3
BITMAP
30
30
FC
FC
30
30
30
30
30
30
30
3C
3C
ENDCHAR
STARTCHAR 0289
ENCODING 649
SWIDTH 600 0
DWIDTH 10 0
BBX 10 8 0 0
BITMAP
3180
3180
FFC0
3180
3180
3380
3F80
1D80
ENDCHAR
STARTCHAR 028A
ENCODING 650
SWIDTH 540 0
DWIDTH 9 0
BBX 8 8 1 0
BITMAP
EF
EF
46
C2
C3
C7
FE
7C
ENDCHAR
STARTCHAR 028B
ENCODING 651
SWIDTH 540 0
DWIDTH 9 0
BBX 7 8 1 0
BITMAP
CC
CE
C6
C6
C6
C6
7E
3C
ENDCHAR
STARTCHAR 028C
ENCODING 652
SWIDTH 480 0
DWIDTH 8 0
BBX 8 8 0 0
BITMAP
18
1C
34
36
66
66
63
C3
ENDCHAR
STARTCHAR 028D
ENCODING 653
SWIDTH 780 0
DWIDTH 13 0
BBX 12 8 0 0
BITMAP
38C0
39E0
2DE0
2D60
6D60
6530
6730
C630
ENDCHAR
STARTCHAR 028E
ENCODING 654
SWIDTH 480 0
DWIDTH 8 0
BBX 8 12 0 0
BITMAP
07
0F
0C
18
18
1C
3C
24
66
66
63
C3
ENDCHAR
STARTCHAR 028F
ENCODING 655
SWIDTH 480 0
DWIDTH 8 0
BBX 8 8 0 0
BITMAP
C7
66
6C
3C
38
18
18
18
ENDCHAR
STARTCHAR 0290
ENCODING 656
SWIDTH 480 0
DWIDTH 8 0
BBX 8 11 1 -3
BITMAP
FC
FC
18
30
60
C0
FC
FC
0C
0E
07
ENDCHAR
STARTCHAR 0291
ENCODING 657
SWIDTH 480 0
DWIDTH 8 0
BBX 7 9 1 -1
BITMAP
FC
F8
18
30
2E
4A
FE
FC
30
ENDCHAR
STARTCHAR 0292
ENCODING 658
SWIDTH 480 0
DWIDTH 8 0
BBX 7 11 0 -3
BITMAP
7E
7C
08
10
3C
3E
06
06
46
FC
78
ENDCHAR
STARTCHAR 0294
ENCODING 660
SWIDTH 420 0
DWIDTH 7 0
BBX 7 12 0 0
BITMAP
78
FE
C6
06
06
0C
18
30
30
30
30
30
ENDCHAR
STARTCHAR 0295
ENCODING 661
SWIDTH 480 0
DWIDTH 8 0
BBX 7 12 1 0
BITMAP
78
FC
C6
C0
C0
C0
70
30
30
30
30
30
ENDCHAR
STARTCHAR 0298
ENCODING 664
SWIDTH 540 0
DWIDTH 9 0
BBX 7 12 1 0
BITMAP
38
7C
E6
C6
C6
D6
DE
C6
C6
E6
7C
38
ENDCHAR
STARTCHAR 0299
ENCODING 665
SWIDTH 540 0
DWIDTH 9 0
BBX 7 8 1 0
BITMAP
FC
FE
C6
FC
FE
C6
FE
FC
ENDCHAR
STARTCHAR 029C
ENCODING 668
SWIDTH 600 0
DWIDTH 10 0
BBX 8 8 1 0
BITMAP
C3
C3
C3
FF
FF
C3
C3
C3
ENDCHAR
STARTCHAR 029D
ENCODING 669
SWIDTH 300 0
DWIDTH 5 0
BBX 7 15 -1 -4
BITMAP
18
18
00
18
18
18
18
18
18
18
F8
98
FC
76
06
ENDCHAR
STARTCHAR 029F
ENCODING 671
SWIDTH 420 0
DWIDTH 7 0
BBX 6 8 1 0
BITMAP
C0
C0
C0
C0
C0
C0
FC
FC
ENDCHAR
STARTCHAR 02A1
ENCODING 673
SWIDTH 480 0
DWIDTH 8 0
BBX 8 12 0 0
BITMAP
3C
7E
C6
06
06
0C
FF
FF
18
18
18
18
ENDCHAR
STARTCHAR 02A2
ENCODING 674
SWIDTH 480 0
DWIDTH 8 0
BBX 8 12 0 0
BITMAP
3C
7E
63
C0
60
30
FF
FF
18
18
18
18
ENDCHAR
STARTCHAR 02B0
ENCODING 688
SWIDTH 360 0
DWIDTH 6 0
BBX 5 7 1 7
BITMAP
80
80
B0
D8
98
98
98
ENDCHAR
STARTCHAR 02B2
ENCODING 690
SWIDTH 180 0
DWIDTH 3 0
BBX 3 11 -1 4
BITMAP
20
20
00
20
20
20
20
20
20
20
E0
ENDCHAR
STARTCHAR 02B3
ENCODING 691
SWIDTH 240 0
DWIDTH 4 0
BBX 3 5 1 7
BITMAP
E0
C0
80
80
80
ENDCHAR
STARTCHAR 02B7
ENCODING 695
SWIDTH 540 0
DWIDTH 9 0
BBX 8 5 0 7
BITMAP
C9
59
57
76
26
ENDCHAR
STARTCHAR 02B8
ENCODING 696
SWIDTH 360 0
DWIDTH 6 0
BBX 6 8 0 4
BITMAP
CC
48
48
30
30
30
20
E0
ENDCHAR
STARTCHAR 02B9
ENCODING 697
SWIDTH 300 0
DWIDTH 5 0
BBX 3 5 1 7
BITMAP
60
40
40
C0
C0
ENDCHAR
STARTCHAR 02BB
ENCODING 699
SWIDTH 300 0
DWIDTH 5 0
BBX 3 5 1 7
BITMAP
40
E0
80
C0
C0
ENDCHAR
STARTCHAR 02BC
ENCODING 700
SWIDTH 300 0
DWIDTH 5 0
BBX 3 5 1 7
BITMAP
C0
E0
20
40
80
ENDCHAR
STARTCHAR 02BE
ENCODING 702
SWIDTH 180 0
DWIDTH 3 0
BBX 3 4 0 9
BITMAP
C0
20
20
C0
ENDCHAR
STARTCHAR 02BF
ENCODING 703
SWIDTH 180 0
DWIDTH 3 0
BBX 2 4 0 9
BITMAP
40
80
80
40
ENDCHAR
STARTCHAR 02C1
ENCODING 705
SWIDTH 300 0
DWIDTH 5 0
BBX 5 8 0 7
BITMAP
70
78
C8
40
20
30
30
30
ENDCHAR
STARTCHAR 02C6
ENCODING 710
SWIDTH 540 0
DWIDTH 9 0
BBX 6 3 2 10
BITMAP
70
D8
8C
ENDCHAR
STARTCHAR 02C7
ENCODING 711
SWIDTH 540 0
DWIDTH 9 0
BBX 6 3 2 10
BITMAP
88
DC
70
ENDCHAR
STARTCHAR 02C8
ENCODING 712
SWIDTH 120 0
DWIDTH 2 0
BBX 2 3 0 9
BITMAP
C0
C0
C0
ENDCHAR
STARTCHAR 02C9
ENCODING 713
SWIDTH 300 0
DWIDTH 5 0
BBX 5 1 0 10
BITMAP
F8
ENDCHAR
STARTCHAR 02CA
ENCODING 714
SWIDTH 240 0
DWIDTH 4 0
BBX 4 4 1 10
BITMAP
20
70
E0
80
ENDCHAR
STARTCHAR 02CB
ENCODING 715
SWIDTH 240 0
DWIDTH 4 0
BBX 4 4 -1 10
BITMAP
40
E0
70
20
ENDCHAR
STARTCHAR 02CC
ENCODING 716
SWIDTH 120 0
DWIDTH 2 0
BBX 2 3 0 -4
BITMAP
C0
C0
C0
ENDCHAR
STARTCHAR 02D0
ENCODING 720
SWIDTH 300 0
DWIDTH 5 0
BBX 3 8 1 0
BITMAP
E0
40
00
00
00
00
40
E0
ENDCHAR
STARTCHAR 02D1
ENCODING 721
SWIDTH 300 0
DWIDTH 5 0
BBX 3 2 1 5
BITMAP
E0
40
ENDCHAR
STARTCHAR 02D8
ENCODING 728
SWIDTH 540 0
DWIDTH 9 0
BBX 5 3 2 10
BITMAP
88
C8
70
ENDCHAR
STARTCHAR 02D9
ENCODING 729
SWIDTH 540 0
DWIDTH 9 0
BBX 3 2 3 10
BITMAP
60
E0
ENDCHAR
STARTCHAR 02DA
ENCODING 730
SWIDTH 540 0
DWIDTH 9 0
BBX 4 4 3 9
BITMAP
E0
B0
B0
E0
ENDCHAR
STARTCHAR 02DB
ENCODING 731
SWIDTH 540 0
DWIDTH 9 0
BBX 4 3 3 -3
BITMAP
60
C0
70
ENDCHAR
STARTCHAR 02DC
ENCODING 732
SWIDTH 540 0
DWIDTH 9 0
BBX 6 2 2 10
BITMAP
EC
B8
ENDCHAR
STARTCHAR 02DD
ENCODING 733
SWIDTH 540 0
DWIDTH 9 0
BBX 5 3 3 10
BITMAP
48
F8
90
ENDCHAR
STARTCHAR 02DE
ENCODING 734
SWIDTH 180 0
DWIDTH 3 0
BBX 5 4 -2 3
BITMAP
60
E0
B8
18
ENDCHAR
STARTCHAR 02E0
ENCODING 736
SWIDTH 360 0
DWIDTH 6 0
BBX 6 8 0 4
BITMAP
CC
48
58
30
30
30
50
30
ENDCHAR
STARTCHAR 02E1
ENCODING 737
SWIDTH 180 0
DWIDTH 3 0
BBX 2 8 1 6
BITMAP
80
80
80
80
80
80
80
C0
ENDCHAR
STARTCHAR 02E2
ENCODING 738
SWIDTH 300 0
DWIDTH 5 0
BBX 5 6 0 6
BITMAP
70
48
60
30
98
70
ENDCHAR
STARTCHAR 02E3
ENCODING 739
SWIDTH 360 0
DWIDTH 6 0
BBX 5 5 0 7
BITMAP
C8
70
30
70
C8
ENDCHAR
STARTCHAR 0300
ENCODING 768
SWIDTH 0 0
DWIDTH 0 0
BBX 4 4 -3 10
BITMAP
40
E0
70
30
ENDCHAR
STARTCHAR 0301
ENCODING 769
SWIDTH 0 0
DWIDTH 0 0
BBX 4 4 -1 10
BITMAP
20
70
E0
C0
ENDCHAR
STARTCHAR 0302
ENCODING 770
SWIDTH 0 0
DWIDTH 0 0
BBX 6 3 -3 10
BITMAP
30
78
84
ENDCHAR
STARTCHAR 0303
ENCODING 771
SWIDTH 0 0
DWIDTH 0 0
BBX 6 2 -3 10
BITMAP
E4
9C
ENDCHAR
STARTCHAR 0304
ENCODING 772
SWIDTH 0 0
DWIDTH 0 0
BBX 4 1 -2 10
BITMAP
F0
ENDCHAR
STARTCHAR 0305
ENCODING 773
SWIDTH 0 0
DWIDTH 0 0
BBX 4 1 -2 10
BITMAP
F0
ENDCHAR
STARTCHAR 0306
ENCODING 774
SWIDTH 0 0
DWIDTH 0 0
BBX 6 3 -3 10
BITMAP
84
48
78
ENDCHAR
STARTCHAR 0307
ENCODING 775
SWIDTH 0 0
DWIDTH 0 0
BBX 2 2 -1 10
BITMAP
C0
C0
ENDCHAR
STARTCHAR 0308
ENCODING 776
SWIDTH 0 0
DWIDTH 0 0
BBX 6 2 -3 10
BITMAP
CC
CC
ENDCHAR
STARTCHAR 0309
ENCODING 777
SWIDTH 0 0
DWIDTH 0 0
BBX 3 3 -1 10
BITMAP
C0
60
C0
ENDCHAR
STARTCHAR 030A
ENCODING 778
SWIDTH 0 0
DWIDTH 0 0
BBX 4 4 -2 9
BITMAP
60
90
90
60
ENDCHAR
STARTCHAR 030B
ENCODING 779
SWIDTH 0 0
DWIDTH 0 0
BBX 6 3 -2 10
BITMAP
6C
48
90
ENDCHAR
STARTCHAR 030C
ENCODING 780
SWIDTH 0 0
DWIDTH 0 0
BBX 6 3 -3 10
BITMAP
84
78
30
ENDCHAR
STARTCHAR 030F
ENCODING 783
SWIDTH 0 0
DWIDTH 0 0
BBX 6 3 -4 10
BITMAP
D8
48
24
ENDCHAR
STARTCHAR 0311
ENCODING 785
SWIDTH 0 0
DWIDTH 0 0
BBX 6 3 -3 10
BITMAP
78
48
84
ENDCHAR
STARTCHAR 0312
ENCODING 786
SWIDTH 0 0
DWIDTH 0 0
BBX 2 4 -1 10
BITMAP
40
80
C0
C0
ENDCHAR
STARTCHAR 0313
ENCODING 787
SWIDTH 0 0
DWIDTH 0 0
BBX 2 4 -1 9
BITMAP
C0
C0
40
80
ENDCHAR
STARTCHAR 0318
ENCODING 792
SWIDTH 0 0
DWIDTH 0 0
BBX 3 4 -1 -4
BITMAP
60
E0
E0
60
ENDCHAR
STARTCHAR 0319
ENCODING 793
SWIDTH 0 0
DWIDTH 0 0
BBX 3 4 -2 -4
BITMAP
C0
E0
E0
C0
ENDCHAR
STARTCHAR 031A
ENCODING 794
SWIDTH 0 0
DWIDTH 0 0
BBX 3 3 -1 9
BITMAP
E0
E0
60
ENDCHAR
STARTCHAR 031B
ENCODING 795
SWIDTH 0 0
DWIDTH 0 0
BBX 3 4 0 7
BITMAP
60
60
60
C0
ENDCHAR
STARTCHAR 031C
ENCODING 796
SWIDTH 0 0
DWIDTH 0 0
BBX 2 4 -1 -5
BITMAP
C0
80
80
C0
ENDCHAR
STARTCHAR 031D
ENCODING 797
SWIDTH 0 0
DWIDTH 0 0
BBX 4 4 -2 -4
BITMAP
60
60
F0
F0
ENDCHAR
STARTCHAR 031E
ENCODING 798
SWIDTH 0 0
DWIDTH 0 0
BBX 4 4 -2 -5
BITMAP
F0
F0
60
60
ENDCHAR
STARTCHAR 031F
ENCODING 799
SWIDTH 0 0
DWIDTH 0 0
BBX 4 4 -2 -4
BITMAP
60
F0
F0
60
ENDCHAR
STARTCHAR 0320
ENCODING 800
SWIDTH 0 0
DWIDTH 0 0
BBX 4 2 -2 -3
BITMAP
F0
F0
ENDCHAR
STARTCHAR 0323
ENCODING 803
SWIDTH 0 0
DWIDTH 0 0
BBX 2 2 -1 -3
BITMAP
C0
C0
ENDCHAR
STARTCHAR 0324
ENCODING 804
SWIDTH 0 0
DWIDTH 0 0
BBX 6 2 -3 -3
BITMAP
CC
CC
ENDCHAR
STARTCHAR 0325
ENCODING 805
SWIDTH 0 0
DWIDTH 0 0
BBX 4 4 -2 -5
BITMAP
60
90
90
60
ENDCHAR
STARTCHAR 0326
ENCODING 806
SWIDTH 0 0
DWIDTH 0 0
BBX 3 3 -2 -4
BITMAP
60
20
E0
ENDCHAR
STARTCHAR 0327
ENCODING 807
SWIDTH 0 0
DWIDTH 0 0
BBX 3 5 -2 -5
BITMAP
60
60
20
20
C0
ENDCHAR
STARTCHAR 0328
ENCODING 808
SWIDTH 0 0
DWIDTH 0 0
BBX 3 3 -1 -3
BITMAP
C0
80
E0
ENDCHAR
STARTCHAR 0329
ENCODING 809
SWIDTH 0 0
DWIDTH 0 0
BBX 2 3 -1 -4
BITMAP
C0
C0
C0
ENDCHAR
STARTCHAR 032A
ENCODING 810
SWIDTH 0 0
DWIDTH 0 0
BBX 4 3 -2 -3
BITMAP
F0
F0
90
ENDCHAR
STARTCHAR 032C
ENCODING 812
SWIDTH 0 0
DWIDTH 0 0
BBX 6 3 -3 -4
BITMAP
84
78
30
ENDCHAR
STARTCHAR 032E
ENCODING 814
SWIDTH 0 0
DWIDTH 0 0
BBX 6 3 -3 -4
BITMAP
84
48
78
ENDCHAR
STARTCHAR 032F
ENCODING 815
SWIDTH 0 0
DWIDTH 0 0
BBX 6 3 -3 -4
BITMAP
78
48
84
ENDCHAR
STARTCHAR 0330
ENCODING 816
SWIDTH 0 0
DWIDTH 0 0
BBX 6 2 -3 -4
BITMAP
E4
9C
ENDCHAR
STARTCHAR 0331
ENCODING 817
SWIDTH 0 0
DWIDTH 0 0
BBX 4 1 -2 -3
BITMAP
F0
ENDCHAR
STARTCHAR 0334
ENCODING 820
SWIDTH 0 0
DWIDTH 0 0
BBX 6 2 -3 3
BITMAP
E4
9C
ENDCHAR
STARTCHAR 0339
ENCODING 825
SWIDTH 0 0
DWIDTH 0 0
BBX 2 4 -1 -5
BITMAP
C0
40
40
C0
ENDCHAR
STARTCHAR 033A
ENCODING 826
SWIDTH 0 0
DWIDTH 0 0
BBX 4 3 -2 -4
BITMAP
90
F0
F0
ENDCHAR
STARTCHAR 033B
ENCODING 827
SWIDTH 0 0
DWIDTH 0 0
BBX 4 3 -2 -4
BITMAP
F0
90
F0
ENDCHAR
STARTCHAR 033C
ENCODING 828
SWIDTH 0 0
DWIDTH 0 0
BBX 6 3 -3 -4
BITMAP
78
FC
B4
ENDCHAR
STARTCHAR 033D
ENCODING 829
SWIDTH 0 0
DWIDTH 0 0
BBX 4 3 -2 9
BITMAP
60
F0
F0
ENDCHAR
STARTCHAR 0342
ENCODING 834
SWIDTH 0 0
DWIDTH 0 0
BBX 6 2 -3 10
BITMAP
E4
9C
ENDCHAR
STARTCHAR 0345
ENCODING 837
SWIDTH 0 0
DWIDTH 0 0
BBX 3 2 -1 -3
BITMAP
C0
60
ENDCHAR
STARTCHAR 0361
ENCODING 865
SWIDTH 0 0
DWIDTH 0 0
BBX 16 3 -8 9
BITMAP
0FF0
700E
8003
ENDCHAR
STARTCHAR 0374
ENCODING 884
SWIDTH 300 0
DWIDTH 5 0
BBX 3 5 1 7
BITMAP
60
40
40
C0
C0
ENDCHAR
STARTCHAR 0375
ENCODING 885
SWIDTH 300 0
DWIDTH 5 0
BBX 2 5 1 0
BITMAP
40
40
C0
C0
C0
ENDCHAR
STARTCHAR 037A
ENCODING 890
SWIDTH 540 0
DWIDTH 9 0
BBX 2 2 4 -3
BITMAP
80
C0
ENDCHAR
STARTCHAR 037E
ENCODING 894
SWIDTH 300 0
DWIDTH 5 0
BBX 3 12 1 -3
BITMAP
C0
E0
C0
00
00
00
00
E0
E0
60
40
80
ENDCHAR
STARTCHAR 0384
ENCODING 900
SWIDTH 540 0
DWIDTH 9 0
BBX 3 4 4 9
BITMAP
E0
C0
C0
80
ENDCHAR
STARTCHAR 0385
ENCODING 901
SWIDTH 540 0
DWIDTH 9 0
BBX 6 4 2 10
BITMAP
10
30
AC
AC
ENDCHAR
STARTCHAR 0386
ENCODING 902
SWIDTH 600 0
DWIDTH 10 0
BBX 10 11 0 0
BITMAP
CE00
CE00
DA00
9B00
1300
3100
3F80
3F80
6180
60C0
60C0
ENDCHAR
STARTCHAR 0387
ENCODING 903
SWIDTH 300 0
DWIDTH 5 0
BBX 3 3 1 6
BITMAP
C0
E0
C0
ENDCHAR
STARTCHAR 0388
ENCODING 904
SWIDTH 660 0
DWIDTH 11 0
BBX 10 11 0 0
BITMAP
DFC0
DFC0
9800
9800
1F80
1F80
1800
1800
1800
1FC0
1FC0
ENDCHAR
STARTCHAR 0389
ENCODING 905
SWIDTH 780 0
DWIDTH 13 0
BBX 11 11 0 0
BITMAP
D860
D860
9860
9860
1FE0
1FE0
1860
1860
1860
1860
1860
ENDCHAR
STARTCHAR 038A
ENCODING 906
SWIDTH 360 0
DWIDTH 6 0
BBX 5 11 0 0
BITMAP
D8
D8
98
98
18
18
18
18
18
18
18
ENDCHAR
STARTCHAR 038C
ENCODING 908
SWIDTH 780 0
DWIDTH 13 0
BBX 12 11 0 0
BITMAP
C780
DFE0
9860
B070
3030
3030
3030
3070
1860
1FC0
0780
ENDCHAR
STARTCHAR 038E
ENCODING 910
SWIDTH 660 0
DWIDTH 11 0
BBX 11 11 0 0
BITMAP
D860
D8C0
8CC0
8C80
0780
0700
0300
0300
0300
0300
0300
ENDCHAR
STARTCHAR 038F
ENCODING 911
SWIDTH 780 0
DWIDTH 13 0
BBX 12 11 0 0
BITMAP
C780
DFE0
9860
B830
3030
3030
3030
1860
0C60
3CF0
3CF0
ENDCHAR
STARTCHAR 0390
ENCODING 912
SWIDTH 300 0
DWIDTH 5 0
BBX 6 14 -1 0
BITMAP
18
10
D4
DC
20
00
30
30
30
30
30
30
38
18
ENDCHAR
STARTCHAR 0391
ENCODING 913
SWIDTH 540 0
DWIDTH 9 0
BBX 10 11 0 0
BITMAP
1C00
1C00
1600
3600
3200
2300
7F00
7F00
6180
C180
C1C0
ENDCHAR
STARTCHAR 0392
ENCODING 914
SWIDTH 600 0
DWIDTH 10 0
BBX 9 11 1 0
BITMAP
FE00
FF00
C300
C300
FE00
FE00
C300
C180
C300
FF00
FE00
ENDCHAR
STARTCHAR 0393
ENCODING 915
SWIDTH 540 0
DWIDTH 9 0
BBX 7 11 1 0
BITMAP
FE
FE
C0
C0
C0
C0
C0
C0
C0
C0
C0
ENDCHAR
STARTCHAR 0394
ENCODING 916
SWIDTH 600 0
DWIDTH 10 0
BBX 9 11 1 0
BITMAP
1C00
1C00
3400
3600
6600
6200
6300
C300
C100
FF80
FF80
ENDCHAR
STARTCHAR 0395
ENCODING 917
SWIDTH 540 0
DWIDTH 9 0
BBX 7 11 1 0
BITMAP
FE
FE
C0
C0
FC
FC
C0
C0
C0
FE
FE
ENDCHAR
STARTCHAR 0396
ENCODING 918
SWIDTH 540 0
DWIDTH 9 0
BBX 8 11 1 0
BITMAP
FF
FF
06
0C
1C
38
30
60
C0
FF
FF
ENDCHAR
STARTCHAR 0397
ENCODING 919
SWIDTH 660 0
DWIDTH 11 0
BBX 9 11 1 0
BITMAP
C180
C180
C180
C180
FF80
FF80
C180
C180
C180
C180
C180
ENDCHAR
STARTCHAR 0398
ENCODING 920
SWIDTH 660 0
DWIDTH 11 0
BBX 10 11 1 0
BITMAP
3E00
7F00
E380
C180
DEC0
DEC0
C0C0
C180
E380
7F00
3E00
ENDCHAR
STARTCHAR 0399
ENCODING 921
SWIDTH 300 0
DWIDTH 5 0
BBX 2 11 1 0
BITMAP
C0
C0
C0
C0
C0
C0
C0
C0
C0
C0
C0
ENDCHAR
STARTCHAR 039A
ENCODING 922
SWIDTH 600 0
DWIDTH 10 0
BBX 9 11 1 0
BITMAP
C380
C600
CE00
CC00
D800
FC00
EC00
E600
C300
C300
C180
ENDCHAR
STARTCHAR 039B
ENCODING 923
SWIDTH 540 0
DWIDTH 9 0
BBX 9 11 0 0
BITMAP
1C00
1C00
1600
3600
3600
2200
6300
6300
6300
C180
C180
ENDCHAR
STARTCHAR 039C
ENCODING 924
SWIDTH 780 0
DWIDTH 13 0
BBX 10 11 1 0
BITMAP
E0C0
E1C0
F1C0
F140
D3C0
DBC0
DAC0
CEC0
CCC0
C4C0
C0C0
ENDCHAR
STARTCHAR 039D
ENCODING 925
SWIDTH 660 0
DWIDTH 11 0
BBX 9 11 1 0
BITMAP
E180
E180
F180
D180
D980
CD80
CD80
C780
C780
C380
C380
ENDCHAR
STARTCHAR 039E
ENCODING 926
SWIDTH 540 0
DWIDTH 9 0
BBX 8 11 1 0
BITMAP
FE
FE
00
00
7C
7C
00
00
00
FF
FF
ENDCHAR
STARTCHAR 039F
ENCODING 927
SWIDTH 660 0
DWIDTH 11 0
BBX 10 11 1 0
BITMAP
3E00
7F00
E380
C180
C0C0
C0C0
C0C0
C180
E380
7F00
3E00
ENDCHAR
STARTCHAR 03A0
ENCODING 928
SWIDTH 660 0
DWIDTH 11 0
BBX 9 11 1 0
BITMAP
FF80
FF80
C180
C180
C180
C180
C180
C180
C180
C180
C180
ENDCHAR
STARTCHAR 03A1
ENCODING 929
SWIDTH 600 0
DWIDTH 10 0
BBX 8 11 1 0
BITMAP
FE
FF
C3
C3
C3
FF
FC
C0
C0
C0
C0
ENDCHAR
STARTCHAR 03A3
ENCODING 931
SWIDTH 540 0
DWIDTH 9 0
BBX 8 11 1 0
BITMAP
FE
FE
60
30
18
18
30
20
60
FF
FF
ENDCHAR
STARTCHAR 03A4
ENCODING 932
SWIDTH 540 0
DWIDTH 9 0
BBX 9 11 0 0
BITMAP
FF80
FF80
0C00
0C00
0C00
0C00
0C00
0C00
0C00
0C00
0C00
ENDCHAR
STARTCHAR 03A5
ENCODING 933
SWIDTH 540 0
DWIDTH 9 0
BBX 9 11 0 0
BITMAP
C380
6300
6600
3600
3400
1C00
1800
1800
1800
1800
1800
ENDCHAR
STARTCHAR 03A6
ENCODING 934
SWIDTH 780 0
DWIDTH 13 0
BBX 11 11 1 0
BITMAP
0C00
3F00
7FC0
ECC0
CC60
CC60
CC60
ECC0
7FC0
3F00
0C00
ENDCHAR
STARTCHAR 03A7
ENCODING 935
SWIDTH 540 0
DWIDTH 9 0
BBX 9 11 0 0
BITMAP
E380
6300
3600
3600
1C00
1C00
1C00
3600
3700
6300
E180
ENDCHAR
STARTCHAR 03A8
ENCODING 936
SWIDTH 720 0
DWIDTH 12 0
BBX 10 11 1 0
BITMAP
CCC0
CCC0
CCC0
CCC0
CCC0
7FC0
7F80
0E00
0C00
0C00
0C00
ENDCHAR
STARTCHAR 03A9
ENCODING 937
SWIDTH 720 0
DWIDTH 12 0
BBX 10 11 1 0
BITMAP
1E00
7F80
6180
C1C0
C0C0
C0C0
C0C0
6180
6300
F3C0
F3C0
ENDCHAR
STARTCHAR 03AA
ENCODING 938
SWIDTH 300 0
DWIDTH 5 0
BBX 5 14 0 0
BITMAP
98
D8
00
60
60
60
60
60
60
60
60
60
60
60
ENDCHAR
STARTCHAR 03AB
ENCODING 939
SWIDTH 540 0
DWIDTH 9 0
BBX 9 14 0 0
BITMAP
2600
6600
0000
C380
6300
6600
3600
3400
1C00
1800
1800
1800
1800
1800
ENDCHAR
STARTCHAR 03AC
ENCODING 940
SWIDTH 600 0
DWIDTH 10 0
BBX 9 13 1 0
BITMAP
0C00
0800
1800
1800
0000
3B00
FF00
C600
C600
C600
C600
FF80
7B80
ENDCHAR
STARTCHAR 03AD
ENCODING 941
SWIDTH 480 0
DWIDTH 8 0
BBX 6 13 1 0
BITMAP
18
18
10
10
00
78
FC
C4
78
F8
C4
FC
78
ENDCHAR
STARTCHAR 03AE
ENCODING 942
SWIDTH 540 0
DWIDTH 9 0
BBX 7 16 1 -3
BITMAP
0C
0C
08
18
00
DC
FE
E6
C6
C6
C6
C6
C6
06
06
06
ENDCHAR
STARTCHAR 03AF
ENCODING 943
SWIDTH 300 0
DWIDTH 5 0
BBX 3 13 1 0
BITMAP
60
60
40
40
80
C0
C0
C0
C0
C0
C0
E0
60
ENDCHAR
STARTCHAR 03B0
ENCODING 944
SWIDTH 540 0
DWIDTH 9 0
BBX 7 14 1 0
BITMAP
18
10
D4
D4
00
00
CE
C6
C6
C6
C6
CE
FC
78
ENDCHAR
STARTCHAR 03B1
ENCODING 945
SWIDTH 600 0
DWIDTH 10 0
BBX 9 8 1 0
BITMAP
3B00
FF00
C600
C600
C600
C600
FF80
7B80
ENDCHAR
STARTCHAR 03B2
ENCODING 946
SWIDTH 600 0
DWIDTH 10 0
BBX 8 15 1 -3
BITMAP
3C
7E
E6
C6
CC
DE
CF
C3
C3
E3
FF
DE
C0
C0
C0
ENDCHAR
STARTCHAR 03B3
ENCODING 947
SWIDTH 540 0
DWIDTH 9 0
BBX 8 11 0 -3
BITMAP
C3
63
23
32
36
16
1C
18
18
18
18
ENDCHAR
STARTCHAR 03B4
ENCODING 948
SWIDTH 540 0
DWIDTH 9 0
BBX 7 12 1 0
BITMAP
7C
7E
42
60
38
7C
C6
C6
C6
C6
FE
3C
ENDCHAR
STARTCHAR 03B5
ENCODING 949
SWIDTH 480 0
DWIDTH 8 0
BBX 6 8 1 0
BITMAP
78
FC
C4
78
F8
C4
FC
78
ENDCHAR
STARTCHAR 03B6
ENCODING 950
SWIDTH 480 0
DWIDTH 8 0
BBX 6 15 1 -3
BITMAP
FC
FC
18
30
60
60
C0
C0
C0
E0
F8
7C
0C
0C
0C
ENDCHAR
STARTCHAR 03B7
ENCODING 951
SWIDTH 540 0
DWIDTH 9 0
BBX 7 11 1 -3
BITMAP
DC
FE
E6
C6
C6
C6
C6
C6
06
06
06
ENDCHAR
STARTCHAR 03B8
ENCODING 952
SWIDTH 540 0
DWIDTH 9 0
BBX 7 12 1 0
BITMAP
38
7C
E6
C6
C6
FE
FE
C6
C6
C6
7C
38
ENDCHAR
STARTCHAR 03B9
ENCODING 953
SWIDTH 300 0
DWIDTH 5 0
BBX 3 8 1 0
BITMAP
C0
C0
C0
C0
C0
C0
E0
60
ENDCHAR
STARTCHAR 03BA
ENCODING 954
SWIDTH 540 0
DWIDTH 9 0
BBX 8 8 1 0
BITMAP
C2
CE
DC
D8
F8
EC
C6
C7
ENDCHAR
STARTCHAR 03BB
ENCODING 955
SWIDTH 540 0
DWIDTH 9 0
BBX 9 12 0 0
BITMAP
F000
7800
1800
0C00
0C00
1C00
1600
3600
3300
6300
6300
E180
ENDCHAR
STARTCHAR 03BC
ENCODING 956
SWIDTH 600 0
DWIDTH 10 0
BBX 9 11 1 -3
BITMAP
C600
C600
C600
C600
C600
C600
FF00
FB80
C000
C000
C000
ENDCHAR
STARTCHAR 03BD
ENCODING 957
SWIDTH 480 0
DWIDTH 8 0
BBX 8 8 0 0
BITMAP
C3
63
63
32
36
14
1C
18
ENDCHAR
STARTCHAR 03BE
ENCODING 958
SWIDTH 480 0
DWIDTH 8 0
BBX 7 15 0 -3
BITMAP
FE
FE
30
30
30
1E
3E
60
60
60
7E
3E
02
02
06
ENDCHAR
STARTCHAR 03BF
ENCODING 959
SWIDTH 540 0
DWIDTH 9 0
BBX 8 8 1 0
BITMAP
3C
FE
C6
C3
C3
C6
FE
3C
ENDCHAR
STARTCHAR 03C0
ENCODING 960
SWIDTH 600 0
DWIDTH 10 0
BBX 10 8 0 0
BITMAP
FFC0
FFC0
3300
3300
3300
3300
33C0
31C0
ENDCHAR
STARTCHAR 03C1
ENCODING 961
SWIDTH 600 0
DWIDTH 10 0
BBX 8 11 1 -3
BITMAP
3C
7E
E7
C3
C3
C7
FE
DC
C0
C0
C0
ENDCHAR
STARTCHAR 03C2
ENCODING 962
SWIDTH 420 0
DWIDTH 7 0
BBX 6 11 1 -3
BITMAP
38
FC
C8
C0
C0
C0
F8
3C
0C
08
18
ENDCHAR
STARTCHAR 03C3
ENCODING 963
SWIDTH 600 0
DWIDTH 10 0
BBX 8 8 1 0
BITMAP
3F
FF
C4
C6
C6
C6
FE
3C
ENDCHAR
STARTCHAR 03C4
ENCODING 964
SWIDTH 480 0
DWIDTH 8 0
BBX 8 8 0 0
BITMAP
FF
FF
18
18
18
18
1E
0E
ENDCHAR
STARTCHAR 03C5
ENCODING 965
SWIDTH 540 0
DWIDTH 9 0
BBX 7 8 1 0
BITMAP
CE
C6
C6
C6
C6
CE
FC
78
ENDCHAR
STARTCHAR 03C6
ENCODING 966
SWIDTH 720 0
DWIDTH 12 0
BBX 10 14 1 -3
BITMAP
0C00
0C00
0C00
3F00
7F80
CCC0
CCC0
CCC0
CCC0
7F80
3F00
0C00
0C00
0C00
ENDCHAR
STARTCHAR 03C7
ENCODING 967
SWIDTH 540 0
DWIDTH 9 0
BBX 9 11 0 -3
BITMAP
C300
6600
3600
3400
1C00
1C00
1C00
3600
2300
6300
C080
ENDCHAR
STARTCHAR 03C8
ENCODING 968
SWIDTH 720 0
DWIDTH 12 0
BBX 10 14 1 -3
BITMAP
0C00
0C00
0C00
CCC0
CCC0
CCC0
CCC0
CCC0
ECC0
7FC0
3F00
0C00
0C00
0C00
ENDCHAR
STARTCHAR 03C9
ENCODING 969
SWIDTH 720 0
DWIDTH 12 0
BBX 11 8 1 0
BITMAP
6080
C1C0
CCC0
CC60
CC60
CCC0
FFC0
7380
ENDCHAR
STARTCHAR 03CA
ENCODING 970
SWIDTH 300 0
DWIDTH 5 0
BBX 6 12 -1 0
BITMAP
4C
EC
00
00
30
30
30
30
30
30
38
18
ENDCHAR
STARTCHAR 03CB
ENCODING 971
SWIDTH 540 0
DWIDTH 9 0
BBX 7 12 1 0
BITMAP
4C
6C
00
00
CE
C6
C6
C6
C6
CE
FC
78
ENDCHAR
STARTCHAR 03CC
ENCODING 972
SWIDTH 540 0
DWIDTH 9 0
BBX 8 13 1 0
BITMAP
1C
18
18
10
00
3C
FE
C6
C3
C3
C6
FE
3C
ENDCHAR
STARTCHAR 03CD
ENCODING 973
SWIDTH 540 0
DWIDTH 9 0
BBX 7 13 1 0
BITMAP
18
18
10
10
00
CE
C6
C6
C6
C6
CE
FC
78
ENDCHAR
STARTCHAR 03CE
ENCODING 974
SWIDTH 720 0
DWIDTH 12 0
BBX 11 13 1 0
BITMAP
0600
0600
0400
0C00
0000
6080
C1C0
CCC0
CC60
CC60
CCC0
FFC0
7380
ENDCHAR
STARTCHAR 03D0
ENCODING 976
SWIDTH 600 0
DWIDTH 10 0
BBX 8 12 1 0
BITMAP
3C
7E
C6
C6
FE
F8
FE
C3
C3
E3
7F
3C
ENDCHAR
STARTCHAR 03D1
ENCODING 977
SWIDTH 540 0
DWIDTH 9 0
BBX 7 12 1 0
BITMAP
78
FC
C6
C6
FE
7E
06
C6
C6
E6
7C
38
ENDCHAR
STARTCHAR 03D5
ENCODING 981
SWIDTH 720 0
DWIDTH 12 0
BBX 10 11 1 -3
BITMAP
4780
EFC0
CCC0
CCC0
CCC0
ECC0
7F80
3F00
0C00
0C00
0C00
ENDCHAR
STARTCHAR 03D7
ENCODING 983
SWIDTH 540 0
DWIDTH 9 0
BBX 8 11 1 -3
BITMAP
C2
CE
D8
D8
F8
EC
C6
C6
07
06
1C
ENDCHAR
STARTCHAR 03D9
ENCODING 985
SWIDTH 540 0
DWIDTH 9 0
BBX 8 11 1 -3
BITMAP
3C
FE
C6
C3
C3
C6
FE
7C
18
18
18
ENDCHAR
STARTCHAR 03DB
ENCODING 987
SWIDTH 480 0
DWIDTH 8 0
BBX 7 11 1 -3
BITMAP
3E
FE
C0
C0
C0
E0
78
3C
0C
0C
0C
ENDCHAR
STARTCHAR 03DD
ENCODING 989
SWIDTH 420 0
DWIDTH 7 0
BBX 6 11 1 -3
BITMAP
FC
FC
C0
C0
F8
F8
C0
C0
C0
C0
C0
ENDCHAR
STARTCHAR 03E1
ENCODING 993
SWIDTH 540 0
DWIDTH 9 0
BBX 8 15 0 -3
BITMAP
20
70
38
1C
0E
0E
3F
E3
83
0F
3B
21
01
03
03
ENDCHAR
STARTCHAR 0400
ENCODING 1024
SWIDTH 540 0
DWIDTH 9 0
BBX 7 15 1 0
BITMAP
20
70
18
00
FE
FE
C0
C0
FC
FC
C0
C0
C0
FE
FE
ENDCHAR
STARTCHAR 0401
ENCODING 1025
SWIDTH 540 0
DWIDTH 9 0
BBX 7 14 1 0
BITMAP
66
66
00
FE
FE
C0
C0
FC
FC
C0
C0
C0
FE
FE
ENDCHAR
STARTCHAR 0402
ENCODING 1026
SWIDTH 720 0
DWIDTH 12 0
BBX 11 11 0 0
BITMAP
FF80
FF80
1800
1800
1F80
1FC0
1860
1860
1860
19E0
19C0
ENDCHAR
STARTCHAR 0403
ENCODING 1027
SWIDTH 540 0
DWIDTH 9 0
BBX 7 15 1 0
BITMAP
04
0E
18
00
FE
FE
C0
C0
C0
C0
C0
C0
C0
C0
C0
ENDCHAR
STARTCHAR 0404
ENCODING 1028
SWIDTH 600 0
DWIDTH 10 0
BBX 8 11 1 0
BITMAP
1E
7F
E2
C0
FC
FC
C0
C0
E1
7F
3E
ENDCHAR
STARTCHAR 0405
ENCODING 1029
SWIDTH 540 0
DWIDTH 9 0
BBX 8 11 1 0
BITMAP
3C
7E
C2
C0
70
3C
0E
03
C7
FE
7C
ENDCHAR
STARTCHAR 0406
ENCODING 1030
SWIDTH 300 0
DWIDTH 5 0
BBX 2 11 1 0
BITMAP
C0
C0
C0
C0
C0
C0
C0
C0
C0
C0
C0
ENDCHAR
STARTCHAR 0407
ENCODING 1031
SWIDTH 300 0
DWIDTH 5 0
BBX 5 14 0 0
BITMAP
98
D8
00
60
60
60
60
60
60
60
60
60
60
60
ENDCHAR
STARTCHAR 0408
ENCODING 1032
SWIDTH 480 0
DWIDTH 8 0
BBX 7 11 0 0
BITMAP
06
06
06
06
06
06
06
06
46
FE
3C
ENDCHAR
STARTCHAR 0409
ENCODING 1033
SWIDTH 960 0
DWIDTH 16 0
BBX 15 11 0 0
BITMAP
0F80
1F80
1980
1980
19F8
19FC
318E
3186
318E
E1FC
E1F8
ENDCHAR
STARTCHAR 040A
ENCODING 1034
SWIDTH 960 0
DWIDTH 16 0
BBX 14 11 1 0
BITMAP
C180
C180
C180
C180
FFF0
FFFC
C18C
C18C
C18C
C1FC
C1F0
ENDCHAR
STARTCHAR 040B
ENCODING 1035
SWIDTH 720 0
DWIDTH 12 0
BBX 11 11 0 0
BITMAP
FF80
FF80
1800
1800
1F80
1FC0
1860
1860
1860
1860
1860
ENDCHAR
STARTCHAR 040C
ENCODING 1036
SWIDTH 600 0
DWIDTH 10 0
BBX 9 15 1 0
BITMAP
0200
0E00
0800
0000
C180
C380
C600
CC00
FC00
FC00
CE00
C600
C300
C300
C180
ENDCHAR
STARTCHAR 040D
ENCODING 1037
SWIDTH 660 0
DWIDTH 11 0
BBX 9 15 1 0
BITMAP
1000
3800
0C00
0000
C180
C380
C780
C780
CD80
CD80
D980
D180
F180
E180
E180
ENDCHAR
STARTCHAR 040E
ENCODING 1038
SWIDTH 540 0
DWIDTH 9 0
BBX 9 14 0 0
BITMAP
3200
1E00
0000
C180
6180
6300
3300
3600
1600
1C00
1C00
0C00
7800
7000
ENDCHAR
STARTCHAR 040F
ENCODING 1039
SWIDTH 660 0
DWIDTH 11 0
BBX 9 14 1 -3
BITMAP
C180
C180
C180
C180
C180
C180
C180
C180
C180
FF80
FF80
0C00
0C00
0800
ENDCHAR
STARTCHAR 0410
ENCODING 1040
SWIDTH 540 0
DWIDTH 9 0
BBX 10 11 0 0
BITMAP
1C00
1C00
1600
3600
3200
2300
7F00
7F00
6180
C180
C1C0
ENDCHAR
STARTCHAR 0411
ENCODING 1041
SWIDTH 600 0
DWIDTH 10 0
BBX 8 11 1 0
BITMAP
FF
FF
C0
C0
FE
FF
C3
C3
C3
FF
FE
ENDCHAR
STARTCHAR 0412
ENCODING 1042
SWIDTH 600 0
DWIDTH 10 0
BBX 9 11 1 0
BITMAP
FE00
FF00
C300
C300
FE00
FE00
C300
C180
C300
FF00
FE00
ENDCHAR
STARTCHAR 0413
ENCODING 1043
SWIDTH 540 0
DWIDTH 9 0
BBX 7 11 1 0
BITMAP
FE
FE
C0
C0
C0
C0
C0
C0
C0
C0
C0
ENDCHAR
STARTCHAR 0414
ENCODING 1044
SWIDTH 660 0
DWIDTH 11 0
BBX 11 14 0 -3
BITMAP
1F80
1F80
1880
1880
1080
3080
3080
3080
6080
FFE0
FFE0
C060
C060
C060
ENDCHAR
STARTCHAR 0415
ENCODING 1045
SWIDTH 540 0
DWIDTH 9 0
BBX 7 11 1 0
BITMAP
FE
FE
C0
C0
FC
FC
C0
C0
C0
FE
FE
ENDCHAR
STARTCHAR 0416
ENCODING 1046
SWIDTH 840 0
DWIDTH 14 0
BBX 14 11 0 0
BITMAP
E30C
F31C
3330
1B30
1FE0
1FE0
3B30
3330
7318
6318
C30C
ENDCHAR
STARTCHAR 0417
ENCODING 1047
SWIDTH 600 0
DWIDTH 10 0
BBX 8 11 1 0
BITMAP
7C
FE
46
06
3C
3E
03
03
C7
FE
7C
ENDCHAR
STARTCHAR 0418
ENCODING 1048
SWIDTH 660 0
DWIDTH 11 0
BBX 9 11 1 0
BITMAP
C180
C380
C780
C780
CD80
CD80
D980
D180
F180
E180
E180
ENDCHAR
STARTCHAR 0419
ENCODING 1049
SWIDTH 660 0
DWIDTH 11 0
BBX 9 14 1 0
BITMAP
3300
1E00
0000
C180
C380
C780
C780
CD80
CD80
D980
D180
F180
E180
E180
ENDCHAR
STARTCHAR 041A
ENCODING 1050
SWIDTH 600 0
DWIDTH 10 0
BBX 9 11 1 0
BITMAP
C180
C380
C600
CC00
FC00
FC00
CE00
C600
C300
C300
C180
ENDCHAR
STARTCHAR 041B
ENCODING 1051
SWIDTH 660 0
DWIDTH 11 0
BBX 10 11 0 0
BITMAP
1FC0
1FC0
18C0
18C0
18C0
30C0
30C0
30C0
30C0
E0C0
E0C0
ENDCHAR
STARTCHAR 041C
ENCODING 1052
SWIDTH 780 0
DWIDTH 13 0
BBX 10 11 1 0
BITMAP
E0C0
E1C0
F1C0
F140
D3C0
DBC0
DAC0
CEC0
CCC0
C4C0
C0C0
ENDCHAR
STARTCHAR 041D
ENCODING 1053
SWIDTH 660 0
DWIDTH 11 0
BBX 9 11 1 0
BITMAP
C180
C180
C180
C180
FF80
FF80
C180
C180
C180
C180
C180
ENDCHAR
STARTCHAR 041E
ENCODING 1054
SWIDTH 660 0
DWIDTH 11 0
BBX 10 11 1 0
BITMAP
3E00
7F00
E380
C180
C0C0
C0C0
C0C0
C180
E380
7F00
3E00
ENDCHAR
STARTCHAR 041F
ENCODING 1055
SWIDTH 660 0
DWIDTH 11 0
BBX 9 11 1 0
BITMAP
FF80
FF80
C180
C180
C180
C180
C180
C180
C180
C180
C180
ENDCHAR
STARTCHAR 0420
ENCODING 1056
SWIDTH 600 0
DWIDTH 10 0
BBX 8 11 1 0
BITMAP
FE
FF
C3
C3
C3
FF
FC
C0
C0
C0
C0
ENDCHAR
STARTCHAR 0421
ENCODING 1057
SWIDTH 600 0
DWIDTH 10 0
BBX 8 11 1 0
BITMAP
1E
7F
62
C0
C0
C0
C0
C0
61
7F
1E
ENDCHAR
STARTCHAR 0422
ENCODING 1058
SWIDTH 540 0
DWIDTH 9 0
BBX 9 11 0 0
BITMAP
FF80
FF80
0C00
0C00
0C00
0C00
0C00
0C00
0C00
0C00
0C00
ENDCHAR
STARTCHAR 0423
ENCODING 1059
SWIDTH 540 0
DWIDTH 9 0
BBX 9 11 0 0
BITMAP
C180
6180
6300
3300
3600
1600
1C00
1C00
0C00
7800
7000
ENDCHAR
STARTCHAR 0424
ENCODING 1060
SWIDTH 780 0
DWIDTH 13 0
BBX 11 11 1 0
BITMAP
0400
3F80
7FC0
E4E0
C460
C460
C460
E4E0
7FC0
3F80
0400
ENDCHAR
STARTCHAR 0425
ENCODING 1061
SWIDTH 540 0
DWIDTH 9 0
BBX 9 11 0 0
BITMAP
E380
6300
3600
3600
1C00
1C00
1C00
3600
3700
6300
E180
ENDCHAR
STARTCHAR 0426
ENCODING 1062
SWIDTH 660 0
DWIDTH 11 0
BBX 10 14 1 -3
BITMAP
C180
C180
C180
C180
C180
C180
C180
C180
C180
FFC0
FFC0
00C0
00C0
00C0
ENDCHAR
STARTCHAR 0427
ENCODING 1063
SWIDTH 600 0
DWIDTH 10 0
BBX 8 11 1 0
BITMAP
C3
C3
C3
C3
E3
7F
3F
03
03
03
03
ENDCHAR
STARTCHAR 0428
ENCODING 1064
SWIDTH 900 0
DWIDTH 15 0
BBX 13 11 1 0
BITMAP
C318
C318
C318
C318
C318
C318
C318
C318
C318
FFF8
FFF8
ENDCHAR
STARTCHAR 0429
ENCODING 1065
SWIDTH 900 0
DWIDTH 15 0
BBX 14 14 1 -3
BITMAP
C318
C318
C318
C318
C318
C318
C318
C318
C318
FFFC
FFFC
000C
000C
000C
ENDCHAR
STARTCHAR 042A
ENCODING 1066
SWIDTH 720 0
DWIDTH 12 0
BBX 12 11 0 0
BITMAP
FC00
FC00
0C00
0C00
0FC0
0FE0
0C70
0C30
0C70
0FE0
0FC0
ENDCHAR
STARTCHAR 042B
ENCODING 1067
SWIDTH 840 0
DWIDTH 14 0
BBX 12 11 1 0
BITMAP
C030
C030
C030
C030
FC30
FF30
C330
C330
C330
FE30
FC30
ENDCHAR
STARTCHAR 042C
ENCODING 1068
SWIDTH 600 0
DWIDTH 10 0
BBX 8 11 1 0
BITMAP
C0
C0
C0
C0
FE
FF
C3
C3
C3
FF
FE
ENDCHAR
STARTCHAR 042D
ENCODING 1069
SWIDTH 600 0
DWIDTH 10 0
BBX 9 11 0 0
BITMAP
3C00
7F00
4300
0180
1F80
1F80
0180
0180
4300
FF00
3C00
ENDCHAR
STARTCHAR 042E
ENCODING 1070
SWIDTH 960 0
DWIDTH 16 0
BBX 14 11 1 0
BITMAP
C1E0
C3F8
C718
C60C
FE0C
FE0C
C60C
C60C
C718
C3F8
C1E0
ENDCHAR
STARTCHAR 042F
ENCODING 1071
SWIDTH 600 0
DWIDTH 10 0
BBX 9 11 0 0
BITMAP
1F80
7F80
6180
6180
6180
3F80
1F80
1980
3180
7180
E180
ENDCHAR
STARTCHAR 0430
ENCODING 1072
SWIDTH 540 0
DWIDTH 9 0
BBX 7 8 1 0
BITMAP
78
FC
86
3E
C6
CE
FE
76
ENDCHAR
STARTCHAR 0431
ENCODING 1073
SWIDTH 540 0
DWIDTH 9 0
BBX 8 12 1 0
BITMAP
1E
7E
60
C0
DC
FE
E6
C3
C3
C6
7E
3C
ENDCHAR
STARTCHAR 0432
ENCODING 1074
SWIDTH 540 0
DWIDTH 9 0
BBX 7 8 1 0
BITMAP
FC
FE
C6
FC
FE
C6
FE
FC
ENDCHAR
STARTCHAR 0433
ENCODING 1075
SWIDTH 420 0
DWIDTH 7 0
BBX 6 8 1 0
BITMAP
FC
FC
C0
C0
C0
C0
C0
C0
ENDCHAR
STARTCHAR 0434
ENCODING 1076
SWIDTH 540 0
DWIDTH 9 0
BBX 9 10 0 -2
BITMAP
3F00
3F00
3300
3300
2300
6300
FF80
FF80
C180
C180
ENDCHAR
STARTCHAR 0435
ENCODING 1077
SWIDTH 540 0
DWIDTH 9 0
BBX 7 8 1 0
BITMAP
3C
FE
C6
FE
C0
C4
FE
3C
ENDCHAR
STARTCHAR 0436
ENCODING 1078
SWIDTH 720 0
DWIDTH 12 0
BBX 12 8 0 0
BITMAP
E630
6670
36C0
1FC0
3FC0
36C0
6660
E630
ENDCHAR
STARTCHAR 0437
ENCODING 1079
SWIDTH 480 0
DWIDTH 8 0
BBX 6 8 1 0
BITMAP
78
FC
8C
78
7C
8C
FC
78
ENDCHAR
STARTCHAR 0438
ENCODING 1080
SWIDTH 600 0
DWIDTH 10 0
BBX 8 8 1 0
BITMAP
C7
C7
CF
DB
D3
F3
E3
C3
ENDCHAR
STARTCHAR 0439
ENCODING 1081
SWIDTH 600 0
DWIDTH 10 0
BBX 8 13 1 0
BITMAP
66
64
3C
00
00
C7
C7
CF
DB
D3
F3
E3
C3
ENDCHAR
STARTCHAR 043A
ENCODING 1082
SWIDTH 540 0
DWIDTH 9 0
BBX 8 8 1 0
BITMAP
C6
CE
CC
F8
F8
CC
C6
C7
ENDCHAR
STARTCHAR 043B
ENCODING 1083
SWIDTH 540 0
DWIDTH 9 0
BBX 8 8 0 0
BITMAP
3F
3F
33
33
33
33
E3
E3
ENDCHAR
STARTCHAR 043C
ENCODING 1084
SWIDTH 660 0
DWIDTH 11 0
BBX 9 8 1 0
BITMAP
E380
E380
F380
F780
D580
DD80
C980
C180
ENDCHAR
STARTCHAR 043D
ENCODING 1085
SWIDTH 600 0
DWIDTH 10 0
BBX 7 8 1 0
BITMAP
C2
C2
C2
FE
FE
C2
C2
C2
ENDCHAR
STARTCHAR 043E
ENCODING 1086
SWIDTH 540 0
DWIDTH 9 0
BBX 8 8 1 0
BITMAP
3C
FE
C6
C3
C3
C6
FE
3C
ENDCHAR
STARTCHAR 043F
ENCODING 1087
SWIDTH 600 0
DWIDTH 10 0
BBX 7 8 1 0
BITMAP
FE
FE
C6
C6
C6
C6
C6
C6
ENDCHAR
STARTCHAR 0440
ENCODING 1088
SWIDTH 600 0
DWIDTH 10 0
BBX 8 11 1 -3
BITMAP
DC
FE
E7
C3
C3
E7
FE
DC
C0
C0
C0
ENDCHAR
STARTCHAR 0441
ENCODING 1089
SWIDTH 480 0
DWIDTH 8 0
BBX 6 8 1 0
BITMAP
3C
7C
C8
C0
C0
C4
FC
38
ENDCHAR
STARTCHAR 0442
ENCODING 1090
SWIDTH 480 0
DWIDTH 8 0
BBX 8 8 0 0
BITMAP
FF
FF
18
18
18
18
18
18
ENDCHAR
STARTCHAR 0443
ENCODING 1091
SWIDTH 480 0
DWIDTH 8 0
BBX 8 11 0 -3
BITMAP
C3
63
62
36
36
14
1C
18
18
78
70
ENDCHAR
STARTCHAR 0444
ENCODING 1092
SWIDTH 780 0
DWIDTH 13 0
BBX 11 15 1 -3
BITMAP
0C00
0C00
0C00
0C00
7FC0
FFE0
C460
C460
C460
C460
FFC0
7FC0
0C00
0C00
0C00
ENDCHAR
STARTCHAR 0445
ENCODING 1093
SWIDTH 480 0
DWIDTH 8 0
BBX 8 8 0 0
BITMAP
E7
66
3C
1C
3C
3C
66
E3
ENDCHAR
STARTCHAR 0446
ENCODING 1094
SWIDTH 600 0
DWIDTH 10 0
BBX 9 10 1 -2
BITMAP
C600
C600
C600
C600
C600
C600
FF80
FF00
0100
0100
ENDCHAR
STARTCHAR 0447
ENCODING 1095
SWIDTH 540 0
DWIDTH 9 0
BBX 7 8 1 0
BITMAP
C6
C6
C6
FE
7E
06
06
06
ENDCHAR
STARTCHAR 0448
ENCODING 1096
SWIDTH 780 0
DWIDTH 13 0
BBX 11 8 1 0
BITMAP
C660
C660
C660
C660
C660
C660
FFE0
FFE0
ENDCHAR
STARTCHAR 0449
ENCODING 1097
SWIDTH 840 0
DWIDTH 14 0
BBX 12 10 1 -2
BITMAP
C660
C660
C660
C660
C660
C660
FFF0
FFF0
0030
0030
ENDCHAR
STARTCHAR 044A
ENCODING 1098
SWIDTH 600 0
DWIDTH 10 0
BBX 10 8 0 0
BITMAP
F800
F800
1F00
1F80
18C0
18C0
1F80
1F00
ENDCHAR
STARTCHAR 044B
ENCODING 1099
SWIDTH 720 0
DWIDTH 12 0
BBX 10 8 1 0
BITMAP
C0C0
C0C0
F8C0
FCC0
C6C0
CEC0
FCC0
F8C0
ENDCHAR
STARTCHAR 044C
ENCODING 1100
SWIDTH 540 0
DWIDTH 9 0
BBX 7 8 1 0
BITMAP
C0
C0
FC
FE
C6
C6
FE
FC
ENDCHAR
STARTCHAR 044D
ENCODING 1101
SWIDTH 480 0
DWIDTH 8 0
BBX 7 8 0 0
BITMAP
78
7C
46
3E
3E
86
FC
78
ENDCHAR
STARTCHAR 044E
ENCODING 1102
SWIDTH 780 0
DWIDTH 13 0
BBX 11 8 1 0
BITMAP
C780
CFC0
CC60
FC60
FC60
CC60
CFC0
C780
ENDCHAR
STARTCHAR 044F
ENCODING 1103
SWIDTH 540 0
DWIDTH 9 0
BBX 8 8 0 0
BITMAP
3F
7F
63
7F
1F
33
73
E3
ENDCHAR
STARTCHAR 0450
ENCODING 1104
SWIDTH 540 0
DWIDTH 9 0
BBX 7 14 1 0
BITMAP
40
60
30
18
00
00
3C
FE
C6
FE
C0
C4
FE
3C
ENDCHAR
STARTCHAR 0451
ENCODING 1105
SWIDTH 540 0
DWIDTH 9 0
BBX 7 12 1 0
BITMAP
6C
6C
00
00
3C
FE
C6
FE
C0
C4
FE
3C
ENDCHAR
STARTCHAR 0452
ENCODING 1106
SWIDTH 600 0
DWIDTH 10 0
BBX 9 15 0 -3
BITMAP
6000
FC00
6000
6000
6E00
7F00
7380
6180
6180
6180
6180
6380
0300
0F00
0E00
ENDCHAR
STARTCHAR 0453
ENCODING 1107
SWIDTH 420 0
DWIDTH 7 0
BBX 6 14 1 0
BITMAP
08
1C
18
30
00
00
FC
FC
C0
C0
C0
C0
C0
C0
ENDCHAR
STARTCHAR 0454
ENCODING 1108
SWIDTH 480 0
DWIDTH 8 0
BBX 6 8 1 0
BITMAP
38
FC
C4
F8
F8
C4
FC
38
ENDCHAR
STARTCHAR 0455
ENCODING 1109
SWIDTH 420 0
DWIDTH 7 0
BBX 7 8 0 0
BITMAP
3C
7E
64
78
1C
46
FE
3C
ENDCHAR
STARTCHAR 0456
ENCODING 1110
SWIDTH 240 0
DWIDTH 4 0
BBX 2 11 1 0
BITMAP
C0
C0
00
C0
C0
C0
C0
C0
C0
C0
C0
ENDCHAR
STARTCHAR 0457
ENCODING 1111
SWIDTH 240 0
DWIDTH 4 0
BBX 6 12 -1 0
BITMAP
4C
EC
00
00
30
30
30
30
30
30
30
30
ENDCHAR
STARTCHAR 0458
ENCODING 1112
SWIDTH 240 0
DWIDTH 4 0
BBX 4 14 -1 -3
BITMAP
30
30
00
30
30
30
30
30
30
30
30
30
F0
E0
ENDCHAR
STARTCHAR 0459
ENCODING 1113
SWIDTH 780 0
DWIDTH 13 0
BBX 12 8 0 0
BITMAP
3F00
3F00
33E0
33F0
3330
3330
E3F0
E3E0
ENDCHAR
STARTCHAR 045A
ENCODING 1114
SWIDTH 780 0
DWIDTH 13 0
BBX 12 8 1 0
BITMAP
C600
C600
C7C0
FFE0
FE60
C670
C7E0
C7C0
ENDCHAR
STARTCHAR 045B
ENCODING 1115
SWIDTH 540 0
DWIDTH 9 0
BBX 8 12 0 0
BITMAP
60
FC
60
60
6F
7F
73
63
63
63
63
63
ENDCHAR
STARTCHAR 045C
ENCODING 1116
SWIDTH 540 0
DWIDTH 9 0
BBX 8 14 1 0
BITMAP
04
0E
18
10
00
00
C6
CE
CC
F8
F8
CC
C6
C7
ENDCHAR
STARTCHAR 045D
ENCODING 1117
SWIDTH 600 0
DWIDTH 10 0
BBX 8 14 1 0
BITMAP
20
70
38
10
00
00
C7
C7
CF
DB
D3
F3
E3
C3
ENDCHAR
STARTCHAR 045E
ENCODING 1118
SWIDTH 480 0
DWIDTH 8 0
BBX 8 16 0 -3
BITMAP
22
26
1C
00
00
C3
63
62
36
36
14
1C
18
18
78
70
ENDCHAR
STARTCHAR 045F
ENCODING 1119
SWIDTH 600 0
DWIDTH 10 0
BBX 7 10 1 -2
BITMAP
C6
C6
C6
C6
C6
C6
FE
FE
18
18
ENDCHAR
STARTCHAR 0462
ENCODING 1122
SWIDTH 660 0
DWIDTH 11 0
BBX 10 12 0 0
BITMAP
1800
1800
FF00
FF00
1800
1F00
1F80
18C0
18C0
18C0
1F80
1F00
ENDCHAR
STARTCHAR 0463
ENCODING 1123
SWIDTH 600 0
DWIDTH 10 0
BBX 9 11 0 0
BITMAP
1800
1800
FF00
FF00
1800
1F00
1F80
1980
1980
1F80
1F00
ENDCHAR
STARTCHAR 0472
ENCODING 1138
SWIDTH 660 0
DWIDTH 11 0
BBX 10 11 1 0
BITMAP
3E00
7F00
E180
C180
FFC0
FFC0
C0C0
C180
E380
7F00
3E00
ENDCHAR
STARTCHAR 0473
ENCODING 1139
SWIDTH 540 0
DWIDTH 9 0
BBX 8 8 1 0
BITMAP
3C
FE
FE
FF
C3
C6
FE
3C
ENDCHAR
STARTCHAR 0474
ENCODING 1140
SWIDTH 540 0
DWIDTH 9 0
BBX 10 11 0 0
BITMAP
C1C0
C1C0
6300
6300
6300
3200
3600
3600
1600
1C00
1C00
ENDCHAR
STARTCHAR 0475
ENCODING 1141
SWIDTH 540 0
DWIDTH 9 0
BBX 9 8 0 0
BITMAP
C380
6380
6600
6600
3600
3400
1C00
1C00
ENDCHAR
STARTCHAR 0490
ENCODING 1168
SWIDTH 540 0
DWIDTH 9 0
BBX 7 15 1 0
BITMAP
02
06
06
06
FE
FE
C0
C0
C0
C0
C0
C0
C0
C0
C0
ENDCHAR
STARTCHAR 0491
ENCODING 1169
SWIDTH 420 0
DWIDTH 7 0
BBX 6 11 1 0
BITMAP
0C
0C
0C
FC
FC
C0
C0
C0
C0
C0
C0
ENDCHAR
STARTCHAR 0492
ENCODING 1170
SWIDTH 540 0
DWIDTH 9 0
BBX 8 11 1 0
BITMAP
7F
7F
60
60
F8
F8
60
60
60
60
60
ENDCHAR
STARTCHAR 0493
ENCODING 1171
SWIDTH 480 0
DWIDTH 8 0
BBX 7 8 0 0
BITMAP
3E
3E
30
FC
FC
30
30
30
ENDCHAR
STARTCHAR 0496
ENCODING 1174
SWIDTH 900 0
DWIDTH 15 0
BBX 15 14 0 -3
BITMAP
E30C
F31C
3330
1B30
1FE0
1FE0
3B30
3330
7318
631E
C30E
0006
0004
0004
ENDCHAR
STARTCHAR 0497
ENCODING 1175
SWIDTH 780 0
DWIDTH 13 0
BBX 13 10 0 -2
BITMAP
E630
6670
36C0
1FC0
3FC0
36E0
6678
E638
0018
0018
ENDCHAR
STARTCHAR 0498
ENCODING 1176
SWIDTH 600 0
DWIDTH 10 0
BBX 8 14 1 -3
BITMAP
7C
FE
46
06
3C
3E
03
03
C7
FE
7C
18
18
18
ENDCHAR
STARTCHAR 0499
ENCODING 1177
SWIDTH 480 0
DWIDTH 8 0
BBX 6 10 1 -2
BITMAP
78
FC
8C
78
7C
8C
FC
78
30
30
ENDCHAR
STARTCHAR 049A
ENCODING 1178
SWIDTH 660 0
DWIDTH 11 0
BBX 10 14 1 -3
BITMAP
C180
C380
C600
CC00
FC00
FC00
CE00
C600
C300
C3C0
C1C0
00C0
00C0
00C0
ENDCHAR
STARTCHAR 049B
ENCODING 1179
SWIDTH 600 0
DWIDTH 10 0
BBX 8 12 1 -3
BITMAP
06
CE
CC
C8
F8
FC
CC
C7
C7
03
03
03
ENDCHAR
STARTCHAR 04A0
ENCODING 1184
SWIDTH 720 0
DWIDTH 12 0
BBX 12 11 0 0
BITMAP
FC30
FC70
0CC0
0CC0
0F80
0F80
0CC0
0CC0
0C60
0C70
0C30
ENDCHAR
STARTCHAR 04A1
ENCODING 1185
SWIDTH 660 0
DWIDTH 11 0
BBX 11 8 0 0
BITMAP
F8C0
F9C0
1980
1F00
1F00
1980
19C0
18E0
ENDCHAR
STARTCHAR 04A2
ENCODING 1186
SWIDTH 660 0
DWIDTH 11 0
BBX 10 14 1 -3
BITMAP
C180
C180
C180
C180
FF80
FF80
C180
C180
C180
C1C0
C1C0
00C0
00C0
00C0
ENDCHAR
STARTCHAR 04A3
ENCODING 1187
SWIDTH 600 0
DWIDTH 10 0
BBX 9 10 1 -2
BITMAP
C300
C300
C300
FF00
FF00
C300
C380
C380
0180
0180
ENDCHAR
STARTCHAR 04AA
ENCODING 1194
SWIDTH 600 0
DWIDTH 10 0
BBX 8 14 1 -3
BITMAP
1E
7F
62
C0
C0
C0
C0
C0
E1
7F
3E
0C
0C
0C
ENDCHAR
STARTCHAR 04AB
ENCODING 1195
SWIDTH 480 0
DWIDTH 8 0
BBX 6 10 1 -2
BITMAP
3C
7C
C8
C0
C0
C4
FC
7C
18
10
ENDCHAR
STARTCHAR 04AE
ENCODING 1198
SWIDTH 540 0
DWIDTH 9 0
BBX 9 11 0 0
BITMAP
C380
6300
6600
3600
3400
1C00
1800
1800
1800
1800
1800
ENDCHAR
STARTCHAR 04AF
ENCODING 1199
SWIDTH 480 0
DWIDTH 8 0
BBX 8 11 0 -3
BITMAP
C3
63
66
26
36
34
1C
18
18
18
18
ENDCHAR
STARTCHAR 04B0
ENCODING 1200
SWIDTH 540 0
DWIDTH 9 0
BBX 9 11 0 0
BITMAP
C380
6300
6600
3600
3400
1C00
7F00
7F00
1800
1800
1800
ENDCHAR
STARTCHAR 04B1
ENCODING 1201
SWIDTH 480 0
DWIDTH 8 0
BBX 8 11 0 -3
BITMAP
C3
63
66
26
36
34
1C
7F
18
18
18
ENDCHAR
STARTCHAR 04B2
ENCODING 1202
SWIDTH 600 0
DWIDTH 10 0
BBX 10 14 0 -3
BITMAP
E380
6300
3600
3600
1C00
1C00
1C00
3600
3700
63C0
E1C0
0080
0080
0080
ENDCHAR
STARTCHAR 04B3
ENCODING 1203
SWIDTH 540 0
DWIDTH 9 0
BBX 9 10 0 -2
BITMAP
E700
6600
3C00
1C00
3C00
3E00
6780
6300
8100
0100
ENDCHAR
STARTCHAR 04B6
ENCODING 1206
SWIDTH 660 0
DWIDTH 11 0
BBX 9 14 1 -3
BITMAP
C300
C300
C300
C300
E300
7F00
3F00
0300
0300
0380
0380
0180
0180
0180
ENDCHAR
STARTCHAR 04B7
ENCODING 1207
SWIDTH 540 0
DWIDTH 9 0
BBX 8 11 1 -3
BITMAP
C6
C6
C6
FE
7E
06
07
07
03
03
03
ENDCHAR
STARTCHAR 04BA
ENCODING 1210
SWIDTH 600 0
DWIDTH 10 0
BBX 8 11 1 0
BITMAP
C0
C0
C0
C0
FE
FF
C3
C3
C3
C3
C3
ENDCHAR
STARTCHAR 04BB
ENCODING 1211
SWIDTH 540 0
DWIDTH 9 0
BBX 7 12 1 0
BITMAP
C0
C0
C0
C0
DC
FE
E6
C6
C6
C6
C6
C6
ENDCHAR
STARTCHAR 04C0
ENCODING 1216
SWIDTH 300 0
DWIDTH 5 0
BBX 2 11 1 0
BITMAP
C0
C0
C0
C0
C0
C0
C0
C0
C0
C0
C0
ENDCHAR
STARTCHAR 04C1
ENCODING 1217
SWIDTH 840 0
DWIDTH 14 0
BBX 14 14 0 0
BITMAP
0CC0
0780
0000
E30C
F31C
3330
1B30
1FE0
1FE0
3B30
3330
7318
6318
C30C
ENDCHAR
STARTCHAR 04C2
ENCODING 1218
SWIDTH 720 0
DWIDTH 12 0
BBX 12 13 0 0
BITMAP
1980
0980
0F00
0000
0000
E630
6670
36C0
1FC0
3FC0
36C0
6660
E630
ENDCHAR
STARTCHAR 04CF
ENCODING 1231
SWIDTH 300 0
DWIDTH 5 0
BBX 3 12 1 0
BITMAP
C0
C0
C0
C0
C0
C0
C0
C0
C0
C0
E0
60
ENDCHAR
STARTCHAR 04D0
ENCODING 1232
SWIDTH 540 0
DWIDTH 9 0
BBX 10 14 0 0
BITMAP
3300
1E00
0000
1C00
1C00
1600
3600
3200
2300
7F00
7F00
6180
C180
C1C0
ENDCHAR
STARTCHAR 04D1
ENCODING 1233
SWIDTH 540 0
DWIDTH 9 0
BBX 7 13 1 0
BITMAP
44
64
38
00
00
78
FC
86
3E
C6
CE
FE
76
ENDCHAR
STARTCHAR 04D4
ENCODING 1236
SWIDTH 840 0
DWIDTH 14 0
BBX 13 11 0 0
BITMAP
07F8
07F8
0D80
0D80
19F0
11F0
3F80
3F80
6180
61F8
C1F8
ENDCHAR
STARTCHAR 04D5
ENCODING 1237
SWIDTH 780 0
DWIDTH 13 0
BBX 12 8 1 0
BITMAP
39C0
FFE0
8630
3FF0
C600
CE20
FFE0
71C0
ENDCHAR
STARTCHAR 04D6
ENCODING 1238
SWIDTH 540 0
DWIDTH 9 0
BBX 7 14 1 0
BITMAP
66
3C
00
FE
FE
C0
C0
FC
FC
C0
C0
C0
FE
FE
ENDCHAR
STARTCHAR 04D7
ENCODING 1239
SWIDTH 540 0
DWIDTH 9 0
BBX 7 13 1 0
BITMAP
44
6C
38
00
00
3C
FE
C6
FE
C0
C4
FE
3C
ENDCHAR
STARTCHAR 04D8
ENCODING 1240
SWIDTH 660 0
DWIDTH 11 0
BBX 10 11 1 0
BITMAP
3E00
7F00
2380
0180
0180
FFC0
FF80
C180
E180
7F00
3E00
ENDCHAR
STARTCHAR 04D9
ENCODING 1241
SWIDTH 540 0
DWIDTH 9 0
BBX 7 8 1 0
BITMAP
78
FC
86
FE
86
CE
FC
78
ENDCHAR
STARTCHAR 04E2
ENCODING 1250
SWIDTH 660 0
DWIDTH 11 0
BBX 9 13 1 0
BITMAP
3E00
0000
C180
C380
C780
C780
CD80
CD80
D980
D180
F180
E180
E180
ENDCHAR
STARTCHAR 04E3
ENCODING 1251
SWIDTH 600 0
DWIDTH 10 0
BBX 8 11 1 0
BITMAP
3C
00
00
C7
C7
CF
DB
D3
F3
E3
C3
ENDCHAR
STARTCHAR 04E6
ENCODING 1254
SWIDTH 660 0
DWIDTH 11 0
BBX 10 14 1 0
BITMAP
3200
3300
0000
3E00
7F00
E380
C180
C0C0
C0C0
C0C0
C180
E380
7F00
3E00
ENDCHAR
STARTCHAR 04E7
ENCODING 1255
SWIDTH 540 0
DWIDTH 9 0
BBX 8 12 1 0
BITMAP
64
6C
00
00
3C
FE
C6
C3
C3
C6
FE
3C
ENDCHAR
STARTCHAR 04E8
ENCODING 1256
SWIDTH 660 0
DWIDTH 11 0
BBX 10 11 1 0
BITMAP
3E00
7F00
E180
C180
FFC0
FFC0
C0C0
C180
E380
7F00
3E00
ENDCHAR
STARTCHAR 04E9
ENCODING 1257
SWIDTH 540 0
DWIDTH 9 0
BBX 8 8 1 0
BITMAP
3C
FE
FE
FF
C3
C6
FE
3C
ENDCHAR
STARTCHAR 04EE
ENCODING 1262
SWIDTH 540 0
DWIDTH 9 0
BBX 9 13 0 0
BITMAP
3E00
0000
C180
6180
6300
3300
3600
1600
1C00
1C00
0C00
7800
7000
ENDCHAR
STARTCHAR 04EF
ENCODING 1263
SWIDTH 480 0
DWIDTH 8 0
BBX 8 14 0 -3
BITMAP
3E
00
00
C3
63
62
36
36
14
1C
18
18
78
70
ENDCHAR
STARTCHAR 04F2
ENCODING 1266
SWIDTH 540 0
DWIDTH 9 0
BBX 9 15 0 0
BITMAP
0900
1B00
1200
0000
C180
6180
6300
3300
3600
1600
1C00
1C00
0C00
7800
7000
ENDCHAR
STARTCHAR 04F3
ENCODING 1267
SWIDTH 480 0
DWIDTH 8 0
BBX 8 16 0 -3
BITMAP
0B
1A
36
00
00
C3
63
62
36
36
14
1C
18
18
78
70
ENDCHAR
STARTCHAR 1D43
ENCODING 7491
SWIDTH 360 0
DWIDTH 6 0
BBX 4 6 1 6
BITMAP
F0
90
70
90
90
F0
ENDCHAR
STARTCHAR 1D47
ENCODING 7495
SWIDTH 360 0
DWIDTH 6 0
BBX 5 8 1 6
BITMAP
80
80
F0
98
98
98
98
F0
ENDCHAR
STARTCHAR 1D48
ENCODING 7496
SWIDTH 360 0
DWIDTH 6 0
BBX 5 8 1 6
BITMAP
18
18
78
98
98
98
98
F8
ENDCHAR
STARTCHAR 1D49
ENCODING 7497
SWIDTH 360 0
DWIDTH 6 0
BBX 5 6 0 6
BITMAP
38
48
F8
C0
40
38
ENDCHAR
STARTCHAR 1D4D
ENCODING 7501
SWIDTH 360 0
DWIDTH 6 0
BBX 6 8 0 4
BITMAP
7C
48
48
70
40
7C
CC
78
ENDCHAR
STARTCHAR 1D4F
ENCODING 7503
SWIDTH 360 0
DWIDTH 6 0
BBX 5 7 1 7
BITMAP
80
80
98
A0
E0
B0
98
ENDCHAR
STARTCHAR 1D50
ENCODING 7504
SWIDTH 600 0
DWIDTH 10 0
BBX 8 5 1 7
BITMAP
F6
9B
99
99
99
ENDCHAR
STARTCHAR 1D52
ENCODING 7506
SWIDTH 360 0
DWIDTH 6 0
BBX 6 6 0 6
BITMAP
38
48
CC
CC
48
38
ENDCHAR
STARTCHAR 1D56
ENCODING 7510
SWIDTH 360 0
DWIDTH 6 0
BBX 5 8 1 4
BITMAP
F0
98
98
98
98
F0
80
80
ENDCHAR
STARTCHAR 1D57
ENCODING 7511
SWIDTH 240 0
DWIDTH 4 0
BBX 4 8 0 6
BITMAP
40
40
F0
40
40
40
60
30
ENDCHAR
STARTCHAR 1D58
ENCODING 7512
SWIDTH 360 0
DWIDTH 6 0
BBX 5 6 1 6
BITMAP
98
98
98
98
98
F8
ENDCHAR
STARTCHAR 1D5B
ENCODING 7515
SWIDTH 360 0
DWIDTH 6 0
BBX 6 5 0 7
BITMAP
CC
48
58
70
30
ENDCHAR
STARTCHAR 1D9C
ENCODING 7580
SWIDTH 300 0
DWIDTH 5 0
BBX 5 6 0 6
BITMAP
38
40
C0
C0
40
38
ENDCHAR
STARTCHAR 1DA0
ENCODING 7584
SWIDTH 240 0
DWIDTH 4 0
BBX 4 8 0 7
BITMAP
30
60
40
F0
40
40
40
40
ENDCHAR
STARTCHAR 1DBB
ENCODING 7611
SWIDTH 300 0
DWIDTH 5 0
BBX 5 5 0 7
BITMAP
78
10
20
60
F8
ENDCHAR
STARTCHAR 1E06
ENCODING 7686
SWIDTH 600 0
DWIDTH 10 0
BBX 9 14 1 -3
BITMAP
FE00
FF00
C300
C300
FE00
FE00
C300
C180
C300
FF00
FE00
0000
0000
3E00
ENDCHAR
STARTCHAR 1E07
ENCODING 7687
SWIDTH 600 0
DWIDTH 10 0
BBX 8 15 1 -3
BITMAP
C0
C0
C0
C0
DC
FE
E7
C3
C3
E7
FE
DC
00
00
3C
ENDCHAR
STARTCHAR 1E0C
ENCODING 7692
SWIDTH 660 0
DWIDTH 11 0
BBX 9 14 1 -3
BITMAP
FC00
FF00
C700
C380
C180
C180
C180
C380
C700
FE00
FC00
0000
1800
1800
ENDCHAR
STARTCHAR 1E0D
ENCODING 7693
SWIDTH 600 0
DWIDTH 10 0
BBX 7 15 1 -3
BITMAP
06
06
06
06
3E
FE
C6
C6
C6
C6
FE
7A
00
18
18
ENDCHAR
STARTCHAR 1E0E
ENCODING 7694
SWIDTH 660 0
DWIDTH 11 0
BBX 9 14 1 -3
BITMAP
FC00
FF00
C700
C380
C180
C180
C180
C380
C700
FE00
FC00
0000
0000
3E00
ENDCHAR
STARTCHAR 1E0F
ENCODING 7695
SWIDTH 600 0
DWIDTH 10 0
BBX 7 15 1 -3
BITMAP
06
06
06
06
3E
FE
C6
C6
C6
C6
FE
7A
00
00
3E
ENDCHAR
STARTCHAR 1E16
ENCODING 7702
SWIDTH 1020 0
DWIDTH 17 0
BBX 10 11 4 -1
BITMAP
3C00
7000
F000
F000
F000
F000
F000
F800
7FC0
3F80
1E00
ENDCHAR
STARTCHAR 1E17
ENCODING 7703
SWIDTH 540 0
DWIDTH 9 0
BBX 7 15 1 0
BITMAP
08
1C
30
00
7C
00
00
3C
FE
C6
FE
C0
C4
FE
3C
ENDCHAR
STARTCHAR 1E20
ENCODING 7712
SWIDTH 660 0
DWIDTH 11 0
BBX 9 13 1 0
BITMAP
1F00
0000
1E00
7F00
6100
C000
C000
C780
C780
C180
6180
7F80
1E00
ENDCHAR
STARTCHAR 1E21
ENCODING 7713
SWIDTH 540 0
DWIDTH 9 0
BBX 8 14 1 -3
BITMAP
7C
00
00
7E
FE
C4
7C
78
C0
FE
7F
83
FE
7C
ENDCHAR
STARTCHAR 1E24
ENCODING 7716
SWIDTH 660 0
DWIDTH 11 0
BBX 9 14 1 -3
BITMAP
C180
C180
C180
C180
FF80
FF80
C180
C180
C180
C180
C180
0000
0C00
1C00
ENDCHAR
STARTCHAR 1E25
ENCODING 7717
SWIDTH 540 0
DWIDTH 9 0
BBX 7 15 1 -3
BITMAP
C0
C0
C0
C0
DC
FE
E6
C6
C6
C6
C6
C6
00
18
18
ENDCHAR
STARTCHAR 1E2A
ENCODING 7722
SWIDTH 660 0
DWIDTH 11 0
BBX 9 15 1 -4
BITMAP
C180
C180
C180
C180
FF80
FF80
C180
C180
C180
C180
C180
0000
2200
3200
1C00
ENDCHAR
STARTCHAR 1E2B
ENCODING 7723
SWIDTH 540 0
DWIDTH 9 0
BBX 7 16 1 -4
BITMAP
C0
C0
C0
C0
DC
FE
E6
C6
C6
C6
C6
C6
00
46
64
3C
ENDCHAR
STARTCHAR 1E32
ENCODING 7730
SWIDTH 600 0
DWIDTH 10 0
BBX 9 14 1 -3
BITMAP
C380
C600
CE00
CC00
D800
FC00
EC00
E600
C300
C300
C180
0000
0C00
1C00
ENDCHAR
STARTCHAR 1E33
ENCODING 7731
SWIDTH 540 0
DWIDTH 9 0
BBX 8 15 1 -3
BITMAP
C0
C0
C0
C0
C6
CC
D8
F8
E8
CC
C6
C6
01
18
18
ENDCHAR
STARTCHAR 1E34
ENCODING 7732
SWIDTH 600 0
DWIDTH 10 0
BBX 9 14 1 -3
BITMAP
C380
C600
CE00
CC00
D800
FC00
EC00
E600
C300
C300
C180
0000
0000
3E00
ENDCHAR
STARTCHAR 1E35
ENCODING 7733
SWIDTH 540 0
DWIDTH 9 0
BBX 8 15 1 -3
BITMAP
C0
C0
C0
C0
C6
CC
D8
F8
E8
CC
C6
C6
01
00
7C
ENDCHAR
STARTCHAR 1E36
ENCODING 7734
SWIDTH 540 0
DWIDTH 9 0
BBX 7 14 1 -3
BITMAP
C0
C0
C0
C0
C0
C0
C0
C0
C0
FE
FE
00
18
18
ENDCHAR
STARTCHAR 1E37
ENCODING 7735
SWIDTH 300 0
DWIDTH 5 0
BBX 3 15 1 -3
BITMAP
C0
C0
C0
C0
C0
C0
C0
C0
C0
C0
E0
60
00
60
60
ENDCHAR
STARTCHAR 1E38
ENCODING 7736
SWIDTH 540 0
DWIDTH 9 0
BBX 8 16 0 -3
BITMAP
F8
00
60
60
60
60
60
60
60
60
60
7F
7F
00
0C
0C
ENDCHAR
STARTCHAR 1E39
ENCODING 7737
SWIDTH 300 0
DWIDTH 5 0
BBX 5 18 0 -3
BITMAP
F8
00
00
60
60
60
60
60
60
60
60
60
60
70
30
00
30
30
ENDCHAR
STARTCHAR 1E3A
ENCODING 7738
SWIDTH 540 0
DWIDTH 9 0
BBX 7 14 1 -3
BITMAP
C0
C0
C0
C0
C0
C0
C0
C0
C0
FE
FE
00
00
3C
ENDCHAR
STARTCHAR 1E3B
ENCODING 7739
SWIDTH 300 0
DWIDTH 5 0
BBX 4 15 1 -3
BITMAP
C0
C0
C0
C0
C0
C0
C0
C0
C0
C0
E0
60
00
00
F0
ENDCHAR
STARTCHAR 1E3E
ENCODING 7742
SWIDTH 780 0
DWIDTH 13 0
BBX 10 15 1 0
BITMAP
0200
0700
0C00
0000
E0C0
E1C0
F1C0
F140
D3C0
DBC0
DAC0
CEC0
CCC0
C4C0
C0C0
ENDCHAR
STARTCHAR 1E3F
ENCODING 7743
SWIDTH 840 0
DWIDTH 14 0
BBX 12 14 1 0
BITMAP
0100
0180
0300
0600
0000
0000
DCE0
FFF0
E730
C630
C630
C630
C630
C630
ENDCHAR
STARTCHAR 1E40
ENCODING 7744
SWIDTH 780 0
DWIDTH 13 0
BBX 10 14 1 0
BITMAP
0C00
0E00
0000
E0C0
E1C0
F1C0
F140
D3C0
DBC0
DAC0
CEC0
CCC0
C4C0
C0C0
ENDCHAR
STARTCHAR 1E41
ENCODING 7745
SWIDTH 840 0
DWIDTH 14 0
BBX 12 12 1 0
BITMAP
0600
0600
0000
0000
DCE0
FFF0
E730
C630
C630
C630
C630
C630
ENDCHAR
STARTCHAR 1E42
ENCODING 7746
SWIDTH 780 0
DWIDTH 13 0
BBX 10 14 1 -3
BITMAP
E0C0
E1C0
F1C0
F140
D3C0
DBC0
DAC0
CEC0
CCC0
C4C0
C0C0
0000
0C00
0E00
ENDCHAR
STARTCHAR 1E43
ENCODING 7747
SWIDTH 840 0
DWIDTH 14 0
BBX 12 11 1 -3
BITMAP
DCE0
FFF0
E730
C630
C630
C630
C630
C630
0000
0600
0700
ENDCHAR
STARTCHAR 1E44
ENCODING 7748
SWIDTH 660 0
DWIDTH 11 0
BBX 9 14 1 0
BITMAP
0C00
1C00
0000
E180
E180
F180
D180
D980
CD80
CD80
C780
C780
C380
C380
ENDCHAR
STARTCHAR 1E45
ENCODING 7749
SWIDTH 600 0
DWIDTH 10 0
BBX 7 12 1 0
BITMAP
18
18
00
00
DC
FE
E6
C6
C6
C6
C6
C6
ENDCHAR
STARTCHAR 1E46
ENCODING 7750
SWIDTH 660 0
DWIDTH 11 0
BBX 9 14 1 -3
BITMAP
E180
E180
F180
D180
D980
CD80
CD80
C780
C780
C380
C380
0000
0C00
0C00
ENDCHAR
STARTCHAR 1E47
ENCODING 7751
SWIDTH 600 0
DWIDTH 10 0
BBX 7 11 1 -3
BITMAP
DC
FE
E6
C6
C6
C6
C6
C6
00
18
18
ENDCHAR
STARTCHAR 1E48
ENCODING 7752
SWIDTH 660 0
DWIDTH 11 0
BBX 9 14 1 -3
BITMAP
E180
E180
F180
D180
D980
CD80
CD80
C780
C780
C380
C380
0000
0000
3E00
ENDCHAR
STARTCHAR 1E49
ENCODING 7753
SWIDTH 600 0
DWIDTH 10 0
BBX 7 11 1 -3
BITMAP
DC
FE
E6
C6
C6
C6
C6
C6
00
00
7C
ENDCHAR
STARTCHAR 1E52
ENCODING 7762
SWIDTH 660 0
DWIDTH 11 0
BBX 10 17 1 0
BITMAP
0400
0E00
0800
0000
3E00
0000
3E00
7F00
E380
C180
C0C0
C0C0
C0C0
C180
E380
7F00
3E00
ENDCHAR
STARTCHAR 1E53
ENCODING 7763
SWIDTH 540 0
DWIDTH 9 0
BBX 8 15 1 0
BITMAP
08
1C
30
00
7C
00
00
3C
FE
C6
C3
C3
C6
FE
3C
ENDCHAR
STARTCHAR 1E58
ENCODING 7768
SWIDTH 600 0
DWIDTH 10 0
BBX 9 14 1 0
BITMAP
1800
1800
0000
FE00
FF00
C300
C300
C300
FE00
FC00
CE00
C600
C300
C380
ENDCHAR
STARTCHAR 1E59
ENCODING 7769
SWIDTH 360 0
DWIDTH 6 0
BBX 5 12 1 0
BITMAP
30
30
00
00
D8
F8
E0
C0
C0
C0
C0
C0
ENDCHAR
STARTCHAR 1E5A
ENCODING 7770
SWIDTH 600 0
DWIDTH 10 0
BBX 9 14 1 -3
BITMAP
FE00
FF00
C300
C300
C300
FE00
FC00
CE00
C600
C300
C300
0080
1800
1C00
ENDCHAR
STARTCHAR 1E5B
ENCODING 7771
SWIDTH 360 0
DWIDTH 6 0
BBX 5 11 1 -3
BITMAP
D8
F8
E0
C0
C0
C0
C0
C0
00
C0
C0
ENDCHAR
STARTCHAR 1E5C
ENCODING 7772
SWIDTH 600 0
DWIDTH 10 0
BBX 9 16 1 -3
BITMAP
3E00
0000
FE00
FF00
C300
C300
C300
FE00
FC00
CE00
C600
C300
C300
0080
1800
1C00
ENDCHAR
STARTCHAR 1E5D
ENCODING 7773
SWIDTH 360 0
DWIDTH 6 0
BBX 5 14 1 -3
BITMAP
78
00
00
D8
F8
E0
C0
C0
C0
C0
C0
00
C0
C0
ENDCHAR
STARTCHAR 1E5E
ENCODING 7774
SWIDTH 600 0
DWIDTH 10 0
BBX 9 14 1 -3
BITMAP
FE00
FF00
C300
C300
C300
FE00
FC00
CE00
C600
C300
C300
0080
0000
3E00
ENDCHAR
STARTCHAR 1E5F
ENCODING 7775
SWIDTH 360 0
DWIDTH 6 0
BBX 6 11 0 -3
BITMAP
6C
7C
70
60
60
60
60
60
00
00
F8
ENDCHAR
STARTCHAR 1E60
ENCODING 7776
SWIDTH 540 0
DWIDTH 9 0
BBX 8 14 1 0
BITMAP
18
18
00
3C
7E
C2
C0
70
3C
0E
03
C7
FE
7C
ENDCHAR
STARTCHAR 1E61
ENCODING 7777
SWIDTH 420 0
DWIDTH 7 0
BBX 7 12 0 0
BITMAP
18
18
00
00
3C
7E
64
78
1C
46
FE
3C
ENDCHAR
STARTCHAR 1E62
ENCODING 7778
SWIDTH 540 0
DWIDTH 9 0
BBX 8 14 1 -3
BITMAP
3C
7E
C2
C0
70
3C
0E
03
C7
FE
7C
00
18
18
ENDCHAR
STARTCHAR 1E63
ENCODING 7779
SWIDTH 420 0
DWIDTH 7 0
BBX 7 11 0 -3
BITMAP
3C
7E
64
78
1C
46
FE
3C
00
18
18
ENDCHAR
STARTCHAR 1E6C
ENCODING 7788
SWIDTH 540 0
DWIDTH 9 0
BBX 9 14 0 -3
BITMAP
FF80
FF80
0C00
0C00
0C00
0C00
0C00
0C00
0C00
0C00
0C00
0000
0C00
1C00
ENDCHAR
STARTCHAR 1E6D
ENCODING 7789
SWIDTH 360 0
DWIDTH 6 0
BBX 6 14 0 -3
BITMAP
30
30
30
FC
FC
30
30
30
30
3C
3C
00
18
18
ENDCHAR
STARTCHAR 1E6E
ENCODING 7790
SWIDTH 540 0
DWIDTH 9 0
BBX 9 14 0 -3
BITMAP
FF80
FF80
0C00
0C00
0C00
0C00
0C00
0C00
0C00
0C00
0C00
0000
0000
3E00
ENDCHAR
STARTCHAR 1E6F
ENCODING 7791
SWIDTH 360 0
DWIDTH 6 0
BBX 6 14 0 -3
BITMAP
30
30
30
FC
FC
30
30
30
30
3C
3C
00
00
7C
ENDCHAR
STARTCHAR 1E80
ENCODING 7808
SWIDTH 840 0
DWIDTH 14 0
BBX 13 15 0 0
BITMAP
0400
0E00
0300
0000
C318
6318
6718
6798
6590
65B0
2CB0
3CB0
38F0
38E0
3860
ENDCHAR
STARTCHAR 1E81
ENCODING 7809
SWIDTH 780 0
DWIDTH 13 0
BBX 12 14 0 0
BITMAP
0800
0C00
0600
0200
0000
0000
C630
6730
6730
6520
2D60
3DE0
39E0
38C0
ENDCHAR
STARTCHAR 1E82
ENCODING 7810
SWIDTH 840 0
DWIDTH 14 0
BBX 13 15 0 0
BITMAP
0080
0380
0200
0000
C318
6318
6718
6798
6590
65B0
2CB0
3CB0
38F0
38E0
3860
ENDCHAR
STARTCHAR 1E83
ENCODING 7811
SWIDTH 780 0
DWIDTH 13 0
BBX 12 14 0 0
BITMAP
0100
0180
0300
0600
0000
0000
C630
6730
6730
6520
2D60
3DE0
39E0
38C0
ENDCHAR
STARTCHAR 1E84
ENCODING 7812
SWIDTH 840 0
DWIDTH 14 0
BBX 13 14 0 0
BITMAP
0CC0
0CC0
0000
C318
6318
6718
6798
6590
65B0
2CB0
3CB0
38F0
38E0
3860
ENDCHAR
STARTCHAR 1E85
ENCODING 7813
SWIDTH 780 0
DWIDTH 13 0
BBX 12 12 0 0
BITMAP
0D80
0D80
0000
0000
C630
6730
6730
6520
2D60
3DE0
39E0
38C0
ENDCHAR
STARTCHAR 1E8E
ENCODING 7822
SWIDTH 540 0
DWIDTH 9 0
BBX 9 14 0 0
BITMAP
1800
1800
0000
C380
6300
6600
3600
3400
1C00
1800
1800
1800
1800
1800
ENDCHAR
STARTCHAR 1E8F
ENCODING 7823
SWIDTH 480 0
DWIDTH 8 0
BBX 8 15 0 -3
BITMAP
18
18
00
00
C3
63
62
36
36
14
1C
18
18
78
70
ENDCHAR
STARTCHAR 1E92
ENCODING 7826
SWIDTH 540 0
DWIDTH 9 0
BBX 8 14 1 -3
BITMAP
FF
FF
06
0C
1C
38
30
60
C0
FF
FF
00
18
18
ENDCHAR
STARTCHAR 1E93
ENCODING 7827
SWIDTH 480 0
DWIDTH 8 0
BBX 6 11 1 -3
BITMAP
FC
FC
18
30
20
40
FC
FC
00
30
30
ENDCHAR
STARTCHAR 1E94
ENCODING 7828
SWIDTH 540 0
DWIDTH 9 0
BBX 8 14 1 -3
BITMAP
FF
FF
06
0C
1C
38
30
60
C0
FF
FF
00
00
7C
ENDCHAR
STARTCHAR 1E95
ENCODING 7829
SWIDTH 480 0
DWIDTH 8 0
BBX 6 11 1 -3
BITMAP
FC
FC
18
30
20
40
FC
FC
00
00
78
ENDCHAR
STARTCHAR 1E96
ENCODING 7830
SWIDTH 540 0
DWIDTH 9 0
BBX 7 15 1 -3
BITMAP
C0
C0
C0
C0
DC
FE
E6
C6
C6
C6
C6
C6
00
00
3C
ENDCHAR
STARTCHAR 1E97
ENCODING 7831
SWIDTH 360 0
DWIDTH 6 0
BBX 6 14 0 0
BITMAP
D8
D8
00
30
30
30
FC
FC
30
30
30
30
3C
3C
ENDCHAR
STARTCHAR 1E9E
ENCODING 7838
SWIDTH 720 0
DWIDTH 12 0
BBX 10 11 1 0
BITMAP
1E00
7F00
6180
6300
C600
C780
C1C0
C0C0
C8C0
DFC0
C780
ENDCHAR
STARTCHAR 1EA0
ENCODING 7840
SWIDTH 540 0
DWIDTH 9 0
BBX 10 14 0 -3
BITMAP
1C00
1C00
1600
3600
3200
2300
7F00
7F00
6180
C180
C180
0040
0C00
0C00
ENDCHAR
STARTCHAR 1EA1
ENCODING 7841
SWIDTH 540 0
DWIDTH 9 0
BBX 7 11 1 -3
BITMAP
78
FC
86
3E
C6
CE
FE
76
00
30
30
ENDCHAR
STARTCHAR 1EA2
ENCODING 7842
SWIDTH 540 0
DWIDTH 9 0
BBX 10 15 0 0
BITMAP
1C00
0400
0C00
0000
1C00
1C00
1600
3600
3200
2300
7F00
7F00
6180
C180
C1C0
ENDCHAR
STARTCHAR 1EA3
ENCODING 7843
SWIDTH 540 0
DWIDTH 9 0
BBX 7 13 1 0
BITMAP
38
08
18
00
00
78
FC
86
3E
C6
CE
FE
76
ENDCHAR
STARTCHAR 1EA4
ENCODING 7844
SWIDTH 540 0
DWIDTH 9 0
BBX 10 15 0 0
BITMAP
0180
1F00
3200
0000
1C00
1C00
1600
3600
3200
2300
7F00
7F00
6180
C180
C1C0
ENDCHAR
STARTCHAR 1EA5
ENCODING 7845
SWIDTH 540 0
DWIDTH 9 0
BBX 8 14 1 0
BITMAP
01
02
3E
2C
44
00
78
FC
86
3E
C6
CE
FE
76
ENDCHAR
STARTCHAR 1EA6
ENCODING 7846
SWIDTH 540 0
DWIDTH 9 0
BBX 10 15 0 0
BITMAP
4000
3C00
3200
0000
1C00
1C00
1600
3600
3200
2300
7F00
7F00
6180
C180
C1C0
ENDCHAR
STARTCHAR 1EA7
ENCODING 7847
SWIDTH 540 0
DWIDTH 9 0
BBX 8 14 0 0
BITMAP
80
40
7C
16
22
00
3C
7E
43
1F
63
67
7F
3B
ENDCHAR
STARTCHAR 1EA8
ENCODING 7848
SWIDTH 540 0
DWIDTH 9 0
BBX 10 16 0 0
BITMAP
0300
0180
1D00
3200
0000
1C00
1C00
1600
3600
3200
2300
7F00
7F00
6180
C180
C1C0
ENDCHAR
STARTCHAR 1EA9
ENCODING 7849
SWIDTH 540 0
DWIDTH 9 0
BBX 8 14 1 0
BITMAP
06
03
3A
2C
44
00
78
FC
86
3E
C6
CE
FE
76
ENDCHAR
STARTCHAR 1EAA
ENCODING 7850
SWIDTH 540 0
DWIDTH 9 0
BBX 10 17 0 0
BITMAP
1200
2E00
0000
1C00
3200
0000
1C00
1C00
1600
3600
3200
2300
7F00
7F00
6180
C180
C1C0
ENDCHAR
STARTCHAR 1EAB
ENCODING 7851
SWIDTH 540 0
DWIDTH 9 0
BBX 7 15 1 0
BITMAP
24
5C
00
38
2C
44
00
78
FC
86
3E
C6
CE
FE
76
ENDCHAR
STARTCHAR 1EAC
ENCODING 7852
SWIDTH 540 0
DWIDTH 9 0
BBX 10 17 0 -3
BITMAP
1C00
3200
0000
1C00
1C00
1600
3600
3200
2300
7F00
7F00
6180
C180
C180
0040
0C00
0C00
ENDCHAR
STARTCHAR 1EAD
ENCODING 7853
SWIDTH 540 0
DWIDTH 9 0
BBX 7 16 1 -3
BITMAP
38
6C
44
00
00
78
FC
86
3E
C6
CE
FE
76
00
30
30
ENDCHAR
STARTCHAR 1EAE
ENCODING 7854
SWIDTH 540 0
DWIDTH 9 0
BBX 10 17 0 0
BITMAP
0400
0E00
0800
2200
1E00
0000
1C00
1C00
1600
3600
3200
2300
7F00
7F00
6180
C180
C1C0
ENDCHAR
STARTCHAR 1EAF
ENCODING 7855
SWIDTH 540 0
DWIDTH 9 0
BBX 7 15 1 0
BITMAP
08
18
10
44
3C
00
00
78
FC
86
3E
C6
CE
FE
76
ENDCHAR
STARTCHAR 1EB0
ENCODING 7856
SWIDTH 540 0
DWIDTH 9 0
BBX 10 17 0 0
BITMAP
1000
1800
0C00
2200
1E00
0000
1C00
1C00
1600
3600
3200
2300
7F00
7F00
6180
C180
C1C0
ENDCHAR
STARTCHAR 1EB1
ENCODING 7857
SWIDTH 540 0
DWIDTH 9 0
BBX 7 15 1 0
BITMAP
20
30
10
44
3C
00
00
78
FC
86
3E
C6
CE
FE
76
ENDCHAR
STARTCHAR 1EB2
ENCODING 7858
SWIDTH 540 0
DWIDTH 9 0
BBX 10 17 0 0
BITMAP
0C00
0400
0C00
2200
1E00
0000
1C00
1C00
1600
3600
3200
2300
7F00
7F00
6180
C180
C1C0
ENDCHAR
STARTCHAR 1EB3
ENCODING 7859
SWIDTH 540 0
DWIDTH 9 0
BBX 7 15 1 0
BITMAP
30
08
10
44
3C
00
00
78
FC
86
3E
C6
CE
FE
76
ENDCHAR
STARTCHAR 1EB4
ENCODING 7860
SWIDTH 540 0
DWIDTH 9 0
BBX 10 17 0 0
BITMAP
1200
2E00
0000
2200
1E00
0000
1C00
1C00
1600
3600
3200
2300
7F00
7F00
6180
C180
C1C0
ENDCHAR
STARTCHAR 1EB5
ENCODING 7861
SWIDTH 540 0
DWIDTH 9 0
BBX 7 15 1 0
BITMAP
24
5C
00
44
38
00
00
78
FC
86
3E
C6
CE
FE
76
ENDCHAR
STARTCHAR 1EB6
ENCODING 7862
SWIDTH 540 0
DWIDTH 9 0
BBX 10 17 0 -3
BITMAP
2200
1E00
0000
1C00
1C00
1600
3600
3200
2300
7F00
7F00
6180
C180
C180
0040
0C00
0C00
ENDCHAR
STARTCHAR 1EB7
ENCODING 7863
SWIDTH 540 0
DWIDTH 9 0
BBX 7 16 1 -3
BITMAP
44
64
38
00
00
78
FC
86
3E
C6
CE
FE
76
00
30
30
ENDCHAR
STARTCHAR 1EB8
ENCODING 7864
SWIDTH 1020 0
DWIDTH 17 0
BBX 10 10 0 1
BITMAP
8040
C0C0
E140
F3C0
FFC0
FFC0
7F80
3B00
1E00
0C00
ENDCHAR
STARTCHAR 1EB9
ENCODING 7865
SWIDTH 540 0
DWIDTH 9 0
BBX 7 11 1 -3
BITMAP
3C
FE
C6
FE
C0
C4
FE
3C
00
38
38
ENDCHAR
STARTCHAR 1EBA
ENCODING 7866
SWIDTH 1020 0
DWIDTH 17 0
BBX 10 10 0 1
BITMAP
0C00
1A00
3F00
7F80
BFC0
FFC0
F3C0
E140
C0C0
8040
ENDCHAR
STARTCHAR 1EBB
ENCODING 7867
SWIDTH 540 0
DWIDTH 9 0
BBX 7 13 1 0
BITMAP
30
08
18
00
00
3C
FE
C6
FE
C0
C4
FE
3C
ENDCHAR
STARTCHAR 1EBC
ENCODING 7868
SWIDTH 1020 0
DWIDTH 17 0
BBX 7 15 0 -2
BITMAP
38
28
48
28
48
58
58
58
58
94
BA
BA
BC
44
38
ENDCHAR
STARTCHAR 1EBD
ENCODING 7869
SWIDTH 540 0
DWIDTH 9 0
BBX 7 12 1 0
BITMAP
76
DC
00
00
3C
FE
C6
FE
C0
C4
FE
3C
ENDCHAR
STARTCHAR 1EBE
ENCODING 7870
SWIDTH 1020 0
DWIDTH 17 0
BBX 15 8 0 2
BITMAP
07C0
1870
3010
602C
4024
C046
8082
0100
ENDCHAR
STARTCHAR 1EBF
ENCODING 7871
SWIDTH 540 0
DWIDTH 9 0
BBX 8 14 1 0
BITMAP
02
03
3E
2C
44
00
3C
FE
C6
FE
C0
C4
FE
3C
ENDCHAR
STARTCHAR 1EC0
ENCODING 7872
SWIDTH 1020 0
DWIDTH 17 0
BBX 15 8 0 2
BITMAP
00E0
0026
0022
FFDC
7FF0
3FA8
00D8
0070
ENDCHAR
STARTCHAR 1EC1
ENCODING 7873
SWIDTH 540 0
DWIDTH 9 0
BBX 8 14 0 0
BITMAP
80
40
7C
16
22
00
1E
7F
63
7F
60
62
7F
1E
ENDCHAR
STARTCHAR 1EC2
ENCODING 7874
SWIDTH 780 0
DWIDTH 13 0
BBX 13 17 0 -2
BITMAP
0400
0700
0F00
0F80
1FC0
3FE0
4770
5270
D2F8
D4F8
E518
FD58
FB58
FB50
7710
3FE0
1FC0
ENDCHAR
STARTCHAR 1EC3
ENCODING 7875
SWIDTH 540 0
DWIDTH 9 0
BBX 7 14 1 0
BITMAP
06
02
3A
2C
44
00
3C
FE
C6
FE
C0
C4
FE
3C
ENDCHAR
STARTCHAR 1EC4
ENCODING 7876
SWIDTH 1020 0
DWIDTH 17 0
BBX 10 15 0 -2
BITMAP
0400
0C00
0E00
1E00
3F00
3F00
7F80
7F80
FFC0
FFC0
BFC0
5FC0
6380
3F00
0800
ENDCHAR
STARTCHAR 1EC5
ENCODING 7877
SWIDTH 540 0
DWIDTH 9 0
BBX 7 15 1 0
BITMAP
24
5C
00
38
2C
44
00
3C
FE
C6
FE
C0
C4
FE
3C
ENDCHAR
STARTCHAR 1EC6
ENCODING 7878
SWIDTH 1020 0
DWIDTH 17 0
BBX 15 14 0 -2
BITMAP
0100
2108
7118
1130
07C0
0FE0
0FE0
FFFE
0FE0
07C0
1130
3118
2108
0100
ENDCHAR
STARTCHAR 1EC7
ENCODING 7879
SWIDTH 540 0
DWIDTH 9 0
BBX 7 16 1 -3
BITMAP
38
6C
44
00
00
3C
FE
C6
FE
C0
C4
FE
3C
00
38
38
ENDCHAR
STARTCHAR 1EC8
ENCODING 7880
SWIDTH 300 0
DWIDTH 5 0
BBX 3 15 1 0
BITMAP
C0
60
40
00
C0
C0
C0
C0
C0
C0
C0
C0
C0
C0
C0
ENDCHAR
STARTCHAR 1EC9
ENCODING 7881
SWIDTH 240 0
DWIDTH 4 0
BBX 3 13 1 0
BITMAP
C0
60
C0
00
00
C0
C0
C0
C0
C0
C0
C0
C0
ENDCHAR
STARTCHAR 1ECA
ENCODING 7882
SWIDTH 300 0
DWIDTH 5 0
BBX 3 14 1 -3
BITMAP
C0
C0
C0
C0
C0
C0
C0
C0
C0
C0
C0
00
C0
E0
ENDCHAR
STARTCHAR 1ECB
ENCODING 7883
SWIDTH 240 0
DWIDTH 4 0
BBX 2 14 1 -3
BITMAP
C0
C0
00
C0
C0
C0
C0
C0
C0
C0
C0
00
C0
C0
ENDCHAR
STARTCHAR 1ECC
ENCODING 7884
SWIDTH 660 0
DWIDTH 11 0
BBX 10 14 1 -3
BITMAP
3E00
7F00
E380
C180
C0C0
C0C0
C0C0
C180
E380
7F00
3E00
0000
0C00
0C00
ENDCHAR
STARTCHAR 1ECD
ENCODING 7885
SWIDTH 540 0
DWIDTH 9 0
BBX 8 11 1 -3
BITMAP
3C
FE
C6
C3
C3
C6
FE
3C
00
18
38
ENDCHAR
STARTCHAR 1ECE
ENCODING 7886
SWIDTH 660 0
DWIDTH 11 0
BBX 10 15 1 0
BITMAP
1C00
0400
0C00
0000
3E00
7F00
E380
C180
C0C0
C0C0
C0C0
C180
E380
7F00
3E00
ENDCHAR
STARTCHAR 1ECF
ENCODING 7887
SWIDTH 540 0
DWIDTH 9 0
BBX 8 13 1 0
BITMAP
38
08
18
00
00
3C
FE
C6
C3
C3
C6
FE
3C
ENDCHAR
STARTCHAR 1ED0
ENCODING 7888
SWIDTH 660 0
DWIDTH 11 0
BBX 10 15 1 0
BITMAP
0180
1F00
3200
0000
3E00
7F00
E380
C180
C0C0
C0C0
C0C0
C180
E380
7F00
3E00
ENDCHAR
STARTCHAR 1ED1
ENCODING 7889
SWIDTH 540 0
DWIDTH 9 0
BBX 8 14 1 0
BITMAP
01
02
3A
2C
44
00
3C
FE
C6
C3
C3
C6
FE
3C
ENDCHAR
STARTCHAR 1ED2
ENCODING 7890
SWIDTH 660 0
DWIDTH 11 0
BBX 10 15 1 0
BITMAP
4000
3C00
3200
0000
3E00
7F00
E380
C180
C0C0
C0C0
C0C0
C180
E380
7F00
3E00
ENDCHAR
STARTCHAR 1ED3
ENCODING 7891
SWIDTH 540 0
DWIDTH 9 0
BBX 9 14 0 0
BITMAP
4000
C000
3C00
1600
2200
0000
1E00
7F00
6300
6180
6180
6300
7F00
1E00
ENDCHAR
STARTCHAR 1ED4
ENCODING 7892
SWIDTH 660 0
DWIDTH 11 0
BBX 10 16 1 0
BITMAP
0300
0180
1D00
3200
0000
3E00
7F00
E380
C180
C0C0
C0C0
C0C0
C180
E380
7F00
3E00
ENDCHAR
STARTCHAR 1ED5
ENCODING 7893
SWIDTH 540 0
DWIDTH 9 0
BBX 8 14 1 0
BITMAP
06
03
3A
2C
44
00
3C
FE
C6
C3
C3
C6
FE
3C
ENDCHAR
STARTCHAR 1ED6
ENCODING 7894
SWIDTH 660 0
DWIDTH 11 0
BBX 10 17 1 0
BITMAP
1A00
2E00
0000
1C00
3200
0000
3E00
7F00
E380
C180
C0C0
C0C0
C0C0
C180
E380
7F00
3E00
ENDCHAR
STARTCHAR 1ED7
ENCODING 7895
SWIDTH 540 0
DWIDTH 9 0
BBX 8 15 1 0
BITMAP
24
5C
00
38
2C
44
00
3C
FE
C6
C3
C3
C6
FE
3C
ENDCHAR
STARTCHAR 1ED8
ENCODING 7896
SWIDTH 660 0
DWIDTH 11 0
BBX 10 17 1 -3
BITMAP
1C00
3200
0000
3E00
7F00
E380
C180
C0C0
C0C0
C0C0
C180
E380
7F00
3E00
0000
0C00
0C00
ENDCHAR
STARTCHAR 1ED9
ENCODING 7897
SWIDTH 540 0
DWIDTH 9 0
BBX 8 16 1 -3
BITMAP
38
6C
46
00
00
3C
FE
C6
C3
C3
C6
FE
3C
00
18
38
ENDCHAR
STARTCHAR 1EDA
ENCODING 7898
SWIDTH 660 0
DWIDTH 11 0
BBX 10 15 1 0
BITMAP
0200
0E00
08C0
00C0
3EC0
7F00
E380
C180
C0C0
C0C0
C0C0
C180
6380
7F00
1E00
ENDCHAR
STARTCHAR 1EDB
ENCODING 7899
SWIDTH 540 0
DWIDTH 9 0
BBX 8 14 1 0
BITMAP
04
0E
19
13
03
3E
7E
C6
C3
C3
C3
C6
7E
3C
ENDCHAR
STARTCHAR 1EDC
ENCODING 7900
SWIDTH 660 0
DWIDTH 11 0
BBX 10 15 1 0
BITMAP
1000
3800
0CC0
00C0
3EC0
7F00
E380
C180
C0C0
C0C0
C0C0
C180
6380
7F00
1E00
ENDCHAR
STARTCHAR 1EDD
ENCODING 7901
SWIDTH 540 0
DWIDTH 9 0
BBX 8 14 1 0
BITMAP
20
60
31
1B
03
3E
7E
C6
C3
C3
C3
C6
7E
3C
ENDCHAR
STARTCHAR 1EDE
ENCODING 7902
SWIDTH 660 0
DWIDTH 11 0
BBX 10 15 1 0
BITMAP
1C00
0400
0CC0
00C0
3EC0
7F00
E380
C180
C0C0
C0C0
C0C0
C180
6380
7F00
1E00
ENDCHAR
STARTCHAR 1EDF
ENCODING 7903
SWIDTH 540 0
DWIDTH 9 0
BBX 8 13 1 0
BITMAP
38
09
1B
03
3E
7E
C6
C3
C3
C3
C6
7E
3C
ENDCHAR
STARTCHAR 1EE0
ENCODING 7904
SWIDTH 660 0
DWIDTH 11 0
BBX 10 14 1 0
BITMAP
3300
6EC0
00C0
3EC0
7F00
E380
C180
C0C0
C0C0
C0C0
C180
6380
7F00
1E00
ENDCHAR
STARTCHAR 1EE1
ENCODING 7905
SWIDTH 540 0
DWIDTH 9 0
BBX 8 12 1 0
BITMAP
65
DF
03
3E
7E
C6
C3
C3
C3
C6
7E
3C
ENDCHAR
STARTCHAR 1EE2
ENCODING 7906
SWIDTH 660 0
DWIDTH 11 0
BBX 10 16 1 -3
BITMAP
00C0
00C0
3EC0
7F00
E380
C180
C0C0
C0C0
C0C0
C180
6380
7F00
1E00
0000
0C00
0C00
ENDCHAR
STARTCHAR 1EE3
ENCODING 7907
SWIDTH 540 0
DWIDTH 9 0
BBX 8 15 1 -3
BITMAP
01
03
03
3E
7E
C6
C3
C3
C3
C6
7E
3C
00
18
38
ENDCHAR
STARTCHAR 1EE4
ENCODING 7908
SWIDTH 660 0
DWIDTH 11 0
BBX 9 14 1 -3
BITMAP
C180
C180
C180
C180
C180
C180
C180
E180
6300
7F00
3E00
0000
0C00
1C00
ENDCHAR
STARTCHAR 1EE5
ENCODING 7909
SWIDTH 540 0
DWIDTH 9 0
BBX 7 11 1 -3
BITMAP
C6
C6
C6
C6
C6
C6
FE
72
00
18
18
ENDCHAR
STARTCHAR 1EE6
ENCODING 7910
SWIDTH 660 0
DWIDTH 11 0
BBX 9 15 1 0
BITMAP
1C00
0400
0800
0000
C180
C180
C180
C180
C180
C180
C180
E180
6300
7F00
3E00
ENDCHAR
STARTCHAR 1EE7
ENCODING 7911
SWIDTH 540 0
DWIDTH 9 0
BBX 7 13 1 0
BITMAP
38
08
18
00
00
C6
C6
C6
C6
C6
C6
FE
72
ENDCHAR
STARTCHAR 1EE8
ENCODING 7912
SWIDTH 660 0
DWIDTH 11 0
BBX 11 15 1 0
BITMAP
0600
0E60
1860
0060
C1C0
C180
C180
C180
C180
C180
C180
E180
6300
7F00
3E00
ENDCHAR
STARTCHAR 1EE9
ENCODING 7913
SWIDTH 540 0
DWIDTH 9 0
BBX 9 14 1 0
BITMAP
0400
0C00
1800
1180
0180
0180
C700
C600
C600
C600
C600
C600
FE00
7A00
ENDCHAR
STARTCHAR 1EEA
ENCODING 7914
SWIDTH 660 0
DWIDTH 11 0
BBX 11 15 1 0
BITMAP
1000
3860
0C60
0060
C1C0
C180
C180
C180
C180
C180
C180
E180
6300
7F00
3E00
ENDCHAR
STARTCHAR 1EEB
ENCODING 7915
SWIDTH 540 0
DWIDTH 9 0
BBX 9 14 1 0
BITMAP
2000
6000
3000
1980
0180
0180
C700
C600
C600
C600
C600
C600
FE00
7A00
ENDCHAR
STARTCHAR 1EEC
ENCODING 7916
SWIDTH 660 0
DWIDTH 11 0
BBX 11 15 1 0
BITMAP
1C00
0460
0860
0060
C1C0
C180
C180
C180
C180
C180
C180
E180
6300
7F00
3E00
ENDCHAR
STARTCHAR 1EED
ENCODING 7917
SWIDTH 540 0
DWIDTH 9 0
BBX 9 13 1 0
BITMAP
3800
0800
1980
0180
0180
C700
C600
C600
C600
C600
C600
FE00
7A00
ENDCHAR
STARTCHAR 1EEE
ENCODING 7918
SWIDTH 660 0
DWIDTH 11 0
BBX 11 14 1 0
BITMAP
3360
6E60
0060
C1C0
C180
C180
C180
C180
C180
C180
E180
6300
7F00
3E00
ENDCHAR
STARTCHAR 1EEF
ENCODING 7919
SWIDTH 540 0
DWIDTH 9 0
BBX 9 12 1 0
BITMAP
7600
5D80
8180
0180
C700
C600
C600
C600
C600
C600
FE00
7A00
ENDCHAR
STARTCHAR 1EF0
ENCODING 7920
SWIDTH 660 0
DWIDTH 11 0
BBX 11 17 1 -3
BITMAP
0060
0060
0060
C1C0
C180
C180
C180
C180
C180
C180
E180
6300
7F00
3E00
0000
0C00
1C00
ENDCHAR
STARTCHAR 1EF1
ENCODING 7921
SWIDTH 540 0
DWIDTH 9 0
BBX 9 14 1 -3
BITMAP
0180
0180
0180
C700
C600
C600
C600
C600
C600
FE00
7A00
0000
1800
1800
ENDCHAR
STARTCHAR 1EF2
ENCODING 7922
SWIDTH 540 0
DWIDTH 9 0
BBX 9 15 0 0
BITMAP
2000
3800
0800
0000
C380
6300
6600
3600
3400
1C00
1800
1800
1800
1800
1800
ENDCHAR
STARTCHAR 1EF3
ENCODING 7923
SWIDTH 480 0
DWIDTH 8 0
BBX 8 17 0 -3
BITMAP
20
70
18
08
00
00
C3
63
62
36
36
14
1C
18
18
78
70
ENDCHAR
STARTCHAR 1EF4
ENCODING 7924
SWIDTH 540 0
DWIDTH 9 0
BBX 9 14 0 -3
BITMAP
C380
6300
6600
3600
3400
1C00
1800
1800
1800
1800
1800
0000
1800
1800
ENDCHAR
STARTCHAR 1EF5
ENCODING 7925
SWIDTH 480 0
DWIDTH 8 0
BBX 8 11 0 -3
BITMAP
C3
63
62
36
36
14
1C
18
18
7B
73
ENDCHAR
STARTCHAR 1EF6
ENCODING 7926
SWIDTH 540 0
DWIDTH 9 0
BBX 9 15 0 0
BITMAP
1800
0C00
1800
0000
C380
6300
6600
3600
3400
1C00
1800
1800
1800
1800
1800
ENDCHAR
STARTCHAR 1EF7
ENCODING 7927
SWIDTH 480 0
DWIDTH 8 0
BBX 8 16 0 -3
BITMAP
18
0C
08
00
00
C3
63
62
36
36
14
1C
18
18
78
70
ENDCHAR
STARTCHAR 1EF8
ENCODING 7928
SWIDTH 540 0
DWIDTH 9 0
BBX 9 14 0 0
BITMAP
3200
6E00
0000
C380
6300
6600
3600
3400
1C00
1800
1800
1800
1800
1800
ENDCHAR
STARTCHAR 1EF9
ENCODING 7929
SWIDTH 480 0
DWIDTH 8 0
BBX 8 15 0 -3
BITMAP
32
6E
00
00
C3
63
62
36
36
14
1C
18
18
78
70
ENDCHAR
STARTCHAR 1F00
ENCODING 7936
SWIDTH 600 0
DWIDTH 10 0
BBX 9 13 1 0
BITMAP
1800
0800
1800
0000
0000
3B00
FF00
C600
C600
C600
C600
FF80
7B80
ENDCHAR
STARTCHAR 1F01
ENCODING 7937
SWIDTH 600 0
DWIDTH 10 0
BBX 9 13 1 0
BITMAP
1800
3000
1800
0000
0000
3B00
FF00
C600
C600
C600
C600
FF80
7B80
ENDCHAR
STARTCHAR 1F02
ENCODING 7938
SWIDTH 600 0
DWIDTH 10 0
BBX 9 13 1 0
BITMAP
6C00
2C00
6400
0400
0000
3B00
FF00
C600
C600
C600
C600
FF80
7B80
ENDCHAR
STARTCHAR 1F03
ENCODING 7939
SWIDTH 600 0
DWIDTH 10 0
BBX 9 13 1 0
BITMAP
6C00
4C00
6400
0400
0000
3B00
FF00
C600
C600
C600
C600
FF80
7B80
ENDCHAR
STARTCHAR 1F04
ENCODING 7940
SWIDTH 600 0
DWIDTH 10 0
BBX 9 13 1 0
BITMAP
6400
2C00
6C00
0800
0000
3B00
FF00
C600
C600
C600
C600
FF80
7B80
ENDCHAR
STARTCHAR 1F05
ENCODING 7941
SWIDTH 600 0
DWIDTH 10 0
BBX 9 13 1 0
BITMAP
3400
4C00
2C00
0800
0000
3B00
FF00
C600
C600
C600
C600
FF80
7B80
ENDCHAR
STARTCHAR 1F06
ENCODING 7942
SWIDTH 600 0
DWIDTH 10 0
BBX 9 16 1 0
BITMAP
2400
7C00
0000
1800
0800
1800
0000
0000
3B00
FF00
C600
C600
C600
C600
FF80
7B80
ENDCHAR
STARTCHAR 1F07
ENCODING 7943
SWIDTH 600 0
DWIDTH 10 0
BBX 9 16 1 0
BITMAP
2400
7C00
0000
1800
1000
1800
0000
0000
3B00
FF00
C600
C600
C600
C600
FF80
7B80
ENDCHAR
STARTCHAR 1F08
ENCODING 7944
SWIDTH 660 0
DWIDTH 11 0
BBX 11 11 0 0
BITMAP
CE00
CE00
6B00
7B00
9900
1180
3F80
3F80
30C0
60C0
60E0
ENDCHAR
STARTCHAR 1F09
ENCODING 7945
SWIDTH 600 0
DWIDTH 10 0
BBX 10 11 0 0
BITMAP
4E00
EE00
8B00
DB00
5B00
1180
3F80
3F80
30C0
60C0
60C0
ENDCHAR
STARTCHAR 1F0A
ENCODING 7946
SWIDTH 780 0
DWIDTH 13 0
BBX 13 11 0 0
BITMAP
99C0
D9C0
5B40
4B60
8260
0620
07F0
07F0
0C30
0C18
0C18
ENDCHAR
STARTCHAR 1F0B
ENCODING 7947
SWIDTH 780 0
DWIDTH 13 0
BBX 13 11 0 0
BITMAP
59C0
D9C0
9B40
8B60
4260
0620
07F0
07F0
0C30
0C18
1C18
ENDCHAR
STARTCHAR 1F0C
ENCODING 7948
SWIDTH 780 0
DWIDTH 13 0
BBX 13 11 0 0
BITMAP
99C0
D9C0
53C0
5360
8260
0660
07E0
07F0
0C30
0C30
1C18
ENDCHAR
STARTCHAR 1F0D
ENCODING 7949
SWIDTH 780 0
DWIDTH 13 0
BBX 13 11 0 0
BITMAP
5980
D9C0
93C0
9340
4260
0660
07E0
07F0
0C30
0C30
1C18
ENDCHAR
STARTCHAR 1F0E
ENCODING 7950
SWIDTH 660 0
DWIDTH 11 0
BBX 11 11 0 0
BITMAP
F700
F700
2D00
CD80
0980
1980
1FC0
1FC0
30C0
3060
7060
ENDCHAR
STARTCHAR 1F0F
ENCODING 7951
SWIDTH 660 0
DWIDTH 11 0
BBX 11 11 0 0
BITMAP
F700
F700
4D00
4D80
0980
1980
1FC0
1FC0
30C0
3060
7060
ENDCHAR
STARTCHAR 1F10
ENCODING 7952
SWIDTH 480 0
DWIDTH 8 0
BBX 6 13 1 0
BITMAP
30
18
30
00
00
78
FC
C4
78
F8
C4
FC
78
ENDCHAR
STARTCHAR 1F11
ENCODING 7953
SWIDTH 480 0
DWIDTH 8 0
BBX 6 13 1 0
BITMAP
38
20
30
00
00
78
FC
C4
78
F8
C4
FC
78
ENDCHAR
STARTCHAR 1F12
ENCODING 7954
SWIDTH 480 0
DWIDTH 8 0
BBX 6 13 1 0
BITMAP
D8
28
48
0C
00
78
FC
C4
78
F8
C4
FC
78
ENDCHAR
STARTCHAR 1F13
ENCODING 7955
SWIDTH 480 0
DWIDTH 8 0
BBX 6 13 1 0
BITMAP
78
C8
48
08
04
78
FC
C4
78
F8
C4
FC
78
ENDCHAR
STARTCHAR 1F14
ENCODING 7956
SWIDTH 480 0
DWIDTH 8 0
BBX 6 13 1 0
BITMAP
CC
28
48
08
10
78
FC
C4
78
F8
C4
FC
78
ENDCHAR
STARTCHAR 1F15
ENCODING 7957
SWIDTH 480 0
DWIDTH 8 0
BBX 6 13 1 0
BITMAP
6C
C8
48
18
00
78
FC
C4
78
F8
C4
FC
78
ENDCHAR
STARTCHAR 1F18
ENCODING 7960
SWIDTH 720 0
DWIDTH 12 0
BBX 11 11 0 0
BITMAP
CFE0
CFE0
6C00
4C00
8FC0
0FC0
0C00
0C00
0C00
0FE0
0FE0
ENDCHAR
STARTCHAR 1F19
ENCODING 7961
SWIDTH 720 0
DWIDTH 12 0
BBX 11 11 0 0
BITMAP
4FE0
EFE0
8C00
CC00
4FC0
0FC0
0C00
0C00
0C00
0FE0
0FE0
ENDCHAR
STARTCHAR 1F1A
ENCODING 7962
SWIDTH 840 0
DWIDTH 14 0
BBX 13 11 0 0
BITMAP
9BF8
DBF8
5B00
4B00
83F0
03F0
0300
0300
0300
03F8
03F8
ENDCHAR
STARTCHAR 1F1B
ENCODING 7963
SWIDTH 840 0
DWIDTH 14 0
BBX 13 11 0 0
BITMAP
5BF8
DBF8
9B00
8B00
43F0
03F0
0300
0300
0300
03F8
03F8
ENDCHAR
STARTCHAR 1F1C
ENCODING 7964
SWIDTH 840 0
DWIDTH 14 0
BBX 13 11 0 0
BITMAP
9BF8
DBF8
5300
5300
83F0
03F0
0300
0300
0300
03F8
03F8
ENDCHAR
STARTCHAR 1F1D
ENCODING 7965
SWIDTH 840 0
DWIDTH 14 0
BBX 13 11 0 0
BITMAP
5BF8
DBF8
9300
9300
43F0
03F0
0300
0300
0300
03F8
03F8
ENDCHAR
STARTCHAR 1F20
ENCODING 7968
SWIDTH 540 0
DWIDTH 9 0
BBX 7 16 1 -3
BITMAP
18
0C
18
00
00
DC
FE
E6
C6
C6
C6
C6
C6
06
06
06
ENDCHAR
STARTCHAR 1F21
ENCODING 7969
SWIDTH 540 0
DWIDTH 9 0
BBX 7 16 1 -3
BITMAP
18
10
18
00
00
DC
FE
E6
C6
C6
C6
C6
C6
06
06
06
ENDCHAR
STARTCHAR 1F22
ENCODING 7970
SWIDTH 540 0
DWIDTH 9 0
BBX 7 16 1 -3
BITMAP
6C
3C
24
04
00
DC
FE
E6
C6
C6
C6
C6
C6
06
06
06
ENDCHAR
STARTCHAR 1F23
ENCODING 7971
SWIDTH 540 0
DWIDTH 9 0
BBX 7 16 1 -3
BITMAP
3C
4C
24
04
00
DC
FE
E6
C6
C6
C6
C6
C6
06
06
06
ENDCHAR
STARTCHAR 1F24
ENCODING 7972
SWIDTH 540 0
DWIDTH 9 0
BBX 7 16 1 -3
BITMAP
66
34
2C
0C
00
DC
FE
E6
C6
C6
C6
C6
C6
06
06
06
ENDCHAR
STARTCHAR 1F25
ENCODING 7973
SWIDTH 540 0
DWIDTH 9 0
BBX 7 16 1 -3
BITMAP
34
64
2C
08
00
DC
FE
E6
C6
C6
C6
C6
C6
06
06
06
ENDCHAR
STARTCHAR 1F26
ENCODING 7974
SWIDTH 540 0
DWIDTH 9 0
BBX 7 19 1 -3
BITMAP
34
2E
00
18
08
18
00
00
DC
FE
E6
C6
C6
C6
C6
C6
06
06
06
ENDCHAR
STARTCHAR 1F27
ENCODING 7975
SWIDTH 540 0
DWIDTH 9 0
BBX 7 19 1 -3
BITMAP
34
2E
00
18
10
18
00
00
DC
FE
E6
C6
C6
C6
C6
C6
06
06
06
ENDCHAR
STARTCHAR 1F28
ENCODING 7976
SWIDTH 840 0
DWIDTH 14 0
BBX 12 11 0 0
BITMAP
CC30
CC30
6C30
4C30
8FF0
0FF0
0C30
0C30
0C30
0C30
0C30
ENDCHAR
STARTCHAR 1F29
ENCODING 7977
SWIDTH 840 0
DWIDTH 14 0
BBX 12 11 0 0
BITMAP
4C30
EC30
8C30
CC30
4FF0
0FF0
0C30
0C30
0C30
0C30
0C30
ENDCHAR
STARTCHAR 1F2A
ENCODING 7978
SWIDTH 960 0
DWIDTH 16 0
BBX 15 11 0 0
BITMAP
9B06
DB06
5B06
4B06
83FE
03FE
0306
0306
0306
0306
0306
ENDCHAR
STARTCHAR 1F2B
ENCODING 7979
SWIDTH 960 0
DWIDTH 16 0
BBX 15 11 0 0
BITMAP
5B06
DB06
9B06
8B06
43FE
03FE
0306
0306
0306
0306
0306
ENDCHAR
STARTCHAR 1F2C
ENCODING 7980
SWIDTH 960 0
DWIDTH 16 0
BBX 15 11 0 0
BITMAP
9B06
DB06
5306
5306
83FE
03FE
0306
0306
0306
0306
0306
ENDCHAR
STARTCHAR 1F2D
ENCODING 7981
SWIDTH 960 0
DWIDTH 16 0
BBX 15 11 0 0
BITMAP
5B06
DB06
9306
9306
43FE
03FE
0306
0306
0306
0306
0306
ENDCHAR
STARTCHAR 1F2E
ENCODING 7982
SWIDTH 900 0
DWIDTH 15 0
BBX 13 11 0 0
BITMAP
F618
F618
2618
C618
07F8
07F8
0618
0618
0618
0618
0618
ENDCHAR
STARTCHAR 1F2F
ENCODING 7983
SWIDTH 900 0
DWIDTH 15 0
BBX 13 11 0 0
BITMAP
F618
F618
4618
4618
07F8
07F8
0618
0618
0618
0618
0618
ENDCHAR
STARTCHAR 1F30
ENCODING 7984
SWIDTH 300 0
DWIDTH 5 0
BBX 3 13 1 0
BITMAP
C0
60
C0
00
00
C0
C0
C0
C0
C0
C0
E0
60
ENDCHAR
STARTCHAR 1F31
ENCODING 7985
SWIDTH 300 0
DWIDTH 5 0
BBX 3 13 1 0
BITMAP
E0
80
C0
00
00
C0
C0
C0
C0
C0
C0
E0
60
ENDCHAR
STARTCHAR 1F32
ENCODING 7986
SWIDTH 300 0
DWIDTH 5 0
BBX 6 13 -1 0
BITMAP
D8
68
48
08
04
30
30
30
30
30
30
38
18
ENDCHAR
STARTCHAR 1F33
ENCODING 7987
SWIDTH 300 0
DWIDTH 5 0
BBX 5 13 -1 0
BITMAP
78
C8
48
08
00
30
30
30
30
30
30
38
18
ENDCHAR
STARTCHAR 1F34
ENCODING 7988
SWIDTH 300 0
DWIDTH 5 0
BBX 6 13 -1 0
BITMAP
CC
68
48
18
00
30
30
30
30
30
30
38
18
ENDCHAR
STARTCHAR 1F35
ENCODING 7989
SWIDTH 300 0
DWIDTH 5 0
BBX 6 13 -1 0
BITMAP
6C
C8
48
18
00
30
30
30
30
30
30
38
18
ENDCHAR
STARTCHAR 1F36
ENCODING 7990
SWIDTH 300 0
DWIDTH 5 0
BBX 5 16 0 0
BITMAP
50
B8
00
60
30
20
00
00
60
60
60
60
60
60
70
30
ENDCHAR
STARTCHAR 1F37
ENCODING 7991
SWIDTH 300 0
DWIDTH 5 0
BBX 5 16 0 0
BITMAP
50
B8
00
60
40
20
00
00
60
60
60
60
60
60
70
30
ENDCHAR
STARTCHAR 1F38
ENCODING 7992
SWIDTH 420 0
DWIDTH 7 0
BBX 6 11 0 0
BITMAP
CC
CC
6C
4C
8C
0C
0C
0C
0C
0C
0C
ENDCHAR
STARTCHAR 1F39
ENCODING 7993
SWIDTH 420 0
DWIDTH 7 0
BBX 6 11 0 0
BITMAP
4C
EC
8C
CC
4C
0C
0C
0C
0C
0C
0C
ENDCHAR
STARTCHAR 1F3A
ENCODING 7994
SWIDTH 600 0
DWIDTH 10 0
BBX 8 11 0 0
BITMAP
9B
DB
5B
4B
83
03
03
03
03
03
03
ENDCHAR
STARTCHAR 1F3B
ENCODING 7995
SWIDTH 600 0
DWIDTH 10 0
BBX 8 11 0 0
BITMAP
5B
DB
9B
8B
43
03
03
03
03
03
03
ENDCHAR
STARTCHAR 1F3C
ENCODING 7996
SWIDTH 540 0
DWIDTH 9 0
BBX 8 11 0 0
BITMAP
9B
DB
53
53
83
03
03
03
03
03
03
ENDCHAR
STARTCHAR 1F3D
ENCODING 7997
SWIDTH 540 0
DWIDTH 9 0
BBX 8 11 0 0
BITMAP
5B
DB
93
93
43
03
03
03
03
03
03
ENDCHAR
STARTCHAR 1F3E
ENCODING 7998
SWIDTH 480 0
DWIDTH 8 0
BBX 7 11 0 0
BITMAP
F6
F6
26
C6
06
06
06
06
06
06
06
ENDCHAR
STARTCHAR 1F3F
ENCODING 7999
SWIDTH 480 0
DWIDTH 8 0
BBX 7 11 0 0
BITMAP
F6
F6
46
46
06
06
06
06
06
06
06
ENDCHAR
STARTCHAR 1F40
ENCODING 8000
SWIDTH 540 0
DWIDTH 9 0
BBX 8 13 1 0
BITMAP
38
08
18
00
00
3C
FE
C6
C3
C3
C6
FE
3C
ENDCHAR
STARTCHAR 1F41
ENCODING 8001
SWIDTH 540 0
DWIDTH 9 0
BBX 8 13 1 0
BITMAP
18
30
30
00
00
3C
FE
C6
C3
C3
C6
FE
3C
ENDCHAR
STARTCHAR 1F42
ENCODING 8002
SWIDTH 540 0
DWIDTH 9 0
BBX 8 13 1 0
BITMAP
68
2C
6C
04
00
3C
FE
C6
C3
C3
C6
FE
3C
ENDCHAR
STARTCHAR 1F43
ENCODING 8003
SWIDTH 540 0
DWIDTH 9 0
BBX 8 13 1 0
BITMAP
68
48
6C
04
00
3C
FE
C6
C3
C3
C6
FE
3C
ENDCHAR
STARTCHAR 1F44
ENCODING 8004
SWIDTH 540 0
DWIDTH 9 0
BBX 8 13 1 0
BITMAP
6C
2C
68
08
00
3C
FE
C6
C3
C3
C6
FE
3C
ENDCHAR
STARTCHAR 1F45
ENCODING 8005
SWIDTH 540 0
DWIDTH 9 0
BBX 8 13 1 0
BITMAP
6C
4C
68
08
00
3C
FE
C6
C3
C3
C6
FE
3C
ENDCHAR
STARTCHAR 1F48
ENCODING 8008
SWIDTH 840 0
DWIDTH 14 0
BBX 13 11 0 0
BITMAP
C3C0
CFE0
6C70
5830
9818
1818
1818
1830
0C70
0FE0
03C0
ENDCHAR
STARTCHAR 1F49
ENCODING 8009
SWIDTH 780 0
DWIDTH 13 0
BBX 12 11 0 0
BITMAP
47C0
EFE0
9C70
D830
5830
1830
1830
1830
1C70
0FE0
07C0
ENDCHAR
STARTCHAR 1F4A
ENCODING 8010
SWIDTH 960 0
DWIDTH 16 0
BBX 15 11 0 0
BITMAP
98F8
D9FC
5B8E
4B06
8706
0606
0706
0306
038E
01FC
00F8
ENDCHAR
STARTCHAR 1F4B
ENCODING 8011
SWIDTH 960 0
DWIDTH 16 0
BBX 15 11 0 0
BITMAP
58F8
D9FC
9B8E
8B06
4706
0606
0706
0306
038E
01FC
00F8
ENDCHAR
STARTCHAR 1F4C
ENCODING 8012
SWIDTH 960 0
DWIDTH 16 0
BBX 15 11 0 0
BITMAP
98F0
DBFC
530C
5706
8606
0606
0606
070E
030C
03FC
00F0
ENDCHAR
STARTCHAR 1F4D
ENCODING 8013
SWIDTH 960 0
DWIDTH 16 0
BBX 15 11 0 0
BITMAP
58F0
DBFC
930C
970E
4606
0606
0606
070E
030C
03FC
00F0
ENDCHAR
STARTCHAR 1F50
ENCODING 8016
SWIDTH 540 0
DWIDTH 9 0
BBX 7 13 1 0
BITMAP
30
18
30
00
00
CE
C6
C6
C6
C6
CE
FC
78
ENDCHAR
STARTCHAR 1F51
ENCODING 8017
SWIDTH 540 0
DWIDTH 9 0
BBX 7 13 1 0
BITMAP
38
20
30
00
00
CE
C6
C6
C6
C6
CE
FC
78
ENDCHAR
STARTCHAR 1F52
ENCODING 8018
SWIDTH 540 0
DWIDTH 9 0
BBX 7 13 1 0
BITMAP
D8
28
48
0C
00
CE
C6
C6
C6
C6
CE
FC
78
ENDCHAR
STARTCHAR 1F53
ENCODING 8019
SWIDTH 540 0
DWIDTH 9 0
BBX 7 13 1 0
BITMAP
78
C8
48
08
00
CE
C6
C6
C6
C6
CE
FC
78
ENDCHAR
STARTCHAR 1F54
ENCODING 8020
SWIDTH 540 0
DWIDTH 9 0
BBX 7 13 1 0
BITMAP
CC
28
48
08
10
CE
C6
C6
C6
C6
CE
FC
78
ENDCHAR
STARTCHAR 1F55
ENCODING 8021
SWIDTH 540 0
DWIDTH 9 0
BBX 7 13 1 0
BITMAP
6C
C8
48
18
00
CE
C6
C6
C6
C6
CE
FC
78
ENDCHAR
STARTCHAR 1F56
ENCODING 8022
SWIDTH 540 0
DWIDTH 9 0
BBX 7 16 1 0
BITMAP
28
5C
00
30
18
10
00
00
CE
C6
C6
C6
C6
CE
FC
78
ENDCHAR
STARTCHAR 1F57
ENCODING 8023
SWIDTH 540 0
DWIDTH 9 0
BBX 7 16 1 0
BITMAP
28
5C
00
30
28
10
00
00
CE
C6
C6
C6
C6
CE
FC
78
ENDCHAR
STARTCHAR 1F59
ENCODING 8025
SWIDTH 720 0
DWIDTH 12 0
BBX 12 11 0 0
BITMAP
5830
EC60
8C60
C6C0
46C0
0380
0380
0300
0300
0300
0300
ENDCHAR
STARTCHAR 1F5B
ENCODING 8027
SWIDTH 840 0
DWIDTH 14 0
BBX 14 11 0 0
BITMAP
5B0C
DB0C
9998
8998
40F0
00F0
0060
0060
0060
0060
0060
ENDCHAR
STARTCHAR 1F5D
ENCODING 8029
SWIDTH 840 0
DWIDTH 14 0
BBX 14 11 0 0
BITMAP
5B0C
DB0C
9198
9198
40F0
00F0
0060
0060
0060
0060
0060
ENDCHAR
STARTCHAR 1F5F
ENCODING 8031
SWIDTH 780 0
DWIDTH 13 0
BBX 13 11 0 0
BITMAP
FE18
F630
4230
4360
0360
01C0
01C0
00C0
00C0
00C0
00C0
ENDCHAR
STARTCHAR 1F60
ENCODING 8032
SWIDTH 720 0
DWIDTH 12 0
BBX 11 13 1 0
BITMAP
0C00
0600
0C00
0000
0000
6080
C1C0
CCC0
CC60
CC60
CCC0
FFC0
7380
ENDCHAR
STARTCHAR 1F61
ENCODING 8033
SWIDTH 720 0
DWIDTH 12 0
BBX 11 13 1 0
BITMAP
0C00
0A00
0C00
0000
0000
6080
C1C0
CCC0
CC60
CC60
CCC0
FFC0
7380
ENDCHAR
STARTCHAR 1F62
ENCODING 8034
SWIDTH 720 0
DWIDTH 12 0
BBX 11 13 1 0
BITMAP
3600
1A00
1200
0200
0000
6080
C1C0
CCC0
CC60
CC60
CCC0
FFC0
7380
ENDCHAR
STARTCHAR 1F63
ENCODING 8035
SWIDTH 720 0
DWIDTH 12 0
BBX 11 13 1 0
BITMAP
1E00
2600
1200
0200
0000
6080
C1C0
CCC0
CC60
CC60
CCC0
FFC0
7380
ENDCHAR
STARTCHAR 1F64
ENCODING 8036
SWIDTH 720 0
DWIDTH 12 0
BBX 11 13 1 0
BITMAP
3300
1A00
1200
0600
0000
6080
C1C0
CCC0
CC60
CC60
CCC0
FFC0
7380
ENDCHAR
STARTCHAR 1F65
ENCODING 8037
SWIDTH 720 0
DWIDTH 12 0
BBX 11 13 1 0
BITMAP
1B00
3200
1600
0600
0000
6080
C1C0
CCC0
CC60
CC60
CCC0
FFC0
7380
ENDCHAR
STARTCHAR 1F66
ENCODING 8038
SWIDTH 720 0
DWIDTH 12 0
BBX 11 16 1 0
BITMAP
0A00
1700
0000
0C00
0400
0C00
0000
0000
6080
C1C0
CCC0
CC60
CC60
CCC0
FFC0
7380
ENDCHAR
STARTCHAR 1F67
ENCODING 8039
SWIDTH 720 0
DWIDTH 12 0
BBX 11 16 1 0
BITMAP
0A00
1700
0000
0C00
0800
0C00
0000
0000
6080
C1C0
CCC0
CC60
CC60
CCC0
FFC0
7380
ENDCHAR
STARTCHAR 1F68
ENCODING 8040
SWIDTH 840 0
DWIDTH 14 0
BBX 13 11 0 0
BITMAP
C3C0
CFF0
6C30
5838
9818
1818
1818
0C30
0C60
1E78
1E78
ENDCHAR
STARTCHAR 1F69
ENCODING 8041
SWIDTH 840 0
DWIDTH 14 0
BBX 13 11 0 0
BITMAP
47C0
EFE0
9C70
D830
5838
1818
1830
1830
0C60
1E78
1E78
ENDCHAR
STARTCHAR 1F6A
ENCODING 8042
SWIDTH 960 0
DWIDTH 16 0
BBX 16 11 0 0
BITMAP
98F8
D9FC
5B8E
4B06
8306
0306
0306
0306
018C
07DF
07DF
ENDCHAR
STARTCHAR 1F6B
ENCODING 8043
SWIDTH 960 0
DWIDTH 16 0
BBX 16 11 0 0
BITMAP
58F8
D9FC
9B8E
8B06
4706
0306
0306
0306
018C
07DF
07DF
ENDCHAR
STARTCHAR 1F6C
ENCODING 8044
SWIDTH 960 0
DWIDTH 16 0
BBX 15 11 0 0
BITMAP
98F8
D9FC
538E
5306
8606
0606
0306
0306
018C
079E
079E
ENDCHAR
STARTCHAR 1F6D
ENCODING 8045
SWIDTH 960 0
DWIDTH 16 0
BBX 15 11 0 0
BITMAP
58F8
D9FC
938E
9306
4606
0606
0306
0306
018C
079E
079E
ENDCHAR
STARTCHAR 1F6E
ENCODING 8046
SWIDTH 840 0
DWIDTH 14 0
BBX 14 11 0 0
BITMAP
F3E0
F7F0
2E38
CC18
0C18
0C18
0C18
0C18
0630
1F7C
1F7C
ENDCHAR
STARTCHAR 1F6F
ENCODING 8047
SWIDTH 840 0
DWIDTH 14 0
BBX 14 11 0 0
BITMAP
F3E0
F7F0
4E38
4C18
0C18
0C18
0C18
0C18
0630
1F7C
1F7C
ENDCHAR
STARTCHAR 1F70
ENCODING 8048
SWIDTH 600 0
DWIDTH 10 0
BBX 9 14 1 0
BITMAP
2000
7000
3000
1800
0000
0000
3B00
FF00
C600
C600
C600
C600
FF80
7B80
ENDCHAR
STARTCHAR 1F71
ENCODING 8049
SWIDTH 600 0
DWIDTH 10 0
BBX 9 14 1 0
BITMAP
0400
0E00
1800
1000
0000
0000
3B00
FF00
C600
C600
C600
C600
FF80
7B80
ENDCHAR
STARTCHAR 1F72
ENCODING 8050
SWIDTH 480 0
DWIDTH 8 0
BBX 6 14 1 0
BITMAP
40
E0
30
10
00
00
78
FC
C4
78
F8
C4
FC
78
ENDCHAR
STARTCHAR 1F73
ENCODING 8051
SWIDTH 480 0
DWIDTH 8 0
BBX 6 14 1 0
BITMAP
08
0C
18
30
00
00
78
FC
C4
78
F8
C4
FC
78
ENDCHAR
STARTCHAR 1F74
ENCODING 8052
SWIDTH 540 0
DWIDTH 9 0
BBX 7 17 1 -3
BITMAP
20
70
38
08
00
00
DC
FE
E6
C6
C6
C6
C6
C6
06
06
06
ENDCHAR
STARTCHAR 1F75
ENCODING 8053
SWIDTH 540 0
DWIDTH 9 0
BBX 7 17 1 -3
BITMAP
04
0E
0C
18
00
00
DC
FE
E6
C6
C6
C6
C6
C6
06
06
06
ENDCHAR
STARTCHAR 1F76
ENCODING 8054
SWIDTH 300 0
DWIDTH 5 0
BBX 5 14 -1 0
BITMAP
40
E0
30
10
00
00
30
30
30
30
30
30
38
18
ENDCHAR
STARTCHAR 1F77
ENCODING 8055
SWIDTH 300 0
DWIDTH 5 0
BBX 4 14 1 0
BITMAP
20
70
60
C0
00
00
C0
C0
C0
C0
C0
C0
E0
60
ENDCHAR
STARTCHAR 1F78
ENCODING 8056
SWIDTH 540 0
DWIDTH 9 0
BBX 8 14 1 0
BITMAP
20
60
30
18
00
00
3C
FE
C6
C3
C3
C6
FE
3C
ENDCHAR
STARTCHAR 1F79
ENCODING 8057
SWIDTH 540 0
DWIDTH 9 0
BBX 8 14 1 0
BITMAP
04
0E
18
10
00
00
3C
FE
C6
C3
C3
C6
FE
3C
ENDCHAR
STARTCHAR 1F7A
ENCODING 8058
SWIDTH 540 0
DWIDTH 9 0
BBX 7 14 1 0
BITMAP
40
E0
30
10
00
00
CE
C6
C6
C6
C6
CE
FC
78
ENDCHAR
STARTCHAR 1F7B
ENCODING 8059
SWIDTH 540 0
DWIDTH 9 0
BBX 7 14 1 0
BITMAP
08
0C
18
30
00
00
CE
C6
C6
C6
C6
CE
FC
78
ENDCHAR
STARTCHAR 1F7C
ENCODING 8060
SWIDTH 720 0
DWIDTH 12 0
BBX 11 14 1 0
BITMAP
1000
3800
0C00
0400
0000
0000
6080
C1C0
CCC0
CC60
CC60
CCC0
FFC0
7380
ENDCHAR
STARTCHAR 1F7D
ENCODING 8061
SWIDTH 720 0
DWIDTH 12 0
BBX 11 14 1 0
BITMAP
0200
0700
0600
0C00
0000
0000
6080
C1C0
CCC0
CC60
CC60
CCC0
FFC0
7380
ENDCHAR
STARTCHAR 1F80
ENCODING 8064
SWIDTH 600 0
DWIDTH 10 0
BBX 9 16 1 -3
BITMAP
1800
0800
1800
0000
0000
3B00
FF00
C600
C600
C600
C600
FF80
7B80
0000
1800
0C00
ENDCHAR
STARTCHAR 1F81
ENCODING 8065
SWIDTH 600 0
DWIDTH 10 0
BBX 9 16 1 -3
BITMAP
1800
3000
1800
0000
0000
3B00
FF00
C600
C600
C600
C600
FF80
7B80
0000
1800
0C00
ENDCHAR
STARTCHAR 1F82
ENCODING 8066
SWIDTH 600 0
DWIDTH 10 0
BBX 9 16 1 -3
BITMAP
6C00
2C00
6400
0400
0000
3B00
FF00
C600
C600
C600
C600
FF80
7B80
0000
1800
0C00
ENDCHAR
STARTCHAR 1F83
ENCODING 8067
SWIDTH 600 0
DWIDTH 10 0
BBX 9 16 1 -3
BITMAP
6C00
4C00
6400
0400
0000
3B00
FF00
C600
C600
C600
C600
FF80
7B80
0000
1800
0C00
ENDCHAR
STARTCHAR 1F84
ENCODING 8068
SWIDTH 600 0
DWIDTH 10 0
BBX 9 16 1 -3
BITMAP
6400
2C00
6C00
0800
0000
3B00
FF00
C600
C600
C600
C600
FF80
7B80
0000
1800
0C00
ENDCHAR
STARTCHAR 1F85
ENCODING 8069
SWIDTH 600 0
DWIDTH 10 0
BBX 9 16 1 -3
BITMAP
3400
4C00
2C00
0800
0000
3B00
FF00
C600
C600
C600
C600
FF80
7B80
0000
1800
0C00
ENDCHAR
STARTCHAR 1F86
ENCODING 8070
SWIDTH 600 0
DWIDTH 10 0
BBX 9 19 1 -3
BITMAP
2400
7C00
0000
1800
0800
1800
0000
0000
3B00
FF00
C600
C600
C600
C600
FF80
7B80
0000
1800
0C00
ENDCHAR
STARTCHAR 1F87
ENCODING 8071
SWIDTH 600 0
DWIDTH 10 0
BBX 9 19 1 -3
BITMAP
2400
7C00
0000
1800
1000
1800
0000
0000
3B00
FF00
C600
C600
C600
C600
FF80
7B80
0000
1800
0C00
ENDCHAR
STARTCHAR 1F88
ENCODING 8072
SWIDTH 900 0
DWIDTH 15 0
BBX 15 11 0 0
BITMAP
CE00
CE00
6B00
7B00
990C
118C
3F8C
3F8C
30CC
60CE
60EE
ENDCHAR
STARTCHAR 1F89
ENCODING 8073
SWIDTH 900 0
DWIDTH 15 0
BBX 15 11 0 0
BITMAP
4E00
EE00
8B00
DB00
5B1C
1198
3F98
3F98
30D8
60CE
60CE
ENDCHAR
STARTCHAR 1F8A
ENCODING 8074
SWIDTH 1080 0
DWIDTH 18 0
BBX 18 11 0 0
BITMAP
99C000
D9C000
5B4000
4B6000
826300
062300
07F300
07F300
0C3300
0C1B80
0C19C0
ENDCHAR
STARTCHAR 1F8B
ENCODING 8075
SWIDTH 1080 0
DWIDTH 18 0
BBX 18 11 0 0
BITMAP
59C000
D9C000
9B4000
8B6000
426300
062300
07F300
07F300
0C3300
0C1B80
1C19C0
ENDCHAR
STARTCHAR 1F8C
ENCODING 8076
SWIDTH 1080 0
DWIDTH 18 0
BBX 17 11 0 0
BITMAP
99C000
D9C000
53C000
536000
826300
066300
07E300
07F300
0C3300
0C3380
1C1980
ENDCHAR
STARTCHAR 1F8D
ENCODING 8077
SWIDTH 1080 0
DWIDTH 18 0
BBX 17 11 0 0
BITMAP
598000
D9C000
93C000
934000
426300
066300
07E300
07F300
0C3300
0C3380
1C1980
ENDCHAR
STARTCHAR 1F8E
ENCODING 8078
SWIDTH 960 0
DWIDTH 16 0
BBX 15 11 0 0
BITMAP
F700
F700
2D00
CD80
098C
198C
1FCC
1FCC
30CC
306E
7066
ENDCHAR
STARTCHAR 1F8F
ENCODING 8079
SWIDTH 960 0
DWIDTH 16 0
BBX 15 11 0 0
BITMAP
F700
F700
4D00
4D80
098C
198C
1FCC
1FCC
30CC
306E
7066
ENDCHAR
STARTCHAR 1F90
ENCODING 8080
SWIDTH 540 0
DWIDTH 9 0
BBX 7 16 1 -3
BITMAP
18
0C
18
00
00
DC
FE
E6
C6
C6
C6
C6
C6
06
C6
66
ENDCHAR
STARTCHAR 1F91
ENCODING 8081
SWIDTH 540 0
DWIDTH 9 0
BBX 7 16 1 -3
BITMAP
18
10
18
00
00
DC
FE
E6
C6
C6
C6
C6
C6
06
C6
66
ENDCHAR
STARTCHAR 1F92
ENCODING 8082
SWIDTH 540 0
DWIDTH 9 0
BBX 7 16 1 -3
BITMAP
6C
3C
24
04
00
DC
FE
E6
C6
C6
C6
C6
C6
06
C6
66
ENDCHAR
STARTCHAR 1F93
ENCODING 8083
SWIDTH 540 0
DWIDTH 9 0
BBX 7 16 1 -3
BITMAP
3C
4C
24
04
00
DC
FE
E6
C6
C6
C6
C6
C6
06
C6
66
ENDCHAR
STARTCHAR 1F94
ENCODING 8084
SWIDTH 540 0
DWIDTH 9 0
BBX 7 16 1 -3
BITMAP
66
34
2C
0C
00
DC
FE
E6
C6
C6
C6
C6
C6
06
C6
66
ENDCHAR
STARTCHAR 1F95
ENCODING 8085
SWIDTH 540 0
DWIDTH 9 0
BBX 7 16 1 -3
BITMAP
34
64
2C
08
00
DC
FE
E6
C6
C6
C6
C6
C6
06
C6
66
ENDCHAR
STARTCHAR 1F96
ENCODING 8086
SWIDTH 540 0
DWIDTH 9 0
BBX 7 19 1 -3
BITMAP
34
2E
00
18
08
18
00
00
DC
FE
E6
C6
C6
C6
C6
C6
06
C6
66
ENDCHAR
STARTCHAR 1F97
ENCODING 8087
SWIDTH 540 0
DWIDTH 9 0
BBX 7 19 1 -3
BITMAP
34
2E
00
18
10
18
00
00
DC
FE
E6
C6
C6
C6
C6
C6
06
C6
66
ENDCHAR
STARTCHAR 1F98
ENCODING 8088
SWIDTH 1080 0
DWIDTH 18 0
BBX 18 11 0 0
BITMAP
CC3000
CC3000
6C3000
4C3000
8FF180
0FF180
0C3180
0C3180
0C3180
0C31C0
0C31C0
ENDCHAR
STARTCHAR 1F99
ENCODING 8089
SWIDTH 1080 0
DWIDTH 18 0
BBX 18 11 0 0
BITMAP
4C3000
EC3000
8C3000
CC3000
4FF180
0FF180
0C3180
0C3180
0C3180
0C31C0
0C31C0
ENDCHAR
STARTCHAR 1F9A
ENCODING 8090
SWIDTH 1260 0
DWIDTH 21 0
BBX 21 11 0 0
BITMAP
9B0600
DB0600
5B0600
4B0600
83FE60
03FE60
030660
030660
030660
030670
030638
ENDCHAR
STARTCHAR 1F9B
ENCODING 8091
SWIDTH 1260 0
DWIDTH 21 0
BBX 21 11 0 0
BITMAP
5B0600
DB0600
9B0600
8B0600
43FE60
03FE60
030660
030660
030660
030670
030638
ENDCHAR
STARTCHAR 1F9C
ENCODING 8092
SWIDTH 1260 0
DWIDTH 21 0
BBX 20 11 0 0
BITMAP
9B0600
DB0600
530600
530600
83FE60
03FE60
030660
030660
030660
030670
030630
ENDCHAR
STARTCHAR 1F9D
ENCODING 8093
SWIDTH 1260 0
DWIDTH 21 0
BBX 20 11 0 0
BITMAP
5B0600
DB0600
930600
930600
43FE60
03FE60
030660
030660
030660
030670
030630
ENDCHAR
STARTCHAR 1F9E
ENCODING 8094
SWIDTH 1140 0
DWIDTH 19 0
BBX 19 11 0 0
BITMAP
F61800
F61800
261800
C61800
07F8C0
07F8C0
0618C0
0618C0
0618C0
0618E0
061860
ENDCHAR
STARTCHAR 1F9F
ENCODING 8095
SWIDTH 1140 0
DWIDTH 19 0
BBX 19 11 0 0
BITMAP
F61800
F61800
461800
461800
07F8C0
07F8C0
0618C0
0618C0
0618C0
0618E0
061860
ENDCHAR
STARTCHAR 1FA0
ENCODING 8096
SWIDTH 720 0
DWIDTH 12 0
BBX 11 16 1 -3
BITMAP
0C00
0600
0C00
0000
0000
6080
C1C0
CCC0
CC60
CC60
CCC0
FFC0
7380
0000
0C00
0600
ENDCHAR
STARTCHAR 1FA1
ENCODING 8097
SWIDTH 720 0
DWIDTH 12 0
BBX 11 16 1 -3
BITMAP
0C00
0A00
0C00
0000
0000
6080
C1C0
CCC0
CC60
CC60
CCC0
FFC0
7380
0000
0C00
0600
ENDCHAR
STARTCHAR 1FA2
ENCODING 8098
SWIDTH 720 0
DWIDTH 12 0
BBX 11 16 1 -3
BITMAP
3600
1A00
1200
0200
0000
6080
C1C0
CCC0
CC60
CC60
CCC0
FFC0
7380
0000
0C00
0600
ENDCHAR
STARTCHAR 1FA3
ENCODING 8099
SWIDTH 720 0
DWIDTH 12 0
BBX 11 16 1 -3
BITMAP
1E00
2600
1200
0200
0000
6080
C1C0
CCC0
CC60
CC60
CCC0
FFC0
7380
0000
0C00
0600
ENDCHAR
STARTCHAR 1FA4
ENCODING 8100
SWIDTH 720 0
DWIDTH 12 0
BBX 11 16 1 -3
BITMAP
3300
1A00
1200
0600
0000
6080
C1C0
CCC0
CC60
CC60
CCC0
FFC0
7380
0000
0C00
0600
ENDCHAR
STARTCHAR 1FA5
ENCODING 8101
SWIDTH 720 0
DWIDTH 12 0
BBX 11 16 1 -3
BITMAP
1B00
3200
1600
0600
0000
6080
C1C0
CCC0
CC60
CC60
CCC0
FFC0
7380
0000
0C00
0600
ENDCHAR
STARTCHAR 1FA6
ENCODING 8102
SWIDTH 720 0
DWIDTH 12 0
BBX 11 19 1 -3
BITMAP
0A00
1700
0000
0C00
0400
0C00
0000
0000
6080
C1C0
CCC0
CC60
CC60
CCC0
FFC0
7380
0000
0C00
0600
ENDCHAR
STARTCHAR 1FA7
ENCODING 8103
SWIDTH 720 0
DWIDTH 12 0
BBX 11 19 1 -3
BITMAP
0A00
1700
0000
0C00
0800
0C00
0000
0000
6080
C1C0
CCC0
CC60
CC60
CCC0
FFC0
7380
0000
0C00
0600
ENDCHAR
STARTCHAR 1FA8
ENCODING 8104
SWIDTH 1140 0
DWIDTH 19 0
BBX 18 11 0 0
BITMAP
C3C000
CFF000
6C3000
583800
981980
181980
181980
0C3180
0C6180
1E79C0
1E78C0
ENDCHAR
STARTCHAR 1FA9
ENCODING 8105
SWIDTH 1080 0
DWIDTH 18 0
BBX 18 11 0 0
BITMAP
47C000
EFE000
9C7000
D83000
583980
181980
183180
183180
0C6180
1E79C0
1E79C0
ENDCHAR
STARTCHAR 1FAA
ENCODING 8106
SWIDTH 1260 0
DWIDTH 21 0
BBX 21 11 0 0
BITMAP
98F800
D9FC00
5B8E00
4B0600
830670
030660
030660
030660
018C60
07DF38
07DF38
ENDCHAR
STARTCHAR 1FAB
ENCODING 8107
SWIDTH 1260 0
DWIDTH 21 0
BBX 21 11 0 0
BITMAP
58F800
D9FC00
9B8E00
8B0600
470660
030660
030660
030660
018C60
07DF38
07DF38
ENDCHAR
STARTCHAR 1FAC
ENCODING 8108
SWIDTH 1260 0
DWIDTH 21 0
BBX 21 11 0 0
BITMAP
98F800
D9FC00
538E00
530600
860660
060660
030660
030660
018C60
079E78
079E38
ENDCHAR
STARTCHAR 1FAD
ENCODING 8109
SWIDTH 1260 0
DWIDTH 21 0
BBX 21 11 0 0
BITMAP
58F800
D9FC00
938E00
930600
460660
060660
030660
030660
018C60
079E70
079E38
ENDCHAR
STARTCHAR 1FAE
ENCODING 8110
SWIDTH 1140 0
DWIDTH 19 0
BBX 19 11 0 0
BITMAP
F3E000
F7F000
2E3800
CC1800
0C18C0
0C18C0
0C1880
0C1880
063080
1F7CE0
1F7CE0
ENDCHAR
STARTCHAR 1FAF
ENCODING 8111
SWIDTH 1140 0
DWIDTH 19 0
BBX 19 11 0 0
BITMAP
F3E000
F7F000
4E3800
4C1800
0C18C0
0C18C0
0C1880
0C1880
063080
1F7CE0
1F7CE0
ENDCHAR
STARTCHAR 1FB0
ENCODING 8112
SWIDTH 600 0
DWIDTH 10 0
BBX 9 13 1 0
BITMAP
4600
6400
3C00
0000
0000
3B00
FF00
C600
C600
C600
C600
FF80
7B80
ENDCHAR
STARTCHAR 1FB1
ENCODING 8113
SWIDTH 600 0
DWIDTH 10 0
BBX 9 11 1 0
BITMAP
3C00
0000
0000
3B00
FF00
C600
C600
C600
C600
FF80
7B80
ENDCHAR
STARTCHAR 1FB2
ENCODING 8114
SWIDTH 600 0
DWIDTH 10 0
BBX 9 17 1 -3
BITMAP
2000
7000
3000
1800
0000
0000
3B00
FF00
C600
C600
C600
C600
FF80
7B80
0000
1800
0C00
ENDCHAR
STARTCHAR 1FB3
ENCODING 8115
SWIDTH 600 0
DWIDTH 10 0
BBX 9 11 1 -3
BITMAP
3B00
FF00
C600
C600
C600
C600
FF80
7B80
0000
1800
0C00
ENDCHAR
STARTCHAR 1FB4
ENCODING 8116
SWIDTH 600 0
DWIDTH 10 0
BBX 9 17 1 -3
BITMAP
0400
0E00
1800
1000
0000
0000
3B00
FF00
C600
C600
C600
C600
FF80
7B80
0000
1800
0C00
ENDCHAR
STARTCHAR 1FB6
ENCODING 8118
SWIDTH 600 0
DWIDTH 10 0
BBX 9 12 1 0
BITMAP
7200
4E00
0000
0000
3B00
FF00
C600
C600
C600
C600
FF80
7B80
ENDCHAR
STARTCHAR 1FB7
ENCODING 8119
SWIDTH 600 0
DWIDTH 10 0
BBX 9 15 1 -3
BITMAP
7200
4E00
0000
0000
3B00
FF00
C600
C600
C600
C600
FF80
7B80
0000
1800
0C00
ENDCHAR
STARTCHAR 1FB8
ENCODING 8120
SWIDTH 540 0
DWIDTH 9 0
BBX 10 14 0 0
BITMAP
2200
1E00
0000
1C00
1C00
1600
3600
3200
2300
7F00
7F00
6180
C180
C1C0
ENDCHAR
STARTCHAR 1FB9
ENCODING 8121
SWIDTH 540 0
DWIDTH 9 0
BBX 10 13 0 0
BITMAP
3E00
0000
1C00
1C00
1600
3600
3200
2300
7F00
7F00
6180
C180
C1C0
ENDCHAR
STARTCHAR 1FBA
ENCODING 8122
SWIDTH 600 0
DWIDTH 10 0
BBX 10 11 0 0
BITMAP
CE00
CE00
DA00
5B00
1300
3100
3F80
3F80
6180
60C0
60C0
ENDCHAR
STARTCHAR 1FBB
ENCODING 8123
SWIDTH 600 0
DWIDTH 10 0
BBX 10 11 0 0
BITMAP
CE00
CE00
DA00
9B00
1300
3100
3F80
3F80
6180
60C0
60C0
ENDCHAR
STARTCHAR 1FBC
ENCODING 8124
SWIDTH 840 0
DWIDTH 14 0
BBX 14 11 0 0
BITMAP
1C00
1C00
1600
3600
3218
2318
7F18
7F18
6198
C19C
C1DC
ENDCHAR
STARTCHAR 1FBD
ENCODING 8125
SWIDTH 540 0
DWIDTH 9 0
BBX 3 3 3 10
BITMAP
E0
20
60
ENDCHAR
STARTCHAR 1FBE
ENCODING 8126
SWIDTH 300 0
DWIDTH 5 0
BBX 4 7 1 0
BITMAP
C0
C0
C0
C0
C0
E0
70
ENDCHAR
STARTCHAR 1FBF
ENCODING 8127
SWIDTH 540 0
DWIDTH 9 0
BBX 3 3 3 10
BITMAP
E0
20
60
ENDCHAR
STARTCHAR 1FC0
ENCODING 8128
SWIDTH 540 0
DWIDTH 9 0
BBX 6 2 2 10
BITMAP
EC
B8
ENDCHAR
STARTCHAR 1FC1
ENCODING 8129
SWIDTH 540 0
DWIDTH 9 0
BBX 5 5 2 10
BITMAP
48
B8
00
C8
D8
ENDCHAR
STARTCHAR 1FC2
ENCODING 8130
SWIDTH 540 0
DWIDTH 9 0
BBX 7 17 1 -3
BITMAP
20
70
38
08
00
00
DC
FE
E6
C6
C6
C6
C6
C6
06
C6
66
ENDCHAR
STARTCHAR 1FC3
ENCODING 8131
SWIDTH 540 0
DWIDTH 9 0
BBX 7 11 1 -3
BITMAP
DC
FE
E6
C6
C6
C6
C6
C6
06
C6
66
ENDCHAR
STARTCHAR 1FC4
ENCODING 8132
SWIDTH 540 0
DWIDTH 9 0
BBX 7 17 1 -3
BITMAP
04
0E
0C
18
00
00
DC
FE
E6
C6
C6
C6
C6
C6
06
C6
66
ENDCHAR
STARTCHAR 1FC6
ENCODING 8134
SWIDTH 540 0
DWIDTH 9 0
BBX 7 15 1 -3
BITMAP
32
4E
00
00
DC
FE
E6
C6
C6
C6
C6
C6
06
06
06
ENDCHAR
STARTCHAR 1FC7
ENCODING 8135
SWIDTH 540 0
DWIDTH 9 0
BBX 7 15 1 -3
BITMAP
32
4E
00
00
DC
FE
E6
C6
C6
C6
C6
C6
06
C6
66
ENDCHAR
STARTCHAR 1FC8
ENCODING 8136
SWIDTH 660 0
DWIDTH 11 0
BBX 10 11 0 0
BITMAP
9FC0
DFC0
D800
D800
1F80
1F80
1800
1800
1800
1FC0
1FC0
ENDCHAR
STARTCHAR 1FC9
ENCODING 8137
SWIDTH 660 0
DWIDTH 11 0
BBX 10 11 0 0
BITMAP
DFC0
DFC0
9800
9800
1F80
1F80
1800
1800
1800
1FC0
1FC0
ENDCHAR
STARTCHAR 1FCA
ENCODING 8138
SWIDTH 780 0
DWIDTH 13 0
BBX 11 11 0 0
BITMAP
9860
D860
D860
D860
1FE0
1FE0
1860
1860
1860
1860
1860
ENDCHAR
STARTCHAR 1FCB
ENCODING 8139
SWIDTH 780 0
DWIDTH 13 0
BBX 11 11 0 0
BITMAP
D860
D860
9860
9860
1FE0
1FE0
1860
1860
1860
1860
1860
ENDCHAR
STARTCHAR 1FCC
ENCODING 8140
SWIDTH 960 0
DWIDTH 16 0
BBX 15 11 1 0
BITMAP
C180
C180
C180
C180
FF98
FF98
C198
C198
C198
C18E
C18E
ENDCHAR
STARTCHAR 1FCD
ENCODING 8141
SWIDTH 540 0
DWIDTH 9 0
BBX 5 4 2 9
BITMAP
D0
58
D8
08
ENDCHAR
STARTCHAR 1FCE
ENCODING 8142
SWIDTH 540 0
DWIDTH 9 0
BBX 5 4 2 9
BITMAP
D8
58
D0
10
ENDCHAR
STARTCHAR 1FCF
ENCODING 8143
SWIDTH 540 0
DWIDTH 9 0
BBX 5 6 2 10
BITMAP
48
B8
00
30
50
20
ENDCHAR
STARTCHAR 1FD0
ENCODING 8144
SWIDTH 300 0
DWIDTH 5 0
BBX 6 13 -1 0
BITMAP
C4
4C
38
00
00
30
30
30
30
30
30
38
18
ENDCHAR
STARTCHAR 1FD1
ENCODING 8145
SWIDTH 300 0
DWIDTH 5 0
BBX 5 11 0 0
BITMAP
F8
00
00
60
60
60
60
60
60
70
30
ENDCHAR
STARTCHAR 1FD2
ENCODING 8146
SWIDTH 300 0
DWIDTH 5 0
BBX 6 14 -1 0
BITMAP
20
30
D4
DC
00
00
30
30
30
30
30
30
38
18
ENDCHAR
STARTCHAR 1FD3
ENCODING 8147
SWIDTH 300 0
DWIDTH 5 0
BBX 6 14 -1 0
BITMAP
18
10
D4
DC
20
00
30
30
30
30
30
30
38
18
ENDCHAR
STARTCHAR 1FD6
ENCODING 8150
SWIDTH 300 0
DWIDTH 5 0
BBX 6 12 -1 0
BITMAP
64
9C
00
00
30
30
30
30
30
30
38
18
ENDCHAR
STARTCHAR 1FD7
ENCODING 8151
SWIDTH 300 0
DWIDTH 5 0
BBX 5 15 0 0
BITMAP
C8
B8
00
98
98
00
00
60
60
60
60
60
60
70
30
ENDCHAR
STARTCHAR 1FD8
ENCODING 8152
SWIDTH 300 0
DWIDTH 5 0
BBX 5 14 0 0
BITMAP
88
70
00
60
60
60
60
60
60
60
60
60
60
60
ENDCHAR
STARTCHAR 1FD9
ENCODING 8153
SWIDTH 300 0
DWIDTH 5 0
BBX 5 13 0 0
BITMAP
F8
00
60
60
60
60
60
60
60
60
60
60
60
ENDCHAR
STARTCHAR 1FDA
ENCODING 8154
SWIDTH 360 0
DWIDTH 6 0
BBX 5 11 0 0
BITMAP
98
D8
D8
D8
18
18
18
18
18
18
18
ENDCHAR
STARTCHAR 1FDB
ENCODING 8155
SWIDTH 360 0
DWIDTH 6 0
BBX 5 11 0 0
BITMAP
D8
D8
98
98
18
18
18
18
18
18
18
ENDCHAR
STARTCHAR 1FDD
ENCODING 8157
SWIDTH 540 0
DWIDTH 9 0
BBX 5 4 2 9
BITMAP
D0
90
D8
08
ENDCHAR
STARTCHAR 1FDE
ENCODING 8158
SWIDTH 540 0
DWIDTH 9 0
BBX 5 4 2 9
BITMAP
D8
98
D0
10
ENDCHAR
STARTCHAR 1FDF
ENCODING 8159
SWIDTH 540 0
DWIDTH 9 0
BBX 5 6 2 10
BITMAP
48
B8
00
30
60
20
ENDCHAR
STARTCHAR 1FE0
ENCODING 8160
SWIDTH 540 0
DWIDTH 9 0
BBX 7 13 1 0
BITMAP
44
4C
38
00
00
CE
C6
C6
C6
C6
CE
FC
78
ENDCHAR
STARTCHAR 1FE1
ENCODING 8161
SWIDTH 540 0
DWIDTH 9 0
BBX 7 11 1 0
BITMAP
7C
00
00
CE
C6
C6
C6
C6
CE
FC
78
ENDCHAR
STARTCHAR 1FE2
ENCODING 8162
SWIDTH 540 0
DWIDTH 9 0
BBX 7 14 1 0
BITMAP
30
30
D4
D4
00
00
CE
C6
C6
C6
C6
CE
FC
78
ENDCHAR
STARTCHAR 1FE3
ENCODING 8163
SWIDTH 540 0
DWIDTH 9 0
BBX 7 14 1 0
BITMAP
18
10
D4
D4
00
00
CE
C6
C6
C6
C6
CE
FC
78
ENDCHAR
STARTCHAR 1FE4
ENCODING 8164
SWIDTH 600 0
DWIDTH 10 0
BBX 8 16 1 -3
BITMAP
18
0C
18
00
00
3C
7E
E7
C3
C3
C7
FE
DC
C0
C0
C0
ENDCHAR
STARTCHAR 1FE5
ENCODING 8165
SWIDTH 600 0
DWIDTH 10 0
BBX 8 16 1 -3
BITMAP
18
10
38
00
00
3C
7E
E7
C3
C3
C7
FE
DC
C0
C0
C0
ENDCHAR
STARTCHAR 1FE6
ENCODING 8166
SWIDTH 540 0
DWIDTH 9 0
BBX 7 12 1 0
BITMAP
64
DC
00
00
CE
C6
C6
C6
C6
CE
FC
78
ENDCHAR
STARTCHAR 1FE7
ENCODING 8167
SWIDTH 540 0
DWIDTH 9 0
BBX 7 15 1 0
BITMAP
64
5C
00
4C
4C
00
00
CE
C6
C6
C6
C6
CE
FC
78
ENDCHAR
STARTCHAR 1FE8
ENCODING 8168
SWIDTH 540 0
DWIDTH 9 0
BBX 9 14 0 0
BITMAP
2200
3C00
0000
C380
6300
6600
3600
3400
1C00
1800
1800
1800
1800
1800
ENDCHAR
STARTCHAR 1FE9
ENCODING 8169
SWIDTH 540 0
DWIDTH 9 0
BBX 9 13 0 0
BITMAP
3E00
0000
C380
6300
6600
3600
3400
1C00
1800
1800
1800
1800
1800
ENDCHAR
STARTCHAR 1FEA
ENCODING 8170
SWIDTH 660 0
DWIDTH 11 0
BBX 11 11 0 0
BITMAP
9860
D8C0
CCC0
CC80
0780
0700
0300
0300
0300
0300
0300
ENDCHAR
STARTCHAR 1FEB
ENCODING 8171
SWIDTH 660 0
DWIDTH 11 0
BBX 11 11 0 0
BITMAP
D860
D8C0
8CC0
8C80
0780
0700
0300
0300
0300
0300
0300
ENDCHAR
STARTCHAR 1FEC
ENCODING 8172
SWIDTH 720 0
DWIDTH 12 0
BBX 12 11 0 0
BITMAP
4FC0
EFE0
8C70
CC30
4C60
0FE0
0FC0
0C00
0C00
0C00
0C00
ENDCHAR
STARTCHAR 1FED
ENCODING 8173
SWIDTH 540 0
DWIDTH 9 0
BBX 6 4 2 10
BITMAP
60
20
A8
AC
ENDCHAR
STARTCHAR 1FEE
ENCODING 8174
SWIDTH 540 0
DWIDTH 9 0
BBX 6 4 2 10
BITMAP
30
30
A8
AC
ENDCHAR
STARTCHAR 1FEF
ENCODING 8175
SWIDTH 540 0
DWIDTH 9 0
BBX 2 4 3 10
BITMAP
C0
C0
40
40
ENDCHAR
STARTCHAR 1FF2
ENCODING 8178
SWIDTH 720 0
DWIDTH 12 0
BBX 11 17 1 -3
BITMAP
1000
3800
0C00
0400
0000
0000
6080
C1C0
CCC0
CC60
CC60
CCC0
FFC0
7380
0000
0C00
0600
ENDCHAR
STARTCHAR 1FF3
ENCODING 8179
SWIDTH 720 0
DWIDTH 12 0
BBX 11 11 1 -3
BITMAP
6080
C1C0
CCC0
CC60
CC60
CCC0
FFC0
7380
0000
0C00
0600
ENDCHAR
STARTCHAR 1FF4
ENCODING 8180
SWIDTH 720 0
DWIDTH 12 0
BBX 11 17 1 -3
BITMAP
0200
0700
0600
0C00
0000
0000
6080
C1C0
CCC0
CC60
CC60
CCC0
FFC0
7380
0000
0C00
0600
ENDCHAR
STARTCHAR 1FF6
ENCODING 8182
SWIDTH 720 0
DWIDTH 12 0
BBX 11 12 1 0
BITMAP
1900
2700
0000
0000
6080
C1C0
CCC0
CC60
CC60
CCC0
FFC0
7380
ENDCHAR
STARTCHAR 1FF7
ENCODING 8183
SWIDTH 720 0
DWIDTH 12 0
BBX 11 15 1 -3
BITMAP
1900
2700
0000
0000
6080
C1C0
CCC0
CC60
CC60
CCC0
FFC0
7380
0000
0C00
0600
ENDCHAR
STARTCHAR 1FF8
ENCODING 8184
SWIDTH 780 0
DWIDTH 13 0
BBX 12 11 0 0
BITMAP
8780
CFE0
D860
F830
3030
3030
3030
3830
1860
0FE0
0780
ENDCHAR
STARTCHAR 1FF9
ENCODING 8185
SWIDTH 780 0
DWIDTH 13 0
BBX 12 11 0 0
BITMAP
C780
DFE0
9860
B070
3030
3030
3030
3070
1860
1FC0
0780
ENDCHAR
STARTCHAR 1FFA
ENCODING 8186
SWIDTH 780 0
DWIDTH 13 0
BBX 12 11 0 0
BITMAP
87C0
CFE0
DC70
F830
3030
3030
1030
1820
0C60
3CF0
3CF0
ENDCHAR
STARTCHAR 1FFB
ENCODING 8187
SWIDTH 780 0
DWIDTH 13 0
BBX 12 11 0 0
BITMAP
C780
DFE0
9860
B830
3030
3030
3030
1860
0C60
3CF0
3CF0
ENDCHAR
STARTCHAR 1FFC
ENCODING 8188
SWIDTH 960 0
DWIDTH 16 0
BBX 15 11 1 0
BITMAP
1E00
7F80
6180
C1C0
C0CC
C0CC
C0CC
618C
630C
F3CE
F3C6
ENDCHAR
STARTCHAR 1FFD
ENCODING 8189
SWIDTH 540 0
DWIDTH 9 0
BBX 3 4 4 9
BITMAP
E0
C0
C0
80
ENDCHAR
STARTCHAR 1FFE
ENCODING 8190
SWIDTH 540 0
DWIDTH 9 0
BBX 3 3 3 10
BITMAP
60
C0
C0
ENDCHAR
STARTCHAR 2007
ENCODING 8199
SWIDTH 540 0
DWIDTH 9 0
BBX 0 0 0 0
BITMAP
ENDCHAR
STARTCHAR 2012
ENCODING 8210
SWIDTH 540 0
DWIDTH 9 0
BBX 7 2 1 3
BITMAP
FE
FE
ENDCHAR
STARTCHAR 2013
ENCODING 8211
SWIDTH 480 0
DWIDTH 8 0
BBX 6 2 1 3
BITMAP
FC
FC
ENDCHAR
STARTCHAR 2014
ENCODING 8212
SWIDTH 840 0
DWIDTH 14 0
BBX 12 2 1 3
BITMAP
FFF0
FFF0
ENDCHAR
STARTCHAR 2015
ENCODING 8213
SWIDTH 840 0
DWIDTH 14 0
BBX 12 2 1 3
BITMAP
FFF0
FFF0
ENDCHAR
STARTCHAR 2016
ENCODING 8214
SWIDTH 420 0
DWIDTH 7 0
BBX 4 17 2 -4
BITMAP
B0
B0
B0
B0
B0
B0
B0
B0
B0
B0
B0
B0
B0
B0
B0
B0
B0
ENDCHAR
STARTCHAR 2018
ENCODING 8216
SWIDTH 300 0
DWIDTH 5 0
BBX 3 5 1 7
BITMAP
40
E0
80
C0
C0
ENDCHAR
STARTCHAR 2019
ENCODING 8217
SWIDTH 300 0
DWIDTH 5 0
BBX 3 5 1 7
BITMAP
C0
E0
20
40
80
ENDCHAR
STARTCHAR 201A
ENCODING 8218
SWIDTH 300 0
DWIDTH 5 0
BBX 3 5 1 -2
BITMAP
C0
E0
20
40
80
ENDCHAR
STARTCHAR 201C
ENCODING 8220
SWIDTH 480 0
DWIDTH 8 0
BBX 6 5 1 7
BITMAP
44
E8
88
DC
CC
ENDCHAR
STARTCHAR 201D
ENCODING 8221
SWIDTH 480 0
DWIDTH 8 0
BBX 6 5 1 7
BITMAP
CC
EC
24
4C
88
ENDCHAR
STARTCHAR 201E
ENCODING 8222
SWIDTH 480 0
DWIDTH 8 0
BBX 6 5 1 -2
BITMAP
CC
EC
24
4C
88
ENDCHAR
STARTCHAR 2020
ENCODING 8224
SWIDTH 480 0
DWIDTH 8 0
BBX 6 13 1 -1
BITMAP
30
30
FC
FC
30
30
30
30
30
30
30
30
30
ENDCHAR
STARTCHAR 2021
ENCODING 8225
SWIDTH 480 0
DWIDTH 8 0
BBX 6 13 1 -1
BITMAP
30
30
30
FC
30
30
30
30
30
FC
FC
30
30
ENDCHAR
STARTCHAR 2022
ENCODING 8226
SWIDTH 360 0
DWIDTH 6 0
BBX 4 4 1 2
BITMAP
E0
F0
F0
E0
ENDCHAR
STARTCHAR 2026
ENCODING 8230
SWIDTH 960 0
DWIDTH 16 0
BBX 14 3 1 0
BITMAP
630C
E38C
630C
ENDCHAR
STARTCHAR 202F
ENCODING 8239
SWIDTH 120 0
DWIDTH 2 0
BBX 0 0 0 0
BITMAP
ENDCHAR
STARTCHAR 2030
ENCODING 8240
SWIDTH 1260 0
DWIDTH 21 0
BBX 19 11 1 0
BITMAP
70C000
F08000
990000
990000
9A71C0
F2F3E0
749B20
0D9A20
089B20
18F3E0
3071C0
ENDCHAR
STARTCHAR 2032
ENCODING 8242
SWIDTH 300 0
DWIDTH 5 0
BBX 3 5 1 7
BITMAP
60
40
40
C0
C0
ENDCHAR
STARTCHAR 2033
ENCODING 8243
SWIDTH 480 0
DWIDTH 8 0
BBX 6 5 1 7
BITMAP
6C
4C
4C
CC
C8
ENDCHAR
STARTCHAR 2035
ENCODING 8245
SWIDTH 300 0
DWIDTH 5 0
BBX 2 5 1 7
BITMAP
C0
C0
C0
40
40
ENDCHAR
STARTCHAR 2039
ENCODING 8249
SWIDTH 300 0
DWIDTH 5 0
BBX 3 7 1 1
BITMAP
20
40
C0
80
C0
40
20
ENDCHAR
STARTCHAR 203A
ENCODING 8250
SWIDTH 300 0
DWIDTH 5 0
BBX 3 7 1 1
BITMAP
80
C0
60
20
60
C0
80
ENDCHAR
STARTCHAR 203C
ENCODING 8252
SWIDTH 600 0
DWIDTH 10 0
BBX 7 12 1 0
BITMAP
66
66
66
66
46
46
46
42
00
66
E6
66
ENDCHAR
STARTCHAR 203D
ENCODING 8253
SWIDTH 480 0
DWIDTH 8 0
BBX 7 12 0 0
BITMAP
3C
7E
C6
16
16
1C
18
10
00
18
38
18
ENDCHAR
STARTCHAR 203E
ENCODING 8254
SWIDTH 540 0
DWIDTH 9 0
BBX 8 2 0 9
BITMAP
FF
FF
ENDCHAR
STARTCHAR 203F
ENCODING 8255
SWIDTH 0 0
DWIDTH 0 0
BBX 16 4 -8 -4
BITMAP
8002
700F
1FF8
07E0
ENDCHAR
STARTCHAR 2044
ENCODING 8260
SWIDTH 120 0
DWIDTH 2 0
BBX 7 12 -3 0
BITMAP
02
06
04
0C
08
18
10
30
20
60
40
C0
ENDCHAR
STARTCHAR 2047
ENCODING 8263
SWIDTH 840 0
DWIDTH 14 0
BBX 13 12 1 0
BITMAP
78E0
FDF0
8F38
0C18
1830
3060
3060
20C0
0000
30C0
70E0
30C0
ENDCHAR
STARTCHAR 2048
ENCODING 8264
SWIDTH 720 0
DWIDTH 12 0
BBX 10 12 1 0
BITMAP
7980
FC80
8C80
0C80
1880
3080
3080
2080
0000
3080
71C0
3080
ENDCHAR
STARTCHAR 2049
ENCODING 8265
SWIDTH 720 0
DWIDTH 12 0
BBX 10 12 1 0
BITMAP
6380
67C0
6CC0
60C0
40C0
4180
4300
4300
0000
6300
E300
6300
ENDCHAR
STARTCHAR 2070
ENCODING 8304
SWIDTH 360 0
DWIDTH 6 0
BBX 5 7 1 7
BITMAP
70
90
98
98
98
90
70
ENDCHAR
STARTCHAR 2071
ENCODING 8305
SWIDTH 180 0
DWIDTH 3 0
BBX 1 8 1 7
BITMAP
80
80
00
80
80
80
80
80
ENDCHAR
STARTCHAR 2074
ENCODING 8308
SWIDTH 360 0
DWIDTH 6 0
BBX 5 7 1 7
BITMAP
30
70
50
90
F8
10
10
ENDCHAR
STARTCHAR 2075
ENCODING 8309
SWIDTH 360 0
DWIDTH 6 0
BBX 5 7 1 7
BITMAP
F0
C0
C0
F0
18
98
F0
ENDCHAR
STARTCHAR 2076
ENCODING 8310
SWIDTH 360 0
DWIDTH 6 0
BBX 5 7 1 7
BITMAP
70
C0
80
F0
98
98
70
ENDCHAR
STARTCHAR 2077
ENCODING 8311
SWIDTH 360 0
DWIDTH 6 0
BBX 5 7 1 7
BITMAP
F8
10
30
20
60
60
60
ENDCHAR
STARTCHAR 2078
ENCODING 8312
SWIDTH 360 0
DWIDTH 6 0
BBX 5 7 1 7
BITMAP
70
90
D0
60
90
98
F0
ENDCHAR
STARTCHAR 2079
ENCODING 8313
SWIDTH 360 0
DWIDTH 6 0
BBX 5 7 1 7
BITMAP
60
90
98
98
F8
10
E0
ENDCHAR
STARTCHAR 207D
ENCODING 8317
SWIDTH 240 0
DWIDTH 4 0
BBX 3 9 1 6
BITMAP
60
40
C0
C0
80
C0
C0
40
60
ENDCHAR
STARTCHAR 207E
ENCODING 8318
SWIDTH 240 0
DWIDTH 4 0
BBX 2 9 1 6
BITMAP
80
C0
40
40
40
40
40
C0
80
ENDCHAR
STARTCHAR 207F
ENCODING 8319
SWIDTH 360 0
DWIDTH 6 0
BBX 5 5 1 7
BITMAP
F0
98
98
98
98
ENDCHAR
STARTCHAR 2080
ENCODING 8320
SWIDTH 360 0
DWIDTH 6 0
BBX 5 7 1 -3
BITMAP
70
90
98
98
98
90
70
ENDCHAR
STARTCHAR 2081
ENCODING 8321
SWIDTH 360 0
DWIDTH 6 0
BBX 3 7 1 -3
BITMAP
60
E0
20
20
20
20
20
ENDCHAR
STARTCHAR 2082
ENCODING 8322
SWIDTH 360 0
DWIDTH 6 0
BBX 5 7 1 -3
BITMAP
F0
90
10
30
60
E0
F8
ENDCHAR
STARTCHAR 2083
ENCODING 8323
SWIDTH 360 0
DWIDTH 6 0
BBX 5 7 1 -3
BITMAP
F0
90
10
60
10
98
F0
ENDCHAR
STARTCHAR 2084
ENCODING 8324
SWIDTH 360 0
DWIDTH 6 0
BBX 5 7 1 -3
BITMAP
30
70
50
90
F8
10
10
ENDCHAR
STARTCHAR 2085
ENCODING 8325
SWIDTH 360 0
DWIDTH 6 0
BBX 5 7 1 -3
BITMAP
F0
C0
C0
F0
18
98
F0
ENDCHAR
STARTCHAR 2086
ENCODING 8326
SWIDTH 360 0
DWIDTH 6 0
BBX 5 7 1 -3
BITMAP
70
C0
80
F0
98
98
70
ENDCHAR
STARTCHAR 2087
ENCODING 8327
SWIDTH 360 0
DWIDTH 6 0
BBX 5 7 1 -3
BITMAP
F8
10
30
20
60
60
60
ENDCHAR
STARTCHAR 2088
ENCODING 8328
SWIDTH 360 0
DWIDTH 6 0
BBX 5 7 1 -3
BITMAP
70
90
D0
60
90
98
F0
ENDCHAR
STARTCHAR 2089
ENCODING 8329
SWIDTH 360 0
DWIDTH 6 0
BBX 5 7 1 -3
BITMAP
60
90
98
98
F8
10
E0
ENDCHAR
STARTCHAR 208D
ENCODING 8333
SWIDTH 240 0
DWIDTH 4 0
BBX 3 9 1 -4
BITMAP
60
40
C0
C0
80
C0
C0
40
60
ENDCHAR
STARTCHAR 208E
ENCODING 8334
SWIDTH 240 0
DWIDTH 4 0
BBX 2 9 1 -4
BITMAP
80
C0
40
40
40
40
40
C0
80
ENDCHAR
STARTCHAR 2094
ENCODING 8340
SWIDTH 360 0
DWIDTH 6 0
BBX 5 6 0 6
BITMAP
70
08
08
F8
48
70
ENDCHAR
STARTCHAR 20A1
ENCODING 8353
SWIDTH 540 0
DWIDTH 9 0
BBX 7 15 1 -2
BITMAP
0C
14
3C
7E
74
D4
D8
D8
D8
D8
EC
6E
3C
28
30
ENDCHAR
STARTCHAR 20A4
ENCODING 8356
SWIDTH 540 0
DWIDTH 9 0
BBX 7 11 1 0
BITMAP
3C
7E
64
60
FC
FC
FC
FC
20
7E
FE
ENDCHAR
STARTCHAR 20A6
ENCODING 8358
SWIDTH 540 0
DWIDTH 9 0
BBX 9 11 0 0
BITMAP
6200
7200
7200
7200
FF80
6A00
FF80
6E00
6600
6600
6600
ENDCHAR
STARTCHAR 20A7
ENCODING 8359
SWIDTH 540 0
DWIDTH 9 0
BBX 9 11 0 0
BITMAP
7C00
7E00
FF80
FF80
6600
7E00
7C00
6000
6000
6000
6000
ENDCHAR
STARTCHAR 20A9
ENCODING 8361
SWIDTH 540 0
DWIDTH 9 0
BBX 9 11 0 0
BITMAP
C180
C900
D900
5500
5500
FF80
5700
5700
7700
7600
7600
ENDCHAR
STARTCHAR 20AB
ENCODING 8363
SWIDTH 540 0
DWIDTH 9 0
BBX 8 11 1 0
BITMAP
04
3F
04
74
CC
C4
C4
CC
7C
00
FE
ENDCHAR
STARTCHAR 20AC
ENCODING 8364
SWIDTH 540 0
DWIDTH 9 0
BBX 9 11 0 0
BITMAP
0E00
1F00
3100
3000
FE00
6000
FE00
3000
3100
3F80
0E00
ENDCHAR
STARTCHAR 20AE
ENCODING 8366
SWIDTH 540 0
DWIDTH 9 0
BBX 7 11 1 0
BITMAP
FE
FE
30
34
3C
74
BC
70
B0
30
30
ENDCHAR
STARTCHAR 20B1
ENCODING 8369
SWIDTH 540 0
DWIDTH 9 0
BBX 9 11 0 0
BITMAP
7C00
7E00
6600
FF80
6300
FE80
7E00
6000
6000
6000
6000
ENDCHAR
STARTCHAR 20B2
ENCODING 8370
SWIDTH 540 0
DWIDTH 9 0
BBX 7 15 1 -2
BITMAP
18
18
3C
7E
E4
C0
C0
CE
CE
C6
E6
7E
3C
18
18
ENDCHAR
STARTCHAR 20B4
ENCODING 8372
SWIDTH 540 0
DWIDTH 9 0
BBX 8 11 0 0
BITMAP
3C
7E
26
06
FF
1C
FF
60
62
3F
1E
ENDCHAR
STARTCHAR 20B5
ENCODING 8373
SWIDTH 540 0
DWIDTH 9 0
BBX 7 15 1 -2
BITMAP
08
08
3C
7E
6C
C8
C8
C8
C8
C8
6A
7E
3C
08
08
ENDCHAR
STARTCHAR 20B8
ENCODING 8376
SWIDTH 540 0
DWIDTH 9 0
BBX 7 11 1 0
BITMAP
FE
00
FE
30
30
30
30
30
30
30
30
ENDCHAR
STARTCHAR 20B9
ENCODING 8377
SWIDTH 540 0
DWIDTH 9 0
BBX 7 11 1 0
BITMAP
FE
F8
18
FE
0C
18
F8
F0
30
18
0C
ENDCHAR
STARTCHAR 20BA
ENCODING 8378
SWIDTH 540 0
DWIDTH 9 0
BBX 8 11 0 0
BITMAP
30
30
34
38
74
B9
73
B3
37
3E
38
ENDCHAR
STARTCHAR 20BD
ENCODING 8381
SWIDTH 540 0
DWIDTH 9 0
BBX 8 11 0 0
BITMAP
7C
7E
67
63
66
FC
60
FE
60
60
60
ENDCHAR
STARTCHAR 2113
ENCODING 8467
SWIDTH 420 0
DWIDTH 7 0
BBX 7 12 0 0
BITMAP
1C
3E
36
32
36
34
38
30
70
F2
3E
1C
ENDCHAR
STARTCHAR 2116
ENCODING 8470
SWIDTH 960 0
DWIDTH 16 0
BBX 15 11 1 0
BITMAP
6338
637C
7366
5366
5B7C
5B38
4B00
4F3C
473C
C700
C700
ENDCHAR
STARTCHAR 2117
ENCODING 8471
SWIDTH 780 0
DWIDTH 13 0
BBX 11 11 1 0
BITMAP
1F00
6080
5E40
9F60
9920
9F20
9E20
9860
5840
6080
1F00
ENDCHAR
STARTCHAR 2120
ENCODING 8480
SWIDTH 660 0
DWIDTH 11 0
BBX 11 5 0 6
BITMAP
7660
77E0
75A0
F7A0
7620
ENDCHAR
STARTCHAR 2122
ENCODING 8482
SWIDTH 660 0
DWIDTH 11 0
BBX 11 6 0 6
BITMAP
F860
E660
25E0
27A0
27A0
2620
ENDCHAR
STARTCHAR 2126
ENCODING 8486
SWIDTH 720 0
DWIDTH 12 0
BBX 10 11 1 0
BITMAP
1E00
7F80
6180
C1C0
C0C0
C0C0
C0C0
6180
6300
F3C0
F3C0
ENDCHAR
STARTCHAR 212E
ENCODING 8494
SWIDTH 840 0
DWIDTH 14 0
BBX 12 11 1 0
BITMAP
1F00
20C0
4020
C020
C030
FFF0
C000
C000
4000
2060
1F80
ENDCHAR
STARTCHAR 2150
ENCODING 8528
SWIDTH 840 0
DWIDTH 14 0
BBX 12 12 1 0
BITMAP
0080
6100
E100
6200
6200
65F0
6C30
6820
1860
1060
3040
2040
ENDCHAR
STARTCHAR 2151
ENCODING 8529
SWIDTH 840 0
DWIDTH 14 0
BBX 12 12 1 0
BITMAP
0080
6100
E100
6200
6200
64E0
64B0
6990
0990
10F0
1010
20E0
ENDCHAR
STARTCHAR 2152
ENCODING 8530
SWIDTH 1140 0
DWIDTH 19 0
BBX 18 12 1 0
BITMAP
008000
618000
E10000
630000
620000
646700
64E780
686CC0
086CC0
106CC0
106780
206700
ENDCHAR
STARTCHAR 2153
ENCODING 8531
SWIDTH 840 0
DWIDTH 14 0
BBX 12 12 1 0
BITMAP
0080
6100
E100
6200
6200
64E0
6D30
6830
1860
1010
3110
20E0
ENDCHAR
STARTCHAR 2154
ENCODING 8532
SWIDTH 840 0
DWIDTH 14 0
BBX 12 12 1 0
BITMAP
00C0
F080
9180
1100
3300
62F0
E690
FC10
0C60
0810
1890
11F0
ENDCHAR
STARTCHAR 2155
ENCODING 8533
SWIDTH 840 0
DWIDTH 14 0
BBX 12 12 1 0
BITMAP
0080
6100
E100
6200
6200
64F0
6C80
6880
18F0
1010
3110
20E0
ENDCHAR
STARTCHAR 2156
ENCODING 8534
SWIDTH 840 0
DWIDTH 14 0
BBX 12 12 1 0
BITMAP
00C0
F080
9180
1100
3300
62F0
E6C0
FC80
0CF0
0810
1890
11F0
ENDCHAR
STARTCHAR 2157
ENCODING 8535
SWIDTH 840 0
DWIDTH 14 0
BBX 12 12 1 0
BITMAP
00C0
F080
9100
1100
6200
12F0
9CC0
F480
08F0
0810
1090
31F0
ENDCHAR
STARTCHAR 2158
ENCODING 8536
SWIDTH 900 0
DWIDTH 15 0
BBX 13 12 1 0
BITMAP
0040
30C0
7080
5180
9100
FB78
1240
1640
0470
0818
0898
1070
ENDCHAR
STARTCHAR 2159
ENCODING 8537
SWIDTH 840 0
DWIDTH 14 0
BBX 12 12 1 0
BITMAP
0080
6100
E100
6200
6200
64F0
6480
6980
09F0
1190
1090
20E0
ENDCHAR
STARTCHAR 215A
ENCODING 8538
SWIDTH 840 0
DWIDTH 14 0
BBX 12 12 1 0
BITMAP
00C0
F080
C100
C100
F200
1A70
9C80
F580
09F0
0990
1090
3070
ENDCHAR
STARTCHAR 215B
ENCODING 8539
SWIDTH 840 0
DWIDTH 14 0
BBX 12 12 1 0
BITMAP
0080
6100
E100
6200
6200
64E0
6490
6890
0860
1090
1190
20F0
ENDCHAR
STARTCHAR 215C
ENCODING 8540
SWIDTH 840 0
DWIDTH 14 0
BBX 12 12 1 0
BITMAP
00C0
F080
9100
1100
6200
12F0
9C90
F490
0860
0890
1090
30F0
ENDCHAR
STARTCHAR 215D
ENCODING 8541
SWIDTH 840 0
DWIDTH 14 0
BBX 12 12 1 0
BITMAP
00C0
F080
C100
C100
F200
1AF0
9C90
F490
0860
0890
1090
30F0
ENDCHAR
STARTCHAR 215E
ENCODING 8542
SWIDTH 840 0
DWIDTH 14 0
BBX 12 12 1 0
BITMAP
0180
F100
3300
2200
6600
64E0
4C90
49B0
18E0
11B0
3190
20E0
ENDCHAR
STARTCHAR 2189
ENCODING 8585
SWIDTH 840 0
DWIDTH 14 0
BBX 12 12 1 0
BITMAP
00C0
7080
9100
9900
9A00
9AF0
9490
7410
0860
0810
1090
31F0
ENDCHAR
STARTCHAR 2190
ENCODING 8592
SWIDTH 660 0
DWIDTH 11 0
BBX 10 10 0 -1
BITMAP
0800
0C00
1800
3000
7FC0
FFC0
3000
1800
0C00
0800
ENDCHAR
STARTCHAR 2191
ENCODING 8593
SWIDTH 660 0
DWIDTH 11 0
BBX 9 9 1 0
BITMAP
0800
1C00
3E00
7B00
D980
1900
1800
1800
1800
ENDCHAR
STARTCHAR 2192
ENCODING 8594
SWIDTH 660 0
DWIDTH 11 0
BBX 9 10 1 -1
BITMAP
0800
1C00
0600
0300
FF80
FF80
0300
0600
0C00
1800
ENDCHAR
STARTCHAR 2193
ENCODING 8595
SWIDTH 660 0
DWIDTH 11 0
BBX 9 9 1 0
BITMAP
1800
1800
1800
1900
D980
7B00
3E00
1C00
0800
ENDCHAR
STARTCHAR 2202
ENCODING 8706
SWIDTH 540 0
DWIDTH 9 0
BBX 8 11 1 0
BITMAP
3C
7E
46
03
7B
FF
C6
C6
C6
FC
78
ENDCHAR
STARTCHAR 2206
ENCODING 8710
SWIDTH 600 0
DWIDTH 10 0
BBX 9 11 1 0
BITMAP
1C00
1C00
3400
3600
6600
6200
6300
C300
C100
FF80
FF80
ENDCHAR
STARTCHAR 220F
ENCODING 8719
SWIDTH 720 0
DWIDTH 12 0
BBX 9 13 1 -2
BITMAP
FF80
FF80
C180
C180
C180
C180
C180
C180
C180
C180
C180
C180
C180
ENDCHAR
STARTCHAR 2211
ENCODING 8721
SWIDTH 540 0
DWIDTH 9 0
BBX 9 13 0 -2
BITMAP
7F00
7F00
6000
3000
1800
0800
0C00
1800
1800
3000
6000
7F80
FF80
ENDCHAR
STARTCHAR 2212
ENCODING 8722
SWIDTH 540 0
DWIDTH 9 0
BBX 7 2 1 5
BITMAP
FE
FE
ENDCHAR
STARTCHAR 2215
ENCODING 8725
SWIDTH 120 0
DWIDTH 2 0
BBX 7 12 -3 0
BITMAP
02
06
04
0C
08
18
10
30
20
60
40
C0
ENDCHAR
STARTCHAR 2219
ENCODING 8729
SWIDTH 540 0
DWIDTH 9 0
BBX 3 3 3 4
BITMAP
C0
E0
C0
ENDCHAR
STARTCHAR 221A
ENCODING 8730
SWIDTH 600 0
DWIDTH 10 0
BBX 9 15 1 -1
BITMAP
0180
0100
0100
0100
0300
0200
4200
E200
6600
2400
3400
3400
1C00
1C00
0800
ENDCHAR
STARTCHAR 221E
ENCODING 8734
SWIDTH 840 0
DWIDTH 14 0
BBX 12 7 1 2
BITMAP
71E0
FBE0
8E30
8630
8F30
FBE0
71C0
ENDCHAR
STARTCHAR 222B
ENCODING 8747
SWIDTH 360 0
DWIDTH 6 0
BBX 5 17 1 -3
BITMAP
38
78
60
60
60
60
60
60
60
60
20
20
20
20
60
E0
C0
ENDCHAR
STARTCHAR 2248
ENCODING 8776
SWIDTH 540 0
DWIDTH 9 0
BBX 7 6 1 3
BITMAP
F2
9C
00
00
F2
9C
ENDCHAR
STARTCHAR 2260
ENCODING 8800
SWIDTH 540 0
DWIDTH 9 0
BBX 7 9 1 1
BITMAP
06
0C
FE
FE
10
FE
FE
40
C0
ENDCHAR
STARTCHAR 2264
ENCODING 8804
SWIDTH 540 0
DWIDTH 9 0
BBX 7 9 1 0
BITMAP
06
3E
E0
E0
7C
0E
00
FE
FE
ENDCHAR
STARTCHAR 2265
ENCODING 8805
SWIDTH 540 0
DWIDTH 9 0
BBX 7 9 1 0
BITMAP
C0
F8
1E
0E
F8
C0
00
FE
FE
ENDCHAR
STARTCHAR 231C
ENCODING 8988
SWIDTH 360 0
DWIDTH 6 0
BBX 3 13 2 -1
BITMAP
E0
E0
80
80
80
80
80
80
80
80
80
80
80
ENDCHAR
STARTCHAR 231D
ENCODING 8989
SWIDTH 360 0
DWIDTH 6 0
BBX 3 13 1 -1
BITMAP
E0
E0
60
60
60
60
60
60
60
60
60
60
60
ENDCHAR
STARTCHAR 231E
ENCODING 8990
SWIDTH 360 0
DWIDTH 6 0
BBX 3 13 2 -1
BITMAP
80
80
80
80
80
80
80
80
80
80
80
E0
E0
ENDCHAR
STARTCHAR 231F
ENCODING 8991
SWIDTH 360 0
DWIDTH 6 0
BBX 3 13 1 -1
BITMAP
60
60
60
60
60
60
60
60
60
60
60
E0
E0
ENDCHAR
STARTCHAR 25A0
ENCODING 9632
SWIDTH 900 0
DWIDTH 15 0
BBX 13 14 1 -1
BITMAP
FFF8
FFF8
FFF8
FFF8
FFF8
FFF8
FFF8
FFF8
FFF8
FFF8
FFF8
FFF8
FFF8
FFF8
ENDCHAR
STARTCHAR 25B2
ENCODING 9650
SWIDTH 900 0
DWIDTH 15 0
BBX 13 14 1 -1
BITMAP
0200
0200
0700
0700
0F80
0F80
1FC0
1FC0
3FE0
3FE0
7FF0
7FF0
7FF8
FFF8
ENDCHAR
STARTCHAR 25B3
ENCODING 9651
SWIDTH 900 0
DWIDTH 15 0
BBX 13 14 1 -1
BITMAP
0200
0200
0500
0500
0C80
0880
18C0
1040
3060
2020
6030
4010
7FF8
FFF8
ENDCHAR
STARTCHAR 25B6
ENCODING 9654
SWIDTH 900 0
DWIDTH 15 0
BBX 14 13 1 -1
BITMAP
8000
E000
F800
FE00
FF80
FFF0
FFFC
FFF0
FF80
FE00
F800
E000
8000
ENDCHAR
STARTCHAR 25B7
ENCODING 9655
SWIDTH 900 0
DWIDTH 15 0
BBX 14 13 1 -1
BITMAP
8000
E000
B800
8E00
8380
8070
801C
8070
8380
8E00
B800
E000
8000
ENDCHAR
STARTCHAR 25BC
ENCODING 9660
SWIDTH 900 0
DWIDTH 15 0
BBX 13 14 1 -1
BITMAP
FFF8
7FF8
7FF0
7FF0
3FE0
3FE0
1FC0
1FC0
0F80
0F80
0700
0700
0200
0200
ENDCHAR
STARTCHAR 25BD
ENCODING 9661
SWIDTH 900 0
DWIDTH 15 0
BBX 13 14 1 -1
BITMAP
FFF8
7FF8
4010
6030
2020
3060
1040
18C0
0880
0C80
0500
0500
0200
0200
ENDCHAR
STARTCHAR 25C0
ENCODING 9664
SWIDTH 900 0
DWIDTH 15 0
BBX 14 13 0 -1
BITMAP
0004
001C
007C
01FC
07FC
3FFC
FFFC
3FFC
07FC
01FC
007C
001C
0004
ENDCHAR
STARTCHAR 25C1
ENCODING 9665
SWIDTH 900 0
DWIDTH 15 0
BBX 14 13 0 -1
BITMAP
0004
001C
0074
01C4
0704
3804
E004
3804
0704
01C4
0074
001C
0004
ENDCHAR
STARTCHAR 25C6
ENCODING 9670
SWIDTH 900 0
DWIDTH 15 0
BBX 15 14 0 -1
BITMAP
0100
0380
07C0
0FE0
1FF0
3FF8
7FFC
FFFE
3FF8
1FF0
0FE0
07C0
0380
0100
ENDCHAR
STARTCHAR 25C9
ENCODING 9673
SWIDTH 900 0
DWIDTH 15 0
BBX 14 15 1 -2
BITMAP
0F80
3FE0
7070
6718
DFD8
9FC8
9FE8
BFEC
9FC8
9FC8
CF98
6018
7070
3FE0
0F80
ENDCHAR
STARTCHAR 25CA
ENCODING 9674
SWIDTH 540 0
DWIDTH 9 0
BBX 7 11 1 0
BITMAP
38
38
6C
6C
C6
C6
C6
6C
6C
38
38
ENDCHAR
STARTCHAR 25CC
ENCODING 9676
SWIDTH 600 0
DWIDTH 10 0
BBX 8 9 1 0
BITMAP
18
3C
64
83
83
83
83
3C
7C
ENDCHAR
STARTCHAR 2610
ENCODING 9744
SWIDTH 840 0
DWIDTH 14 0
BBX 11 12 1 0
BITMAP
7FE0
FFE0
8020
8020
8020
8020
8020
8020
8020
8020
8020
FFE0
ENDCHAR
STARTCHAR 2611
ENCODING 9745
SWIDTH 840 0
DWIDTH 14 0
BBX 13 14 1 0
BITMAP
0010
0038
7FE0
FFE0
80E0
80A0
81A0
B120
9B20
8A20
8E20
8620
8020
FFE0
ENDCHAR
STARTCHAR 266A
ENCODING 9834
SWIDTH 540 0
DWIDTH 9 0
BBX 9 13 0 -1
BITMAP
0800
0E00
0F00
0900
0980
0980
0900
0800
0800
3800
7800
F800
7000
ENDCHAR
STARTCHAR 2713
ENCODING 10003
SWIDTH 660 0
DWIDTH 11 0
BBX 11 12 0 0
BITMAP
0040
00E0
0180
0180
0300
0200
4600
C400
6C00
2800
3800
3800
ENDCHAR
STARTCHAR 2752
ENCODING 10066
SWIDTH 900 0
DWIDTH 15 0
BBX 13 14 1 -1
BITMAP
FFF8
FFF8
8008
8008
8008
8008
8008
8008
8008
8008
8008
8008
FFF8
FFF8
ENDCHAR
STARTCHAR 27E6
ENCODING 10214
SWIDTH 420 0
DWIDTH 7 0
BBX 4 16 2 -3
BITMAP
F0
F0
E0
E0
E0
E0
E0
E0
E0
E0
E0
E0
E0
E0
F0
F0
ENDCHAR
STARTCHAR 27E7
ENCODING 10215
SWIDTH 420 0
DWIDTH 7 0
BBX 4 16 1 -3
BITMAP
F0
F0
50
50
50
50
50
50
50
50
50
50
50
50
F0
F0
ENDCHAR
STARTCHAR 2E22
ENCODING 11810
SWIDTH 360 0
DWIDTH 6 0
BBX 3 8 2 5
BITMAP
E0
E0
80
80
80
80
80
80
ENDCHAR
STARTCHAR 2E23
ENCODING 11811
SWIDTH 360 0
DWIDTH 6 0
BBX 3 8 1 5
BITMAP
E0
E0
60
60
60
60
60
60
ENDCHAR
STARTCHAR 2E24
ENCODING 11812
SWIDTH 360 0
DWIDTH 6 0
BBX 3 8 2 -3
BITMAP
80
80
80
80
80
80
E0
E0
ENDCHAR
STARTCHAR 2E25
ENCODING 11813
SWIDTH 360 0
DWIDTH 6 0
BBX 3 8 1 -3
BITMAP
60
60
60
60
60
60
E0
E0
ENDCHAR
STARTCHAR 2E3A
ENCODING 11834
SWIDTH 1560 0
DWIDTH 26 0
BBX 24 2 1 3
BITMAP
FFFFFF
FFFFFF
ENDCHAR
STARTCHAR 2E3B
ENCODING 11835
SWIDTH 2220 0
DWIDTH 37 0
BBX 36 2 1 3
BITMAP
FFFFFFFFF0
FFFFFFFFF0
ENDCHAR
STARTCHAR FB00
ENCODING 64256
SWIDTH 660 0
DWIDTH 11 0
BBX 11 12 0 0
BITMAP
1CE0
3DE0
3180
3180
FFC0
FFC0
3180
3180
3180
3180
3180
3180
ENDCHAR
STARTCHAR FB01
ENCODING 64257
SWIDTH 600 0
DWIDTH 10 0
BBX 9 12 0 0
BITMAP
1C00
3D80
3180
3000
F980
F980
3180
3180
3180
3180
3180
3180
ENDCHAR
STARTCHAR FB02
ENCODING 64258
SWIDTH 600 0
DWIDTH 10 0
BBX 10 12 0 0
BITMAP
1D80
3D80
3180
3180
F980
F980
3180
3180
3180
3180
3180
31C0
ENDCHAR
STARTCHAR FB03
ENCODING 64259
SWIDTH 900 0
DWIDTH 15 0
BBX 14 12 0 0
BITMAP
1CE0
3DEC
318C
3180
FFCC
FFCC
318C
318C
318C
318C
318C
318C
ENDCHAR
STARTCHAR FB04
ENCODING 64260
SWIDTH 900 0
DWIDTH 15 0
BBX 15 12 0 0
BITMAP
1CEC
3DEC
318C
318C
FFCC
FFCC
318C
318C
318C
318C
318C
318E
ENDCHAR
STARTCHAR FEFF
ENCODING 65279
SWIDTH 0 0
DWIDTH 0 0
BBX 0 0 0 0
BITMAP
ENDCHAR
ENDFONT
